<?xml version="1.0" standalone="no"?>
<!DOCTYPE svg PUBLIC "-//W3C//DTD SVG 1.1//EN" "http://www.w3.org/Graphics/SVG/1.1/DTD/svg11.dtd" >
<svg>
<metadata>
Created by FontForge 20120731 at Tue Jul  3 08:27:34 2018
 By www
Copyright (c) 2009 by (c) 2009 Designed by Svetoslav Simov. Fontfabric, Inc. All rights reserved.
</metadata>
<defs>
<font id="Colo-Pro-Black" horiz-adv-x="1041" >
  <font-face 
    font-family="Colo Pro Black"
    font-weight="400"
    font-stretch="normal"
    units-per-em="2048"
    panose-1="2 11 6 4 2 2 2 2 2 4"
    ascent="1638"
    descent="-410"
    x-height="960"
    cap-height="1479"
    bbox="-944 -676 2634 2069"
    underline-thickness="150"
    underline-position="-292"
    unicode-range="U+0020-FB06"
  />
<missing-glyph horiz-adv-x="1536" 
d="M1280 0h-1024v1280h1024v-1280zM288 1248v-1216h960v1216h-960z" />
    <glyph glyph-name="s_t" unicode="st" horiz-adv-x="1352" 
d="M20 -1v360h302q-35 28 -100.5 78.5t-83.5 64.5q-74 59 -101 139.5t-8.5 150.5t84.5 119t163 49h549v511q44 -11 76 -21.5t72 -30t68.5 -43.5t57 -62.5t46.5 -87t29 -116.5t11 -150h116v-360h-106v-137q0 -46 32 -79t79 -33v-358q-98 0 -187 39t-153.5 104t-102.5 155
t-38 188v119h-340l197 -173q50 -45 73 -103t14.5 -113.5t-38.5 -103t-89 -77t-134 -29.5h-488z" />
    <glyph glyph-name="a_h" unicode="ah" horiz-adv-x="2130" 
d="M2064 -1h-372v512q0 45 -32 77.5t-77 32.5q-46 0 -78 -32.5t-32 -77.5v-25q3 -172 -104 -310.5t-268 -177.5v1330q142 -16 252 -124.5t112 -248.5q91 24 177.5 18.5t163 -45.5t134 -99.5t91 -143t33.5 -175.5v-511zM1022 496v-498q-169 39 -279.5 179.5t-105.5 314.5
q2 48 -32 83.5t-82 35.5q-47 0 -80.5 -34.5t-33.5 -81.5q1 -47 34 -79.5t80 -32.5q50 0 85 38q11 -97 55 -184q14 -33 53 -79.5t79 -79.5q-122 -80 -272 -80q-132 0 -247 66.5t-183.5 181.5t-68.5 250q0 101 39.5 193.5t106 160t159 107t194.5 39.5q135 0 250 -67
t182 -182.5t67 -250.5z" />
    <glyph glyph-name="a_n" unicode="an" horiz-adv-x="2120" 
d="M1001 481v-487q-164 39 -272 176t-104 307q2 47 -31 81t-80 34q-45 0 -78 -33t-32 -79q0 -46 32.5 -78t77.5 -32q50 0 83 38q9 -91 54 -180q17 -37 54 -81.5t75 -73.5q-120 -79 -266 -79q-128 0 -240 65t-179 177.5t-67 244.5t65 244.5t177 177.5t244 65q99 0 189 -38.5
t155.5 -104t104 -155.5t38.5 -189zM2041 0h-363v500q0 44 -31.5 76.5t-75.5 32.5q-45 0 -76 -32t-31 -77v-84q0 -183 -93.5 -281t-269.5 -141v967q100 -24 182 -88q127 99 288 99q128 0 236 -64t171 -172.5t63 -236.5v-499z" />
    <glyph glyph-name="a_m" unicode="am" horiz-adv-x="2699" 
d="M2634 -1h-369v492q0 45 -31.5 77t-76.5 32q-46 0 -77 -33t-31 -79v-489h-369v492q0 45 -31.5 77t-75.5 32q-46 0 -77.5 -32t-31.5 -77q0 -113 -44 -215.5t-128.5 -177t-195.5 -101.5v960q31 -7 52 -14t48 -21t48 -38t37 -58q52 72 130.5 107.5t163.5 34.5q160 0 289 -100
q131 102 296 100q196 -1 335 -141.5t139 -336.5v-491zM1001 481v-487q-164 39 -272 176t-104 307q2 47 -31 81t-80 34q-45 0 -78 -33t-32 -79q0 -46 32.5 -78t77.5 -32q50 0 83 38q9 -91 54 -180q17 -37 54 -81.5t75 -73.5q-120 -79 -266 -79q-128 0 -240 65t-179 177.5
t-67 244.5t65 244.5t177 177.5t244 65q99 0 189 -38.5t155.5 -104t104 -155.5t38.5 -189z" />
    <glyph glyph-name="a_k" unicode="ak" horiz-adv-x="2065" 
d="M1077 -4v1470q162 -38 269 -171.5t107 -298.5v-303q175 122 175 202v66h375v-65q0 -110 -27.5 -191t-101.5 -138l-119 -92l119 -97q81 -65 105 -136.5t24 -192.5v-50h-375v51q0 43 -17.5 71.5t-54.5 56.5l-144 106q-46 -107 -135 -184t-200 -104zM1009 481v-487
q-164 39 -272 176t-104 307q2 47 -31 81t-80 34q-45 0 -78 -33t-32 -79q0 -46 32.5 -78t77.5 -32q50 0 83 38q9 -91 54 -180q17 -37 54 -81.5t75 -73.5q-120 -79 -266 -79q-128 0 -240 65t-179 177.5t-67 244.5t65 244.5t177 177.5t244 65q99 0 189 -38.5t155.5 -104
t104 -155.5t38.5 -189z" />
    <glyph glyph-name="e_s" unicode="es" horiz-adv-x="1809" 
d="M1738 965v-364h-266l198 -174q50 -45 73 -103t14.5 -114t-38.5 -103.5t-89.5 -77t-134.5 -29.5h-998q-132 0 -243.5 65t-176.5 176.5t-65 243.5t65 243.5t176.5 176.5t243.5 65q87 0 164 -21t141.5 -63.5t104.5 -114.5t46 -166q9 -129 -56 -206l-409 -1v42q61 -1 86.5 38
t2.5 78t-80 39q-45 0 -77.5 -32.5t-32.5 -77.5q0 -47 34 -80.5t80 -32.5l786 1q-12 9 -69 56t-95 76q-59 47 -90 110t-27.5 123t31 111.5t87 83.5t137.5 32h477z" />
    <glyph glyph-name="t_s" unicode="ts" horiz-adv-x="1353" 
d="M490 961v-371h-106v-114q0 -45 30.5 -80t74.5 -37h375q-35 28 -100.5 78.5t-83.5 64.5q-74 59 -101 139.5t-8.5 150.5t84.5 119t163 49h474v-362h-265l197 -173q50 -45 73 -103t14.5 -113.5t-38.5 -103t-89 -77t-134 -29.5h-561q-129 1 -238.5 65.5t-173 174.5t-63.5 240
v989q73 -16 135.5 -52.5t114 -96.5t81 -151.5t29.5 -206.5h116z" />
    <glyph glyph-name=".notdef" horiz-adv-x="1536" 
d="M1280 0h-1024v1280h1024v-1280zM288 1248v-1216h960v1216h-960z" />
    <glyph glyph-name=".null" horiz-adv-x="0" 
 />
    <glyph glyph-name="nonmarkingreturn" horiz-adv-x="569" 
 />
    <glyph glyph-name="space" unicode=" " horiz-adv-x="399" 
 />
    <glyph glyph-name="space" unicode="&#xa0;" horiz-adv-x="399" 
 />
    <glyph glyph-name="exclam" unicode="!" horiz-adv-x="637" 
d="M519 326h-410l-29 1140h483zM519 0h-410v272h410v-272z" />
    <glyph glyph-name="quotedbl" unicode="&#x22;" horiz-adv-x="1060" 
d="M325 816h-247l46 650h416zM572 1466h416l-215 -650h-247z" />
    <glyph glyph-name="numbersign" unicode="#" horiz-adv-x="1415" 
d="M455 2h-379l75 283h-105v369h204l46 167h-124v369h220l75 275h382l-76 -275h139l73 275h383l-74 -275h86v-369h-185l-45 -167h104v-369h-201l-79 -283h-379l74 283h-137zM614 639h164l52 198h-164z" />
    <glyph glyph-name="dollar" unicode="$" horiz-adv-x="1370" 
d="M839 -127h-333v119q-158 18 -280.5 123t-151.5 257l372 69q14 -46 60 -69v188q-112 10 -201.5 56t-143.5 113t-82.5 149.5t-26.5 167t32.5 165t85.5 143.5t142 102t194 41v113h333v-115q163 -18 288.5 -123.5t154.5 -261.5l-372 -69q-15 51 -71 75v-193q108 -8 195.5 -50
t143 -106t85 -142t30.5 -162q1 -68 -16.5 -133.5t-55 -124t-90.5 -104.5t-128.5 -75.5t-163.5 -35.5v-117zM509 871v311q-40 -10 -66.5 -42t-33 -72.5t0 -81t33 -72.5t66.5 -43zM834 610v-308q39 11 64.5 42.5t32 72t0 80.5t-32 71.5t-64.5 41.5z" />
    <glyph glyph-name="percent" unicode="%" horiz-adv-x="1554" 
d="M1026 1487h426q-409 -676 -920 -1513h-426q332 533 920 1513zM397 846q-127 0 -222.5 95t-95.5 223q0 131 95 224t223 93q129 0 223 -92.5t94 -224.5q0 -129 -94.5 -223.5t-222.5 -94.5zM398 1212q-19 0 -32.5 -13.5t-13.5 -33.5q0 -19 13.5 -32t32.5 -13t32.5 13
t13.5 32t-13.5 33t-32.5 14zM1174 -11q-127 0 -222.5 95t-95.5 223q0 131 95 224t223 93q129 0 223 -92.5t94 -224.5q0 -129 -94.5 -223.5t-222.5 -94.5zM1169 353q-19 0 -32.5 -13.5t-13.5 -33.5q0 -19 13.5 -32t32.5 -13t32.5 13t13.5 32t-13.5 33t-32.5 14z" />
    <glyph glyph-name="ampersand" unicode="&#x26;" horiz-adv-x="1491" 
d="M1464 -1h-953q-127 0 -235 63t-170.5 171t-62.5 234q0 94 41 176t116 134q-99 80 -99 248q0 127 63 235t170.5 170.5t234.5 62.5h186q195 0 331.5 -136.5t136.5 -331.5q0 -98 -45 -194t-126 -150q-77 -48 -188 -83l113 -112l257 216l241 -290l-229 -193zM537 935h218
q38 0 64 26.5t26 63.5q0 38 -26.5 65t-63.5 27h-214q-38 0 -65 -27t-27 -65q0 -37 26.5 -63.5t61.5 -26.5zM429 557q-28 -42 -28 -86q0 -63 46.5 -105.5t112.5 -42.5h104z" />
    <glyph glyph-name="quotesingle" unicode="'" horiz-adv-x="611" 
d="M316 816h-247l46 650h416z" />
    <glyph glyph-name="parenleft" unicode="(" horiz-adv-x="685" 
d="M641 -158v-386q-141 0 -262.5 72.5t-192 194.5t-70.5 262v1387q0 141 70.5 262t192 192.5t262.5 71.5v-387q-55 0 -96 -41t-41 -96v-1389q0 -58 41 -100.5t96 -42.5z" />
    <glyph glyph-name="parenright" unicode=")" horiz-adv-x="748" 
d="M76 -544v386q55 0 96 42.5t41 100.5v1389q0 55 -41 96t-96 41v387q141 0 262.5 -71.5t192 -192.5t70.5 -262v-1387q0 -140 -70.5 -262t-192 -194.5t-262.5 -72.5z" />
    <glyph glyph-name="asterisk" unicode="*" horiz-adv-x="916" 
d="M185 771l-136 241l178 73l-178 75l136 241l155 -124l-23 195h276l-27 -195l154 124l139 -241l-182 -75l182 -73l-139 -241l-152 121l25 -192h-276l23 188z" />
    <glyph glyph-name="plus" unicode="+" horiz-adv-x="1196" 
d="M774 226h-364v326h-325v365h325v322h364v-322h324v-365h-324v-326z" />
    <glyph glyph-name="comma" unicode="," horiz-adv-x="620" 
d="M100 -416v307q46 0 78 32.5t32 78.5h-110v331h419v-331q0 -172 -123 -295t-296 -123z" />
    <glyph glyph-name="hyphen" unicode="-" horiz-adv-x="759" 
d="M694 780v-383h-648v383h648z" />
    <glyph glyph-name="hyphen" unicode="&#xad;" horiz-adv-x="759" 
d="M694 780v-383h-648v383h648z" />
    <glyph glyph-name="period" unicode="." horiz-adv-x="630" 
d="M504 0h-400v339h400v-339z" />
    <glyph glyph-name="slash" unicode="/" horiz-adv-x="972" 
d="M356 -211h-435l640 1784h434z" />
    <glyph glyph-name="zero" unicode="0" horiz-adv-x="1330" 
d="M767 1475q140 0 259.5 -69t189.5 -188t70 -258v-459q0 -140 -70 -259t-189.5 -188.5t-259.5 -69.5h-202q-140 0 -259.5 69.5t-189.5 188.5t-70 259v459q0 139 70 258t189.5 188t259.5 69h202zM904 503v457q0 55 -39.5 96t-97.5 41h-202q-58 0 -97.5 -41t-39.5 -96v-457
q0 -57 39.5 -98.5t97.5 -41.5h202q58 0 97.5 41.5t39.5 98.5z" />
    <glyph glyph-name="one" unicode="1" horiz-adv-x="622" 
d="M530 1h-382v961q0 54 -39 95t-94 41v377q140 0 259 -70.5t187.5 -190t68.5 -258.5v-955z" />
    <glyph glyph-name="two" unicode="2" horiz-adv-x="1336" 
d="M1221 381v-381h-1170v450q0 103 39.5 189t107.5 143.5t157.5 89t190.5 31.5h252q32 0 55 21t29.5 51t2.5 60t-25.5 51t-54.5 21h-268q-37 -1 -66.5 -24t-42.5 -57l-367 69q20 109 94.5 196.5t179 135t218.5 47.5h264q218 0 346 -145q106 -120 112 -289q5 -172 -96 -303
q-124 -160 -355 -179q-30 -3 -61 -3h-256q-37 0 -59 -32t-22 -71v-71h795z" />
    <glyph glyph-name="three" unicode="3" horiz-adv-x="1166" 
d="M52 0v352h578q32 0 54 21.5t27.5 52t0 61.5t-28.5 52.5t-58 21.5h-573v339h578q38 0 61 31t24.5 68.5t-21 68.5t-64.5 31h-578v372h578q124 0 230.5 -62.5t168 -169t61.5 -230.5q0 -83 -34.5 -158.5t-100.5 -116.5q66 -46 100.5 -120.5t34.5 -153.5q0 -191 -135 -325.5
t-325 -134.5h-578z" />
    <glyph glyph-name="four" unicode="4" horiz-adv-x="1303" 
d="M1216 0h-382v475h-283q-103 0 -198 41.5t-164.5 111t-110.5 165.5t-41 200v471h378v-471q0 -56 40.5 -97t95.5 -41h283v609h382v-1464z" />
    <glyph glyph-name="five" unicode="5" horiz-adv-x="1277" 
d="M10 363l371 70q11 -35 40.5 -58t66.5 -24h272q51 0 79.5 37t28 82t-29.5 82t-78 37h-725v876h1064v-373h-701v-138h317q252 0 395 -163q114 -129 121 -313q7 -179 -89 -315q-109 -155 -303 -179q-32 -4 -66 -4h-268q-114 0 -219.5 48t-180 136.5t-95.5 198.5z" />
    <glyph glyph-name="six" unicode="6" horiz-adv-x="1306" 
d="M1081 1463v-372h-576q-39 0 -63 -26.5t-24 -67.5v-55h341q120 0 217.5 -41t157.5 -107.5t93 -152t33 -174.5t-32 -174.5t-92 -152t-158 -107.5t-219 -41h-210q-134 0 -251.5 68t-187 184t-69.5 249v504q0 94 36.5 180t98.5 148.5t148 100t181 37.5h576zM759 362
q50 0 84 27t42 65t0 76t-42 65t-84 27h-341v-122q0 -57 38.5 -97.5t92.5 -40.5h210z" />
    <glyph glyph-name="seven" unicode="7" horiz-adv-x="1190" 
d="M480 1h-454l640 1096h-638v368h1151q0 -127 -17.5 -206t-68.5 -180z" />
    <glyph glyph-name="eight" unicode="8" horiz-adv-x="1275" 
d="M1086 770q81 -45 122 -130.5t41 -185.5q0 -126 -62.5 -233t-170 -169t-233.5 -62h-303q-127 0 -234.5 62t-170 169t-62.5 233q0 96 45 185t120 135q-105 82 -105 235q0 194 135.5 331t328.5 137h186q193 0 329.5 -137t136.5 -331q0 -149 -103 -239zM786 364q42 0 70 23
t33.5 57t-1.5 67.5t-35 57t-67 23.5h-303q-42 0 -71 -23.5t-36 -57t0 -67t36 -57t71 -23.5h303zM436 1002q0 -43 28 -76t66 -33h202q39 0 67.5 33t28.5 76q0 44 -28.5 79t-67.5 35h-195q-42 0 -71.5 -34.5t-29.5 -79.5z" />
    <glyph glyph-name="nine" unicode="9" horiz-adv-x="1288" 
d="M200 0v374h578q39 0 63.5 26.5t24.5 67.5v58h-343q-120 0 -218 41t-158 107.5t-93 152t-33.5 174.5t32 174.5t92.5 152t158.5 107.5t219.5 41h211q135 0 252.5 -68t187.5 -184.5t70 -250.5v-505q0 -192 -136.5 -330t-329.5 -138h-578zM523 1105q-50 0 -85 -27.5t-44 -67
t-1.5 -79t42.5 -67t88 -27.5h343v130q0 56 -38.5 97t-93.5 41h-211z" />
    <glyph glyph-name="colon" unicode=":" horiz-adv-x="530" 
d="M440 1076v-338h-399v338h399zM440 447v-338h-399v338h399z" />
    <glyph glyph-name="semicolon" unicode=";" horiz-adv-x="500" 
d="M37 -305v307q45 0 77.5 35t32.5 82h-110v325h409v-331q0 -173 -118.5 -295.5t-290.5 -122.5zM440 1076v-338h-399v338h399z" />
    <glyph glyph-name="less" unicode="&#x3c;" horiz-adv-x="1013" 
d="M933 501v-354h-239q-176 0 -285 100l-367 344v278l367 344q107 98 285 98h239v-352h-265q-48 0 -77 -29l-224 -201l224 -201q30 -27 77 -27h265z" />
    <glyph glyph-name="equal" unicode="=" horiz-adv-x="1113" 
d="M42 225v350h992v-350h-992zM42 711v349h992v-349h-992z" />
    <glyph glyph-name="greater" unicode="&#x3e;" horiz-adv-x="1002" 
d="M49 147v352h233q48 0 77 29l224 201l-224 201q-30 27 -77 27h-233v354h239q176 0 285 -100l367 -344v-278l-367 -344q-107 -98 -285 -98h-239z" />
    <glyph glyph-name="question" unicode="?" horiz-adv-x="1208" 
d="M336 1024l-367 69q31 166 173.5 273t317.5 107h261q122 0 219 -48.5t149 -127t77 -174t3 -193t-72.5 -179.5t-151 -138t-230.5 -65q-37 -2 -64 -30t-27 -65v-91h-379v93q0 195 132.5 320t326.5 135q38 2 63 22.5t30.5 49t-0.5 57t-29.5 48t-56.5 19.5h-268
q-37 -1 -66.5 -24t-40.5 -58zM643 1h-402v273h402v-273z" />
    <glyph glyph-name="at" unicode="@" horiz-adv-x="1708" 
d="M968 363l10 -17q44 -81 126 -148q-130 -80 -280 -80q-103 0 -198.5 41t-166 109.5t-112.5 165t-42 201.5q0 140 69.5 259.5t189 189.5t260.5 70q140 0 259.5 -70t189.5 -189.5t70 -259.5l-2 -320q1 -1 5 -2t6 -2q94 142 94 324q0 126 -49.5 241t-133 198.5t-198.5 133
t-241 49.5t-241 -49.5t-198.5 -133t-133 -198.5t-49.5 -241q0 -169 84 -312.5t227 -226t311 -82.5q185 0 343 104q119 -65 208 -73q-118 -125 -242.5 -173.5t-308.5 -48.5q-167 0 -317.5 64.5t-257.5 173.5t-170 259t-63 315q0 164 64 314t171.5 258.5t257.5 172.5t315 64
q132 0 255 -41t222.5 -116t174 -174.5t115.5 -222.5t41 -255q0 -151 -51 -294t-154 -233q-125 5 -239.5 81t-182.5 195.5t-64 244.5q1 48 -34.5 85t-82.5 37q-49 0 -85 -36t-35 -84q0 -46 36 -81.5t84 -35.5q42 0 86 42q8 -87 58 -193z" />
    <glyph glyph-name="A" unicode="A" horiz-adv-x="1343" 
d="M1272 0h-384v341h-474v-341h-382v959q0 140 69.5 259t189 188.5t258.5 69.5h204q104 0 200 -41t166 -110t111.5 -165t41.5 -201v-959zM549 1097q-56 0 -95.5 -40.5t-39.5 -97.5v-231h474v231q0 57 -39 97.5t-96 40.5h-204z" />
    <glyph glyph-name="B" unicode="B" horiz-adv-x="1290" 
d="M1176 1035q0 -73 -35.5 -151t-109.5 -125q52 -21 92 -59t63 -84t35 -91.5t14 -89.5q3 -93 -32.5 -174.5t-97.5 -138t-147 -89t-179 -32.5h-748v1466h687q192 0 325 -122t133 -310zM863 479q0 37 -25.5 68.5t-60.5 31.5h-388v-206h388q35 0 60.5 34t25.5 72zM800 983
q0 52 -24.5 82.5t-61.5 30.5h-325v-211h325q37 0 61.5 27t24.5 71z" />
    <glyph glyph-name="C" unicode="C" horiz-adv-x="1229" 
d="M988 438l187 -334q-182 -115 -397 -115q-153 0 -291 58.5t-237.5 158t-158 237t-58.5 289.5q0 121 37.5 234.5t106 205t160 160t205.5 106t236 37.5q213 0 397 -113l-187 -336q-98 68 -210 68q-153 0 -258.5 -105t-105.5 -257t105.5 -257t258.5 -105q114 0 210 68z" />
    <glyph glyph-name="D" unicode="D" horiz-adv-x="1368" 
d="M578 1466q148 0 283.5 -58t233.5 -156t156.5 -233t58.5 -283q0 -150 -58.5 -286.5t-157.5 -235t-235 -156.5t-285 -58h-546v1466h550zM578 370q148 0 252.5 107t104.5 259q0 146 -105 253t-252 107h-176v-726h176z" />
    <glyph glyph-name="E" unicode="E" horiz-adv-x="1135" 
d="M1065 363v-364h-517q-136 0 -253.5 69t-186 186t-68.5 253v448q0 138 68.5 255.5t185.5 186t254 68.5h517v-367h-517q-54 0 -94 -41t-40 -96v-59h651v-348h-651v-49q0 -55 40 -98.5t94 -43.5h517z" />
    <glyph glyph-name="F" unicode="F" horiz-adv-x="967" 
d="M412 0h-381v956q0 139 69.5 258t188.5 188t258 69h381v-375h-381q-57 0 -96 -39.5t-39 -94.5v-157h432v-382h-432v-423z" />
    <glyph glyph-name="G" unicode="G" horiz-adv-x="1552" 
d="M778 529v384h728v-203q0 -323 -201.5 -523.5t-524.5 -200.5q-151 0 -289 59t-237.5 159t-158.5 238.5t-59 289.5q0 152 59 290t158.5 238.5t238 159.5t290.5 59q212 0 400 -116l-187 -335q-101 68 -213 68q-151 0 -258 -106.5t-107 -257.5t106 -257t257 -108
q91 0 172.5 43.5t131.5 118.5h-306z" />
    <glyph glyph-name="H" unicode="H" horiz-adv-x="1356" 
d="M422 0h-382l-1 1465h1v1q1 -1 3 -1h379v-591h492v592q1 -1 3 -1h378v-1465h-381v513h-492v-513z" />
    <glyph glyph-name="I" unicode="I" horiz-adv-x="547" 
d="M455 0h-385v1468h385v-1468z" />
    <glyph glyph-name="J" unicode="J" horiz-adv-x="908" 
d="M17 -8v375h327q56 0 96 41.5t40 96.5v585h-125v375h508v-967q0 -136 -71.5 -253t-191 -185t-256.5 -68h-327z" />
    <glyph glyph-name="K" unicode="K" horiz-adv-x="1268" 
d="M1212 2h-372v154q0 50 -28 82l-265 305h-130v-541h-383v1464h383v-543h117l278 309q28 31 28 81v153h372v-159q0 -190 -105 -299l-254 -274l254 -273q105 -109 105 -299v-160z" />
    <glyph glyph-name="L" unicode="L" horiz-adv-x="911" 
d="M33 475l-1 1004h1v1h2q50 -1 380 -1v-998q0 -41 31.5 -69t75.5 -28h334v-384h-358q-196 0 -330.5 135.5t-134.5 339.5z" />
    <glyph glyph-name="M" unicode="M" horiz-adv-x="1538" 
d="M1466 0h-388l24 811l-200 -332q-71 -102 -161.5 -101.5t-156.5 105.5l-196 303l24 -786h-388v1192q0 84 26.5 146.5t68 94.5t93 44t101.5 1.5t94 -39.5t69 -72l268 -468l288 468q26 43 68.5 72t90 39.5t97 -1.5t88.5 -44t64 -94.5t25 -146.5z" />
    <glyph glyph-name="N" unicode="N" horiz-adv-x="1337" 
d="M882 1469h387v-1248q0 -62 -26 -112.5t-68 -80.5t-95.5 -42.5t-105.5 -5t-100 39t-78 82.5l-394 685l7 -786h-387l1 1226q0 72 19.5 126.5t52.5 84t74 45t85.5 11.5t86.5 -19.5t77.5 -45t56.5 -67.5l422 -741z" />
    <glyph glyph-name="O" unicode="O" horiz-adv-x="1587" 
d="M774 1486q206 0 379.5 -101t274 -274.5t100.5 -378.5q0 -152 -59.5 -291t-160 -239.5t-240.5 -160t-294 -59.5q-152 0 -291 59.5t-239.5 160t-160 239.5t-59.5 291q0 154 59.5 293.5t160 240.5t239.5 160.5t291 59.5zM774 368q155 0 262.5 107t107.5 257
q0 153 -107.5 260.5t-262.5 107.5q-150 0 -257 -108t-107 -260q0 -149 107.5 -256.5t256.5 -107.5z" />
    <glyph glyph-name="P" unicode="P" horiz-adv-x="1231" 
d="M405 0h-377v963q0 136 69.5 253t188 185t255.5 68h133q104 0 199 -41t164 -110t109.5 -163.5t40.5 -197.5v-86q0 -139 -69 -256t-187 -184t-257 -67h-269v-364zM810 857v100q0 57 -39.5 97.5t-94.5 40.5h-141q-56 0 -95 -40t-39 -98v-255h275q53 0 93.5 49t40.5 106z" />
    <glyph glyph-name="Q" unicode="Q" horiz-adv-x="1554" 
d="M1555 0h-423l-31 59q-160 -76 -331 -76q-152 0 -290.5 59t-239 159t-159.5 238.5t-59 291.5q0 152 59 290t159.5 237.5t239 158.5t290.5 59t290.5 -59t239 -158.5t159.5 -237.5t59 -290q0 -238 -137 -430zM770 362q152 0 260 108.5t108 260.5q0 151 -108 258.5
t-260 107.5t-259.5 -107.5t-107.5 -258.5q0 -152 107.5 -260.5t259.5 -108.5z" />
    <glyph glyph-name="R" unicode="R" horiz-adv-x="1291" 
d="M1236 1h-381q0 99 -48 190t-133 148t-182 57h-81v-395h-381v964q0 136 70.5 253.5t189 186t255.5 68.5h178q211 0 362 -151.5t151 -363.5v-86q0 -74 -32 -154.5t-91 -144.5t-128 -84q84 -44 142.5 -127t83.5 -174t25 -187zM857 960q0 56 -39 96t-95 40h-178
q-56 0 -96 -40t-40 -96q0 -37 1 -129t1 -130h312q56 0 95 40.5t39 95.5v123z" />
    <glyph glyph-name="S" unicode="S" horiz-adv-x="1217" 
d="M1157 1094l-362 -68q-11 34 -41 58t-67 25h-203q-40 0 -63 -30t-23 -66.5t23 -66.5t63 -30h186q119 0 215.5 -39t157.5 -104t94 -146t35 -169q1 -89 -31 -171t-92.5 -148.5t-157.5 -106.5t-216 -40h-147q-175 0 -317 106.5t-174 272.5l366 68q11 -34 41 -57.5t67 -26.5
h203q40 0 63 30.5t22.5 66.5t-23 66.5t-62.5 30.5h-186q-251 0 -392 157q-112 123 -118 298q-6 170 91 298q111 150 310 169q26 2 53 2h198q175 0 316.5 -106.5t170.5 -272.5z" />
    <glyph glyph-name="T" unicode="T" horiz-adv-x="1144" 
d="M727 1h-370v1098h-360v366h1090v-366h-360v-1098z" />
    <glyph glyph-name="U" unicode="U" horiz-adv-x="1325" 
d="M538 1q-214 0 -360 143.5t-146 356.5v967h373v-967q0 -50 33.5 -85.5t82.5 -39.5h236q49 4 82.5 39.5t33.5 85.5v967h373v-967q0 -213 -146 -356.5t-360 -143.5h-202z" />
    <glyph glyph-name="V" unicode="V" horiz-adv-x="1305" 
d="M874 1464h368v-780q0 -192 -102 -297l-360 -387h-295l-360 387q-102 107 -102 297v780h370v-774q0 -52 29 -84l209 -232l212 232q31 34 31 84v774z" />
    <glyph glyph-name="W" unicode="W" horiz-adv-x="1888" 
d="M1447 1467h374v-779q0 -91 -16 -146.5t-66 -122.5l-313 -418h-296l-206 277l-208 -277h-296l-311 418q-50 67 -66 122.5t-16 146.5v779h374v-781q0 -59 17 -86l149 -225l153 225q17 29 17 86v781h374v-785q0 -56 17 -82l151 -225l151 225q17 27 17 86v781z" />
    <glyph glyph-name="X" unicode="X" horiz-adv-x="1301" 
d="M1246 0h-373v183q0 52 -29 81l-212 237l-213 -237q-27 -30 -27 -81v-183h-375v159q0 190 105 299l257 277l-257 274q-105 113 -105 299v159h375v-190q0 -52 27 -82l213 -237l212 237q29 29 29 82v190h373v-159q0 -186 -105 -299l-255 -274l255 -277q105 -109 105 -299
v-159z" />
    <glyph glyph-name="Y" unicode="Y" horiz-adv-x="1282" 
d="M811 1h-366v564l-324 346q-104 111 -104 298v257h372v-280q0 -52 27 -82l211 -234l211 234q28 31 28 82v280h373v-257q0 -187 -104 -298l-324 -346v-564z" />
    <glyph glyph-name="Z" unicode="Z" horiz-adv-x="1258" 
d="M1185 371v-370h-1174v160q0 104 20 176.5t81 138.5q97 103 287.5 310.5t289.5 313.5h-638v367h1153v-159q0 -98 -18.5 -169.5t-73.5 -129.5q-106 -114 -301.5 -327t-286.5 -311h661z" />
    <glyph glyph-name="bracketleft" unicode="[" horiz-adv-x="604" 
d="M589 -101v-388h-525v2446h525v-389h-133v-1669h133z" />
    <glyph glyph-name="backslash" unicode="\" horiz-adv-x="882" 
d="M884 -211h-435l-639 1784h434z" />
    <glyph glyph-name="bracketright" unicode="]" horiz-adv-x="612" 
d="M-39 -489v388h133v1669h-133v389h525v-2446h-525z" />
    <glyph glyph-name="asciicircum" unicode="^" horiz-adv-x="1080" 
d="M406 856h-349l283 611h382l290 -611h-356l-126 254z" />
    <glyph glyph-name="underscore" unicode="_" horiz-adv-x="1350" 
d="M9 -413v316h1277v-316h-1277z" />
    <glyph glyph-name="grave" unicode="`" horiz-adv-x="707" 
d="M618 1019h-299l-268 278l363 189z" />
    <glyph glyph-name="a" unicode="a" horiz-adv-x="1064" 
d="M1005 480v-487q-164 38 -273 175.5t-106 307.5q3 46 -29 80t-79 34q-45 0 -77.5 -33t-32.5 -77q0 -46 32.5 -79t77.5 -33q53 0 78 37q25 -191 186 -335q-127 -77 -264 -77q-129 0 -241 64t-180 177t-68 246q0 203 143 346t346 143q99 0 189 -38.5t155.5 -104t104 -156
t38.5 -190.5z" />
    <glyph glyph-name="b" unicode="b" horiz-adv-x="1029" 
d="M421 561v397q33 8 84 8q131 0 244 -66.5t178 -178t65 -240.5q0 -132 -65.5 -243.5t-177.5 -176.5t-244 -65t-243.5 65t-176.5 176.5t-65 243.5v981q162 -39 269.5 -173t107.5 -299v-502q0 -48 30 -81.5t78 -33.5t78 31t32 77q0 36 -21 63t-50.5 38.5t-63.5 7t-59 -28.5z
" />
    <glyph glyph-name="c" unicode="c" horiz-adv-x="1010" 
d="M505 369h474q-39 -161 -173.5 -268.5t-302.5 -107.5q-129 0 -241.5 66.5t-178.5 179t-66 240.5q0 133 65.5 245.5t177.5 177.5t243 65q172 0 304.5 -106.5t171.5 -269.5h-476q-44 0 -77 -33t-33 -79q0 -44 34 -77t78 -33z" />
    <glyph glyph-name="d" unicode="d" 
d="M591 958v-397q-25 24 -59 28.5t-63.5 -7t-50.5 -38.5t-21 -63q2 -46 32 -77t78 -31t78 33.5t30 81.5v502q0 165 107.5 299t269.5 173v-981q0 -132 -65 -243.5t-176.5 -176.5t-243.5 -65t-244 65t-177.5 176.5t-65.5 243.5q0 129 65 240.5t178 178t244 66.5q51 0 84 -8z
" />
    <glyph glyph-name="e" unicode="e" horiz-adv-x="1006" 
d="M937 375v-375h-436h-4q-132 0 -243.5 65t-176.5 176.5t-65 243.5t65 243.5t176.5 176.5t243.5 65q87 0 164 -21t141.5 -63.5t104.5 -114.5t46 -166q9 -129 -56 -206l-333 -1h-63v42q61 -1 83 38t-4 78t-83 39q-45 0 -77.5 -32.5t-32.5 -77.5q0 -46 33.5 -79t80.5 -31h436
z" />
    <glyph glyph-name="f" unicode="f" horiz-adv-x="546" 
d="M399 2h-376v969q0 133 64.5 245.5t176 178t244.5 65.5v-372q-47 0 -78 -33t-31 -80v-169h82v-375h-82v-429z" />
    <glyph glyph-name="g" unicode="g" horiz-adv-x="1064" 
d="M518 -401v377q48 0 79 32t31 81v393q0 48 -31 79.5t-79 31.5q-47 0 -76.5 -30t-32.5 -74q0 -48 31.5 -79.5t77.5 -31.5q56 0 85 37v-324q-1 -30 -14.5 -49.5t-38 -28t-46 -11.5t-51.5 -3q-122 0 -222.5 70.5t-155 181.5t-54.5 235q0 130 68 242t182.5 177t246.5 65
q127 0 239 -63.5t180 -173t68 -236.5v-425q0 -127 -68 -236.5t-180 -173t-239 -63.5z" />
    <glyph glyph-name="h" unicode="h" horiz-adv-x="1033" 
d="M974 0h-369v509q0 45 -31.5 78t-77.5 33q-44 0 -75.5 -33t-31.5 -78v-509h-368v1470q39 -4 61.5 -7t59 -12t58 -20t51.5 -32.5t47.5 -49t36.5 -68.5t28.5 -92.5t15 -121.5t2.5 -153q84 42 172 43t162 -34.5t133 -95.5t92.5 -143.5t33.5 -174.5v-509z" />
    <glyph glyph-name="i" unicode="i" horiz-adv-x="482" 
d="M409 0h-375v963h375v-963zM14 1211q0 88 61 149.5t149 61.5t149.5 -61.5t61.5 -149.5t-61.5 -149t-149.5 -61t-149 61t-61 149z" />
    <glyph glyph-name="j" unicode="j" horiz-adv-x="524" 
d="M12 -399v346q43 0 73 25.5t30 64.5v927h343v-927q0 -118 -62 -219t-164.5 -159t-219.5 -58zM78 1225q0 88 61 149.5t149 61.5t149.5 -61.5t61.5 -149.5t-61.5 -149t-149.5 -61t-149 61t-61 149z" />
    <glyph glyph-name="k" unicode="k" horiz-adv-x="984" 
d="M382 0h-366v1470q161 -38 263.5 -170.5t102.5 -298.5v-383q62 47 101 88.5t55.5 76.5t21.5 58t5 54v63h374v-62q0 -116 -25.5 -197t-102.5 -130l-145 -92l145 -97q45 -30 71 -58t38.5 -65t15.5 -70.5t3 -95.5v-91h-374v83q0 49 -19 89t-53.5 67t-57 39.5t-53.5 26.5v-305
z" />
    <glyph glyph-name="l" unicode="l" horiz-adv-x="543" 
d="M500 369v-371q-125 0 -235 62.5t-176.5 170.5t-66.5 234v1002h368v-1002q0 -42 32 -69t78 -27z" />
    <glyph glyph-name="m" unicode="m" horiz-adv-x="1623" 
d="M1561 0h-365v531q0 46 -33.5 78.5t-79.5 32.5t-80.5 -33.5t-34.5 -79.5v-529h-358v531q0 45 -34 78t-80 33t-79.5 -32.5t-33.5 -78.5v-531h-363v962q99 -20 186 -88q127 101 294 101q88 -2 166 -38.5t125 -110.5q37 72 121.5 110.5t172.5 38.5q130 -1 239.5 -66t173 -175
t63.5 -239v-495z" />
    <glyph glyph-name="n" unicode="n" horiz-adv-x="1050" 
d="M392 0h-367v964q107 -23 186 -90q129 100 295 100q199 0 339 -141t140 -342v-491h-364v493q0 44 -35.5 78.5t-79.5 34.5q-47 0 -80.5 -33.5t-33.5 -79.5v-493z" />
    <glyph glyph-name="o" unicode="o" horiz-adv-x="1043" 
d="M505 974q135 0 249.5 -66.5t181.5 -181t67 -249.5q0 -133 -67 -247t-181.5 -180.5t-249.5 -66.5q-133 0 -246.5 66.5t-180 180.5t-66.5 247q0 135 66.5 249.5t180 181t246.5 66.5zM505 352q51 0 89 37.5t38 87.5q0 52 -37.5 88.5t-89.5 36.5q-49 0 -86.5 -37t-37.5 -88
q0 -49 37.5 -87t86.5 -38z" />
    <glyph glyph-name="p" unicode="p" horiz-adv-x="1044" 
d="M22 -389v869q0 134 65.5 247.5t178.5 179.5t246 66t246 -66t178.5 -179.5t65.5 -247.5q0 -129 -66 -241t-179.5 -178.5t-244.5 -66.5q-45 0 -84 6v405q25 -25 59.5 -31t64 5.5t50.5 38.5t21 62q-3 49 -33.5 81t-77.5 32q-48 0 -79.5 -34.5t-31.5 -82.5v-391
q0 -165 -108.5 -300t-270.5 -174z" />
    <glyph glyph-name="q" unicode="q" horiz-adv-x="1044" 
d="M999 480v-869q-162 39 -270.5 174t-108.5 300v391q0 48 -31.5 82.5t-79.5 34.5q-47 0 -77.5 -32t-33.5 -81q0 -35 21 -62t50.5 -38.5t64 -5.5t59.5 31v-405q-39 -6 -84 -6q-131 0 -244.5 66.5t-179.5 178.5t-66 241q0 134 65.5 247.5t178.5 179.5t246 66t246 -66
t178.5 -179.5t65.5 -247.5z" />
    <glyph glyph-name="r" unicode="r" horiz-adv-x="572" 
d="M384 0h-363v490q0 97 35 183t98 150.5t158 102t209 37.5v-363q-68 0 -102.5 -31.5t-34.5 -80.5v-488z" />
    <glyph glyph-name="s" unicode="s" horiz-adv-x="811" 
d="M750 960v-354h-265l197 -181q50 -45 73 -103t14.5 -113.5t-38.5 -103t-89 -77t-134 -29.5h-488v346h302q-28 22 -89 76t-95 81q-74 59 -101 139.5t-8.5 150.5t84.5 119t163 49h474z" />
    <glyph glyph-name="t" unicode="t" horiz-adv-x="542" 
d="M495 364v-371q-98 0 -187 39t-153.5 104t-102.5 155t-38 188v989q73 -16 135.5 -52.5t114 -96.5t81 -151.5t29.5 -206.5h116v-343h-106v-142q0 -46 32 -79t79 -33z" />
    <glyph glyph-name="u" unicode="u" 
d="M502 351q49 0 82.5 33t33.5 77v499h370v-490q0 -130 -65.5 -241.5t-177.5 -176t-244 -64.5q-200 1 -339.5 142t-139.5 340v490h370v-499q0 -44 32.5 -77t77.5 -33z" />
    <glyph glyph-name="v" unicode="v" horiz-adv-x="1045" 
d="M615 961h372v-475q0 -189 -137 -328l-155 -158h-383l-157 158q-134 136 -134 328v475h374v-515q0 -19 5.5 -36.5t21.5 -37.5t22.5 -28t32 -31.5t26.5 -24.5q3 3 33.5 31t41 40t24 37.5t13.5 49.5v515z" />
    <glyph glyph-name="w" unicode="w" horiz-adv-x="1660" 
d="M1216 962h374v-475q0 -93 -34.5 -179t-98.5 -151l-157 -157h-367l-124 144l-122 -144h-370l-159 157q-63 66 -97.5 152t-34.5 178v475h376v-516q0 -24 13 -49t22 -36t40 -40.5t33 -31.5q6 6 34.5 32.5t39.5 39t24 37t13 48.5v516h374v-516q0 -24 13 -48.5t24 -37
t39.5 -39t34.5 -32.5q7 7 34 32.5t39 39t24.5 37.5t12.5 48v516z" />
    <glyph glyph-name="x" unicode="x" horiz-adv-x="1010" 
d="M378 0h-374v46q0 198 126 330l96 96l-96 92q-126 129 -126 326v72h374v-129q0 -19 6.5 -37t21 -36t24.5 -28.5t32 -30.5t27 -25q6 7 32 31.5t38.5 38.5t25 39t12.5 48v129h372v-72q0 -200 -125 -326l-96 -92l96 -96q125 -129 125 -330v-46h-372v100q0 23 -12.5 47.5
t-25.5 39.5t-37.5 39t-32.5 33q-3 -3 -33.5 -32t-40.5 -41t-23.5 -37t-13.5 -49v-100z" />
    <glyph glyph-name="y" unicode="y" horiz-adv-x="1047" 
d="M495 -425v347q54 0 95.5 31t46.5 76q-56 -41 -136 -41q-98 0 -187 39t-152.5 104t-101.5 154.5t-38 186.5v488h370v-510q0 -45 32 -77t77 -32q47 0 78 32t31 77v510h371v-905q0 -96 -40 -185t-106.5 -153.5t-156 -103t-183.5 -38.5z" />
    <glyph glyph-name="z" unicode="z" horiz-adv-x="859" 
d="M803 375v-373h-784v167l250 427h-250v367h792v-113l-270 -475h262z" />
    <glyph glyph-name="braceleft" unicode="{" horiz-adv-x="791" 
d="M704 -92v-361q-134 0 -248.5 66.5t-182 181t-67.5 247.5v387q0 55 -36 92t-92 37h-27v366h27q54 0 91 38t37 92v290q0 135 67.5 250t182 182t248.5 67v-364q-53 0 -92 -38.5t-39 -91.5v-295q0 -89 -33 -171.5t-94 -141.5q60 -59 93.5 -143t33.5 -169v-390
q0 -54 38.5 -92.5t92.5 -38.5z" />
    <glyph glyph-name="bar" unicode="|" horiz-adv-x="620" 
d="M458 -291h-358v1773h358v-1773z" />
    <glyph glyph-name="braceright" unicode="}" horiz-adv-x="715" 
d="M-24 -453v361q54 0 92.5 38.5t38.5 92.5v390q0 85 33.5 169t93.5 143q-61 59 -94 141.5t-33 171.5v295q0 53 -39 91.5t-92 38.5v364q134 0 248.5 -67t182 -182t67.5 -250v-290q0 -54 37 -92t91 -38h27v-366h-27q-56 0 -92 -37t-36 -92v-387q0 -133 -67.5 -247.5
t-182 -181t-248.5 -66.5z" />
    <glyph glyph-name="asciitilde" unicode="~" horiz-adv-x="1329" 
d="M1002 840l255 -100q-86 -177 -250.5 -254.5t-346.5 -6.5q-22 8 -151 63q-52 20 -120 4t-88 -59l-257 101q85 176 255.5 252.5t350.5 5.5q57 -22 85 -34t73 -30q51 -19 112.5 -2t81.5 60z" />
    <glyph glyph-name="exclamdown" unicode="&#xa1;" horiz-adv-x="614" 
d="M78 710v272h410v-272h-410zM34 -484l44 1104h410l29 -1104h-483z" />
    <glyph glyph-name="cent" unicode="&#xa2;" horiz-adv-x="1035" 
d="M682 13h-358v121q-137 56 -223.5 179.5t-86.5 272.5q0 153 86 276.5t224 177.5v124h358v-126q110 -44 188 -134t106 -206h-476q-44 0 -77 -33t-33 -79q0 -44 34 -77t78 -33h474q-28 -114 -106.5 -204.5t-187.5 -135.5v-123z" />
    <glyph glyph-name="sterling" unicode="&#xa3;" horiz-adv-x="1126" 
d="M23 0v274q57 -3 97 35t40 94v163h-125v334h125v52q0 141 70.5 262t191 191.5t260.5 70.5q223 0 404 -112l-190 -337q-98 67 -214 67q-56 0 -96.5 -40.5t-40.5 -96.5v-57h299v-334h-299v-196h520v-370h-1042z" />
    <glyph glyph-name="currency" unicode="&#xa4;" horiz-adv-x="1165" 
d="M386 341l-154 -154l-215 215l158 158q-33 80 -33 166q0 89 34 167l-159 160l215 215l156 -157q84 38 177 38t172 -36l155 155l215 -215l-155 -155q37 -81 37 -172q0 -88 -36 -171l154 -153l-128 -128l-38 -39h-1l-48 -48l-152 152q-80 -37 -175 -37q-97 0 -179 39z
M629 725q0 26 -19.5 45.5t-45.5 19.5t-45.5 -19.5t-19.5 -45.5t19.5 -45.5t45.5 -19.5t45.5 19.5t19.5 45.5z" />
    <glyph glyph-name="yen" unicode="&#xa5;" horiz-adv-x="1312" 
d="M1142 681v-366h-322v-315h-370v315h-326v366h214l-212 229q-103 109 -103 299v259h372v-253q0 -52 27 -82l213 -235l212 235q28 31 28 82v253h374v-259q0 -187 -105 -299l-213 -229h211z" />
    <glyph glyph-name="brokenbar" unicode="&#xa6;" horiz-adv-x="591" 
d="M85 1491h385v-792h-385v792zM85 356h385v-793h-385v793z" />
    <glyph glyph-name="section" unicode="&#xa7;" horiz-adv-x="1031" 
d="M705 413l-11 23q-39 84 -121 157q23 41 12 86t-51 71q-88 51 -148 130.5t-84.5 170t-12.5 190t61 189.5l11 19h428l-105 -212q-23 -42 -11.5 -87t50.5 -68q126 -73 191 -196t58.5 -260.5t-81.5 -259.5q-61 -95 -143 -155q0 102 -43 202zM296 973l10 -25q62 -106 123 -157
l-9 -8q-22 -40 -10 -85t53 -69q164 -96 223 -277.5t-14 -352.5h-438l-2 2l79 139q24 40 12 85.5t-53 68.5q-122 71 -184.5 191t-59 245t62 246.5t163.5 198.5q0 -99 44 -202z" />
    <glyph glyph-name="dieresis" unicode="&#xa8;" horiz-adv-x="953" 
d="M389 1465v-312h-369v312h369zM877 1465v-312h-369v312h369z" />
    <glyph glyph-name="copyright" unicode="&#xa9;" horiz-adv-x="1566" 
d="M770 1481q202 0 373.5 -100.5t272 -272.5t100.5 -375q0 -202 -100.5 -374t-272 -272t-373.5 -100q-204 0 -376 100t-272 271.5t-100 374.5t100 375t272.5 272.5t375.5 100.5zM770 1300q-155 0 -286 -75.5t-207 -206t-76 -285.5q0 -154 76 -284t207 -205.5t286 -75.5
q153 0 283 75.5t206 205.5t76 284q0 155 -76 285.5t-206 206t-283 75.5zM774 624h469q-36 -160 -169.5 -266.5t-299.5 -106.5q-128 1 -239 66.5t-177 176.5t-66 239q0 198 141.5 340t340.5 142q169 0 301 -105.5t168 -265.5h-469q-45 0 -78 -33t-33 -78q0 -44 34 -76.5
t77 -32.5z" />
    <glyph glyph-name="ordfeminine" unicode="&#xaa;" horiz-adv-x="829" 
d="M754 1109v-366q-122 30 -204 133t-78 230q0 36 -23.5 61t-59.5 25q-35 0 -59 -24.5t-24 -58.5q0 -35 23.5 -59.5t59.5 -24.5q39 0 61 31q26 -171 138 -251q-96 -62 -199 -62q-147 0 -256 108t-109 258q0 151 107 258t258 107t258 -107t107 -258z" />
    <glyph glyph-name="guillemotleft" unicode="&#xab;" horiz-adv-x="1184" 
d="M649 205l-281 -155l-330 521l330 525l281 -155l-239 -370zM1099 205l-281 -155l-330 521l330 525l281 -155l-239 -370z" />
    <glyph glyph-name="logicalnot" unicode="&#xac;" horiz-adv-x="1125" 
d="M1019 424l-370 -1v242h-598v365h968v-606z" />
    <glyph glyph-name="registered" unicode="&#xae;" horiz-adv-x="1581" 
d="M767 1482q152 0 290 -59t237.5 -159t158 -237.5t58.5 -288.5q0 -152 -58.5 -289.5t-158 -237.5t-237.5 -159t-290 -59q-202 0 -373.5 100t-271.5 271.5t-100 373.5t100 373t271.5 271t373.5 100zM767 174q115 0 219.5 44.5t179.5 120t119.5 180t44.5 219.5t-44.5 219.5
t-119.5 179.5t-179.5 119.5t-219.5 44.5t-219.5 -44.5t-180 -119.5t-120 -179.5t-44.5 -219.5t44.5 -219.5t120 -180t180 -120t219.5 -44.5zM510 285l-146 113v479q0 138 100 238t238 100h129q139 0 239.5 -100.5t100.5 -239.5v-54q0 -68 -32.5 -134t-88.5 -106
q77 -75 111 -198q-5 -4 -26.5 -24t-43 -36t-52.5 -33.5t-69 -26t-78 -3.5v23q0 84 -59.5 142t-143.5 58h-48v-244q-74 3 -131 46zM641 875v-114h190q25 0 43 17.5t18 42.5v54q0 26 -18 44.5t-43 18.5h-129q-25 0 -43 -18.5t-18 -44.5z" />
    <glyph glyph-name="overscore" unicode="&#xaf;" horiz-adv-x="1347" 
d="M9 1506v316h1277v-316h-1277z" />
    <glyph glyph-name="degree" unicode="&#xb0;" horiz-adv-x="676" 
d="M36 1214q0 115 81 196q83 81 196 81q116 0 197 -81t81 -196t-82 -197q-81 -81 -196 -81q-113 0 -196 81q-81 81 -81 197zM266 1214q0 -20 13.5 -33.5t33.5 -13.5t33.5 13.5t13.5 33.5t-13.5 33.5t-33.5 13.5t-33.5 -13.5t-13.5 -33.5z" />
    <glyph glyph-name="plusminus" unicode="&#xb1;" horiz-adv-x="1070" 
d="M951 337v-337h-879v337h879zM695 376h-346v311h-309v346h309v307h346v-307h309v-346h-309v-311z" />
    <glyph glyph-name="twosuperior" unicode="&#xb2;" horiz-adv-x="767" 
d="M309 1174h127q14 0 21.5 10.5t7.5 24.5t-7.5 24t-21.5 10h-135q-30 -2 -45 -42l-214 39q18 95 96 156.5t171 61.5h134q115 0 180.5 -72.5t65.5 -172.5q0 -102 -71.5 -174t-202.5 -72h-111q-18 0 -33 -15.5t-12 -46.5h403v-222h-621v242q0 110 78.5 179.5t189.5 69.5z" />
    <glyph glyph-name="threesuperior" unicode="&#xb3;" horiz-adv-x="654" 
d="M586 932q0 -102 -72.5 -173.5t-174.5 -71.5h-305v215h305q13 0 21.5 8.5t8.5 21.5t-9 21.5t-22 8.5h-304v217h305q13 0 21.5 8.5t8.5 21.5q0 12 -8.5 21t-21.5 9h-305v217h305q101 0 174 -73t73 -174q0 -75 -43 -138q43 -65 43 -139z" />
    <glyph glyph-name="acute" unicode="&#xb4;" horiz-adv-x="729" 
d="M258 1486l363 -189l-268 -278h-299z" />
    <glyph glyph-name="mu1" unicode="&#xb5;" horiz-adv-x="1102" 
d="M401 -401h-368v1367h368v-432q0 -57 19.5 -98.5t49.5 -60.5t64 -19t64 19t49.5 60.5t19.5 98.5v432h368v-966h-368v122q-30 -51 -83.5 -68.5t-105 1t-77.5 65.5v-521z" />
    <glyph glyph-name="paragraph" unicode="&#xb6;" 
d="M649 -407h-198v922q-476 11 -476 480q0 471 545 471h449v-385h-81v-1488h-204v928h-35v-928z" />
    <glyph glyph-name="middot" unicode="&#xb7;" horiz-adv-x="591" 
d="M492 867v-348h-410v348h410z" />
    <glyph glyph-name="cedilla" unicode="&#xb8;" horiz-adv-x="700" 
d="M152 -140l47 163h240l-33 -107q118 -9 125 -115q9 -107 -63 -164.5t-217 -57.5q-83 0 -144 12l11 214q62 -50 85 0t-51 55z" />
    <glyph glyph-name="onesuperior" unicode="&#xb9;" horiz-adv-x="485" 
d="M122 710v502q0 21 -19.5 36.5t-46.5 15.5v214q117 0 200 -79.5t83 -190.5v-498h-217z" />
    <glyph glyph-name="ordmasculine" unicode="&#xba;" horiz-adv-x="764" 
d="M405 1471q112 0 191.5 -79t79.5 -190v-225q0 -112 -79.5 -191t-191.5 -79h-99q-111 0 -190.5 79t-79.5 191v225q0 111 79.5 190t190.5 79h99zM459 977v225q0 22 -16 38t-38 16h-99q-22 0 -37.5 -16t-15.5 -38v-225q0 -21 15.5 -37.5t37.5 -16.5h99q22 0 38 16.5t16 37.5z
" />
    <glyph glyph-name="guillemotright" unicode="&#xbb;" horiz-adv-x="1160" 
d="M480 941l281 155l330 -525l-330 -521l-281 155l239 366zM311 50l-281 155l239 366l-239 370l281 155l330 -525z" />
    <glyph glyph-name="onequarter" unicode="&#xbc;" horiz-adv-x="1701" 
d="M1214 423h126v301h218v-754h-218v236h-126q-110 0 -189.5 79.5t-79.5 190.5v248h217v-248q0 -22 15.5 -37.5t36.5 -15.5zM337 -57h-313l1102 1548h312zM306 739v502q0 21 -19.5 36.5t-46.5 15.5v214q117 0 200 -79.5t83 -190.5v-498h-217z" />
    <glyph glyph-name="onehalf" unicode="&#xbd;" horiz-adv-x="1689" 
d="M338 -57h-313l1102 1548h312zM274 739v502q0 21 -19.5 36.5t-46.5 15.5v214q117 0 200 -79.5t83 -190.5v-498h-217zM1173 457h127q14 0 21.5 10.5t7.5 24.5t-7.5 24t-21.5 10h-135q-30 -2 -45 -42l-214 39q18 95 96 156.5t171 61.5h134q115 0 180.5 -72.5t65.5 -172.5
q0 -102 -71.5 -174t-202.5 -72h-111q-18 0 -33 -15.5t-12 -46.5h403v-222h-621v242q0 110 78.5 179.5t189.5 69.5z" />
    <glyph glyph-name="threequarters" unicode="&#xbe;" horiz-adv-x="1740" 
d="M1263 423h126v301h218v-754h-218v236h-126q-110 0 -189.5 79.5t-79.5 190.5v248h217v-248q0 -22 15.5 -37.5t36.5 -15.5zM386 -57h-313l1102 1548h312zM631 932q0 -102 -72.5 -173.5t-174.5 -71.5h-305v210h305q19 0 26.5 17.5t-0.5 35t-27 17.5h-304v207h305q18 0 26 18
t0 35.5t-26 17.5h-305v211h305q101 0 174 -73t73 -174q0 -75 -43 -138q43 -65 43 -139z" />
    <glyph glyph-name="questiondown" unicode="&#xbf;" horiz-adv-x="1275" 
d="M834 41l367 -69q-31 -166 -173.5 -273t-317.5 -107h-261q-122 0 -219 48.5t-149 127t-77 174t-3 193t72.5 179.5t151 138t230.5 65q37 2 64 30t27 65v91h379v-93q0 -195 -132.5 -320t-326.5 -135q-38 -2 -63 -22.5t-30.5 -49t0.5 -57t29.5 -48t56.5 -19.5h268
q37 1 66.5 24t40.5 58zM547 1061h382v-270h-382v270z" />
    <glyph glyph-name="Agrave" unicode="&#xc0;" horiz-adv-x="1356" 
d="M1279 0h-384v341h-474v-341h-382v959q0 140 69.5 259t189 188.5t258.5 69.5h204q104 0 200 -41t166 -110t111.5 -165t41.5 -201v-959zM556 1097q-56 0 -95.5 -40.5t-39.5 -97.5v-231h474v231q0 57 -39 97.5t-96 40.5h-204zM293 1693l215 112v1l148 76l147 -383h-299z" />
    <glyph glyph-name="Aacute" unicode="&#xc1;" horiz-adv-x="1356" 
d="M665 1886l363 -189l-211 -194h-299zM1279 0h-384v341h-474v-341h-382v959q0 140 69.5 259t189 188.5t258.5 69.5h204q104 0 200 -41t166 -110t111.5 -165t41.5 -201v-959zM556 1097q-56 0 -95.5 -40.5t-39.5 -97.5v-231h474v231q0 57 -39 97.5t-96 40.5h-204z" />
    <glyph glyph-name="Acircumflex" unicode="&#xc2;" horiz-adv-x="1350" 
d="M1272 0h-384v341h-474v-341h-382v959q0 140 69.5 259t189 188.5t258.5 69.5h204q104 0 200 -41t166 -110t111.5 -165t41.5 -201v-959zM549 1097q-56 0 -95.5 -40.5t-39.5 -97.5v-231h474v231q0 57 -39 97.5t-96 40.5h-204zM530 1502h-315l248 286h381l247 -286h-312
l-126 135z" />
    <glyph glyph-name="Atilde" unicode="&#xc3;" horiz-adv-x="1356" 
d="M843 1781l155 -68q-50 -123 -149 -178.5t-209 -6.5q-27 11 -36 15.5l-20 10t-35 16.5q-33 14 -72.5 2.5t-52.5 -42.5l-156 69q49 123 151 177t211 5q23 -9 95 -42q32 -13 69 -1t49 43zM1272 0h-384v341h-474v-341h-382v959q0 140 69.5 259t189 188.5t258.5 69.5h204
q104 0 200 -41t166 -110t111.5 -165t41.5 -201v-959zM549 1097q-56 0 -95.5 -40.5t-39.5 -97.5v-231h474v231q0 57 -39 97.5t-96 40.5h-204z" />
    <glyph glyph-name="Adieresis" unicode="&#xc4;" horiz-adv-x="1350" 
d="M1272 0h-384v341h-474v-341h-382v959q0 140 69.5 259t189 188.5t258.5 69.5h204q104 0 200 -41t166 -110t111.5 -165t41.5 -201v-959zM549 1097q-56 0 -95.5 -40.5t-39.5 -97.5v-231h474v231q0 57 -39 97.5t-96 40.5h-204zM591 1838v-315h-363v315h363zM1072 1838v-315
h-364v315h364z" />
    <glyph glyph-name="Aring" unicode="&#xc5;" horiz-adv-x="1350" 
d="M617 1689q0 -19 11.5 -31t28.5 -12q18 0 29.5 12t11.5 30q0 17 -11.5 29t-29.5 12q-17 0 -28.5 -11.5t-11.5 -28.5zM549 1097q-56 0 -95.5 -40.5t-39.5 -97.5v-231h474v231q0 57 -39 97.5t-96 40.5h-204zM1272 0h-384v341h-474v-341h-382v959q0 206 143.5 356t347.5 160
q-18 12 -41 35q-72 74 -72 181q0 102 73 172q73 72 172 72q100 0 172 -73q73 -73 73 -176q0 -105 -73 -177q-22 -22 -42 -34q203 -13 345 -162.5t142 -353.5v-959z" />
    <glyph glyph-name="AE" unicode="&#xc6;" horiz-adv-x="2006" 
d="M757 1101h-205q-58 0 -96.5 -39.5t-38.5 -92.5v-240h477v240q0 52 -41 92t-96 40zM1931 1468v-373h-525q-52 0 -92 -40.5t-40 -94.5v-40h657v-380h-657v-31q0 -59 39.5 -101t92.5 -42h525v-365h-525q-144 0 -259 65v-65h-253v340h-477v-340h-388v968q0 140 70.5 260.5
t191 191t261.5 70.5h205q68 0 135 -17.5t125 -58.5t80 -98q35 82 120 116.5t189 34.5h525z" />
    <glyph glyph-name="Ccedilla" unicode="&#xc7;" horiz-adv-x="1235" 
d="M988 438l187 -334q-160 -102 -353 -114l-14 -45q118 -9 125 -115q9 -107 -63 -164q-71 -58 -217 -58q-83 0 -144 12l11 214q62 -50 85 0t-51 55l35 123q-243 63 -399.5 262.5t-156.5 457.5q0 121 37.5 234.5t106 205t160 160t205.5 106t236 37.5q213 0 397 -113
l-187 -336q-98 68 -210 68q-153 0 -258.5 -105t-105.5 -257t105.5 -257t258.5 -105q114 0 210 68z" />
    <glyph glyph-name="Egrave" unicode="&#xc8;" horiz-adv-x="1126" 
d="M1055 -1v364h-517q-54 0 -94 43.5t-40 98.5v49h651v348h-651v59q0 55 40 96t94 41h517v367h-517q-137 0 -254 -68.5t-185.5 -186t-68.5 -255.5v-448q0 -136 68.5 -253t186 -186t253.5 -69h517zM912 1490h-293l-262 213l355 145z" />
    <glyph glyph-name="Eacute" unicode="&#xc9;" horiz-adv-x="1135" 
d="M1065 363v-364h-517q-136 0 -253.5 69t-186 186t-68.5 253v448q0 138 68.5 255.5t185.5 186t254 68.5h517v-367h-517q-54 0 -94 -41t-40 -96v-59h651v-348h-651v-49q0 -55 40 -98.5t94 -43.5h517zM724 1848l354 -145l-261 -212h-291z" />
    <glyph glyph-name="Ecircumflex" unicode="&#xca;" horiz-adv-x="1126" 
d="M1056 -1v364h-517q-54 0 -94 43.5t-40 98.5v49h651v348h-651v59q0 55 40 96t94 41h517v367h-517q-137 0 -254 -68.5t-185.5 -186t-68.5 -255.5v-448q0 -136 68.5 -253t186 -186t253.5 -69h517zM553 1498h-290l228 268h352l228 -268h-288l-116 126z" />
    <glyph glyph-name="Edieresis" unicode="&#xcb;" horiz-adv-x="1126" 
d="M1056 -1v364h-517q-54 0 -94 43.5t-40 98.5v49h651v348h-651v59q0 55 40 96t94 41h517v367h-517q-137 0 -254 -68.5t-185.5 -186t-68.5 -255.5v-448q0 -136 68.5 -253t186 -186t253.5 -69h517zM629 1779v-272h-324v272h324zM1059 1779v-272h-325v272h325z" />
    <glyph glyph-name="Igrave" unicode="&#xcc;" horiz-adv-x="527" 
d="M435 0h-385v1468h385v-1468zM422 1514h-299l-267 235l362 160z" />
    <glyph glyph-name="Iacute" unicode="&#xcd;" horiz-adv-x="527" 
d="M435 0h-385v1468h385v-1468zM257 1885l370 -151l-273 -222h-305z" />
    <glyph glyph-name="Icircumflex" unicode="&#xce;" horiz-adv-x="527" 
d="M435 0h-385v1468h385v-1468zM129 1510h-303l238 292h367l238 -292h-300l-121 138z" />
    <glyph glyph-name="Idieresis" unicode="&#xcf;" horiz-adv-x="527" 
d="M435 0h-385v1468h385v-1468zM191 1794v-279h-330v279h330zM628 1794v-279h-330v279h330z" />
    <glyph glyph-name="Eth" unicode="&#xd0;" horiz-adv-x="1449" 
d="M0 579v316h106v571h550q148 0 283.5 -58t233.5 -156t156.5 -233t58.5 -283q0 -150 -58.5 -286.5t-157.5 -235t-235 -156.5t-285 -58h-546v579h-106zM686 895v-316h-206v-209h176q148 0 252.5 107t104.5 259q0 146 -105 253t-252 107h-176v-201h206z" />
    <glyph glyph-name="Ntilde" unicode="&#xd1;" horiz-adv-x="1362" 
d="M1278 1469h-387l15 -848l-422 741q-21 38 -56.5 67.5t-77.5 45t-86.5 19.5t-85.5 -11.5t-74 -45t-52.5 -84t-19.5 -126.5l-1 -1226h387l-7 786l394 -685q30 -51 78 -82.5t100 -39t105.5 5t95.5 42.5t68 80.5t26 112.5v1248zM871 1803l162 -80q-52 -146 -155.5 -211.5
t-218.5 -8.5q-35 16 -51 26t-44 24q-34 16 -75.5 2.5t-54.5 -49.5l-163 82q52 145 158 209.5t220 6.5q24 -11 35 -16t15 -7.5t16.5 -9.5t32.5 -17q33 -15 71.5 -1t51.5 50z" />
    <glyph glyph-name="Ograve" unicode="&#xd2;" horiz-adv-x="1587" 
d="M774 1486q206 0 379.5 -101t274 -274.5t100.5 -378.5q0 -152 -59.5 -291t-160 -239.5t-240.5 -160t-294 -59.5q-152 0 -291 59.5t-239.5 160t-160 239.5t-59.5 291q0 154 59.5 293.5t160 240.5t239.5 160.5t291 59.5zM774 368q155 0 262.5 107t107.5 257
q0 153 -107.5 260.5t-262.5 107.5q-150 0 -257 -108t-107 -260q0 -149 107.5 -256.5t256.5 -107.5zM958 1509h-318l-286 237l387 161z" />
    <glyph glyph-name="Oacute" unicode="&#xd3;" horiz-adv-x="1587" 
d="M774 1486q206 0 379.5 -101t274 -274.5t100.5 -378.5q0 -152 -59.5 -291t-160 -239.5t-240.5 -160t-294 -59.5q-152 0 -291 59.5t-239.5 160t-160 239.5t-59.5 291q0 154 59.5 293.5t160 240.5t239.5 160.5t291 59.5zM774 368q155 0 262.5 107t107.5 257
q0 153 -107.5 260.5t-262.5 107.5q-150 0 -257 -108t-107 -260q0 -149 107.5 -256.5t256.5 -107.5zM831 1892l389 -154l-287 -226h-320z" />
    <glyph glyph-name="Ocircumflex" unicode="&#xd4;" horiz-adv-x="1587" 
d="M774 1486q206 0 379.5 -101t274 -274.5t100.5 -378.5q0 -152 -59.5 -291t-160 -239.5t-240.5 -160t-294 -59.5q-152 0 -291 59.5t-239.5 160t-160 239.5t-59.5 291q0 154 59.5 293.5t160 240.5t239.5 160.5t291 59.5zM774 368q155 0 262.5 107t107.5 257
q0 153 -107.5 260.5t-262.5 107.5q-150 0 -257 -108t-107 -260q0 -149 107.5 -256.5t256.5 -107.5zM639 1499h-332l261 324h402l261 -324h-329l-133 152z" />
    <glyph glyph-name="Otilde" unicode="&#xd5;" horiz-adv-x="1587" 
d="M774 1486q206 0 379.5 -101t274 -274.5t100.5 -378.5q0 -152 -59.5 -291t-160 -239.5t-240.5 -160t-294 -59.5q-152 0 -291 59.5t-239.5 160t-160 239.5t-59.5 291q0 154 59.5 293.5t160 240.5t239.5 160.5t291 59.5zM774 368q155 0 262.5 107t107.5 257
q0 153 -107.5 260.5t-262.5 107.5q-150 0 -257 -108t-107 -260q0 -149 107.5 -256.5t256.5 -107.5zM1000 1829l162 -80q-52 -146 -155.5 -211.5t-218.5 -8.5q-35 16 -51 26t-44 24q-34 16 -75.5 2.5t-54.5 -49.5l-163 82q52 145 158 209.5t220 6.5q24 -11 35 -16t15 -7.5
t16.5 -9.5t32.5 -17q33 -15 71.5 -1t51.5 50z" />
    <glyph glyph-name="Odieresis" unicode="&#xd6;" horiz-adv-x="1587" 
d="M774 1486q206 0 379.5 -101t274 -274.5t100.5 -378.5q0 -152 -59.5 -291t-160 -239.5t-240.5 -160t-294 -59.5q-152 0 -291 59.5t-239.5 160t-160 239.5t-59.5 291q0 154 59.5 293.5t160 240.5t239.5 160.5t291 59.5zM774 368q155 0 262.5 107t107.5 257
q0 153 -107.5 260.5t-262.5 107.5q-150 0 -257 -108t-107 -260q0 -149 107.5 -256.5t256.5 -107.5zM732 1763v-256h-364v256h364zM1213 1763v-256h-364v256h364z" />
    <glyph glyph-name="multiply" unicode="&#xd7;" horiz-adv-x="1079" 
d="M295 240l-245 245l220 219l-219 219l245 245l218 -219l217 217l245 -245l-217 -217l219 -218l-245 -245l-219 219z" />
    <glyph glyph-name="Oslash" unicode="&#xd8;" horiz-adv-x="1584" 
d="M404 -80h-381l189 318q-89 100 -138 227t-49 265q0 152 59 290t159 238t238 159t289 59q128 0 245 -42l85 141h381l-186 -314q105 -102 163.5 -239.5t58.5 -291.5q0 -151 -59 -289t-159 -238t-238.5 -159t-290.5 -59t-292 58zM770 367q153 0 259.5 106t106.5 257
t-106.5 257.5t-259.5 106.5q-149 0 -255.5 -106.5t-106.5 -257.5q0 -150 106.5 -256.5t255.5 -106.5z" />
    <glyph glyph-name="Ugrave" unicode="&#xd9;" horiz-adv-x="1339" 
d="M538 1q-214 0 -360 143.5t-146 356.5v967h373v-967q0 -50 33.5 -85.5t82.5 -39.5h236q49 4 82.5 39.5t33.5 85.5v967h373v-967q0 -213 -146 -356.5t-360 -143.5h-202zM821 1493h-307l-276 235l374 160z" />
    <glyph glyph-name="Uacute" unicode="&#xda;" horiz-adv-x="1339" 
d="M538 1q-214 0 -360 143.5t-146 356.5v967h373v-967q0 -50 33.5 -85.5t82.5 -39.5h236q49 4 82.5 39.5t33.5 85.5v967h373v-967q0 -213 -146 -356.5t-360 -143.5h-202zM681 1882l371 -156l-274 -228h-305z" />
    <glyph glyph-name="Ucircumflex" unicode="&#xdb;" horiz-adv-x="1339" 
d="M538 1q-214 0 -360 143.5t-146 356.5v967h373v-967q0 -50 33.5 -85.5t82.5 -39.5h236q49 4 82.5 39.5t33.5 85.5v967h373v-967q0 -213 -146 -356.5t-360 -143.5h-202zM513 1500h-307l242 337h371l242 -337h-305l-123 159z" />
    <glyph glyph-name="Udieresis" unicode="&#xdc;" horiz-adv-x="1354" 
d="M417 1830v-312h-369v312h369zM1262 1830v-312h-369v312h369zM553 1q-214 0 -360 143.5t-146 356.5v967h373v-967q0 -50 33.5 -85.5t82.5 -39.5h236q49 4 82.5 39.5t33.5 85.5v967h373v-967q0 -213 -146 -356.5t-360 -143.5h-202z" />
    <glyph glyph-name="Yacute" unicode="&#xdd;" horiz-adv-x="1307" 
d="M811 1h-366v564l-324 346q-104 111 -104 298v257h372v-280q0 -52 27 -82l211 -234l211 234q28 31 28 82v280h373v-257q0 -187 -104 -298l-324 -346v-564zM658 1893l375 -160l-277 -236h-308z" />
    <glyph glyph-name="Thorn" unicode="&#xde;" horiz-adv-x="1198" 
d="M393 2h-372v1479h372v-259h275q114 0 207 -40t150.5 -105.5t89 -149.5t32 -171.5t-30.5 -171.5t-88 -149.5t-150.5 -105.5t-209.5 -40h-275v-287zM773 755q-1 17 -6.5 32t-17 32.5t-35.5 27.5t-58 10h-276v-203h276q59 0 89 33t28 68z" />
    <glyph glyph-name="germandbls" unicode="&#xdf;" horiz-adv-x="1059" 
d="M377 194l12 20q41 77 53 169q31 -18 67 -18q38 1 63.5 17t31 38.5t-0.5 44t-31.5 37t-62.5 15.5l-53 -2v374h53q45 0 78.5 32t33.5 77q-2 45 -33 76.5t-79 31.5t-78.5 -33.5t-30.5 -80.5v-532q0 -164 -106.5 -297t-267.5 -170v1005q0 131 65 242t176 176t242 65
q132 0 243.5 -65t176 -176t64.5 -242q0 -163 -98 -292q46 -64 66 -143t15 -157.5t-39 -153.5t-89.5 -132t-143.5 -92t-195 -35q-137 0 -254 63q78 64 122 138z" />
    <glyph glyph-name="agrave" unicode="&#xe0;" horiz-adv-x="1076" 
d="M1005 480v-487q-164 38 -273 175.5t-106 307.5q3 46 -29 80t-79 34q-45 0 -77.5 -33t-32.5 -77q0 -46 32.5 -79t77.5 -33q53 0 78 37q25 -191 186 -335q-127 -77 -264 -77q-129 0 -241 64t-180 177t-68 246q0 203 143 346t346 143q99 0 189 -38.5t155.5 -104t104 -156
t38.5 -190.5zM701 991h-264l-236 211l320 144z" />
    <glyph glyph-name="aacute" unicode="&#xe1;" horiz-adv-x="1076" 
d="M685 1288l-170 -297h-140l180 355zM699 1282l176 -80l-237 -211h-107zM1005 480v-487q-164 38 -273 175.5t-106 307.5q3 46 -29 80t-79 34q-45 0 -77.5 -33t-32.5 -77q0 -46 32.5 -79t77.5 -33q53 0 78 37q25 -191 186 -335q-127 -77 -264 -77q-129 0 -241 64t-180 177
t-68 246q0 203 143 346t346 143q99 0 189 -38.5t155.5 -104t104 -156t38.5 -190.5z" />
    <glyph glyph-name="acircumflex" unicode="&#xe2;" horiz-adv-x="1076" 
d="M1005 480v-487q-164 38 -273 175.5t-106 307.5q3 46 -29 80t-79 34q-45 0 -77.5 -33t-32.5 -77q0 -46 32.5 -79t77.5 -33q53 0 78 37q25 -191 186 -335q-127 -77 -264 -77q-129 0 -241 64t-180 177t-68 246q0 203 143 346t346 143q99 0 189 -38.5t155.5 -104t104 -156
t38.5 -190.5zM404 986h-286l225 267h346l224 -267h-283l-114 125z" />
    <glyph glyph-name="atilde" unicode="&#xe3;" horiz-adv-x="1076" 
d="M1005 480v-487q-164 38 -273 175.5t-106 307.5q3 46 -29 80t-79 34q-45 0 -77.5 -33t-32.5 -77q0 -46 32.5 -79t77.5 -33q53 0 78 37q25 -191 186 -335q-127 -77 -264 -77q-129 0 -241 64t-180 177t-68 246q0 203 143 346t346 143q99 0 189 -38.5t155.5 -104t104 -156
t38.5 -190.5zM721 1273l146 -72q-47 -132 -139.5 -191t-196.5 -7q-26 12 -34.5 16.5t-18.5 10.5t-33 18q-30 15 -67.5 2.5t-49.5 -45.5l-147 74q47 131 142.5 189t198.5 6q26 -12 35 -16.5t20 -11t34 -17.5q30 -14 64 -1.5t46 45.5z" />
    <glyph glyph-name="adieresis" unicode="&#xe4;" horiz-adv-x="1076" 
d="M1005 480v-487q-164 38 -273 175.5t-106 307.5q3 46 -29 80t-79 34q-45 0 -77.5 -33t-32.5 -77q0 -46 32.5 -79t77.5 -33q53 0 78 37q25 -191 186 -335q-127 -77 -264 -77q-129 0 -241 64t-180 177t-68 246q0 203 143 346t346 143q99 0 189 -38.5t155.5 -104t104 -156
t38.5 -190.5zM465 1263v-267h-317v267h317zM883 1263v-267h-316v267h316z" />
    <glyph glyph-name="aring" unicode="&#xe5;" horiz-adv-x="1076" 
d="M1005 480v-487q-164 38 -273 175.5t-106 307.5q3 46 -29 80t-79 34q-45 0 -77.5 -33t-32.5 -77q0 -46 32.5 -79t77.5 -33q53 0 78 37q25 -191 186 -335q-127 -77 -264 -77q-129 0 -241 64t-180 177t-68 246q0 203 143 346t346 143q99 0 189 -38.5t155.5 -104t104 -156
t38.5 -190.5zM312 1189q0 85 62 147t147 62q87 0 148 -63q62 -62 62 -150q0 -90 -62 -152q-61 -61 -147 -61q-87 0 -149 62q-61 61 -61 155zM489 1187q0 -16 10 -26.5t24 -10.5q15 0 25 10.5t10 25.5q0 14 -10 24.5t-25 10.5q-14 0 -24 -10t-10 -24z" />
    <glyph glyph-name="ae" unicode="&#xe6;" horiz-adv-x="1606" 
d="M1550 375v-375h-440q-52 0 -105 11q-18 4 -27 7q-155 43 -254 172.5t-99 294.5v13q-6 39 -36.5 65.5t-70.5 26.5q-45 0 -77.5 -33t-32.5 -77q0 -46 32.5 -79t77.5 -33q54 0 79 37q12 -90 64 -181t123 -154q-127 -77 -266 -77q-129 0 -241 64t-180 177t-68 246
q0 203 143 346t346 143q164 0 293 -102q130 103 299 103q87 0 164 -21t141.5 -63.5t104.5 -114.5t46 -166q9 -129 -56 -206l-409 -1v42q61 -1 86.5 38t2.5 78t-80 39q-45 0 -77.5 -32.5t-32.5 -77.5q0 -46 33.5 -79t80.5 -31h436z" />
    <glyph glyph-name="ccedilla" unicode="&#xe7;" horiz-adv-x="1024" 
d="M979 591h-476q-44 0 -77 -33t-33 -79q0 -44 34 -77t78 -33h474q-32 -133 -132.5 -232t-234.5 -131l-17 -54q99 -7 106 -98t-54 -139q-61 -49 -183 -49q-73 0 -123 10l9 182q52 -44 72 0q20 43 -43 47l28 98q-166 35 -278 170.5t-112 305.5q0 133 65.5 245.5t177.5 177.5
t243 65q172 0 304.5 -106.5t171.5 -269.5z" />
    <glyph glyph-name="egrave" unicode="&#xe8;" horiz-adv-x="998" 
d="M937 0v375h-436q-47 -2 -80.5 31t-33.5 79q0 45 32.5 77.5t77.5 32.5q57 0 83 -39t4 -78t-83 -38v-42h63l333 1q65 77 56 206q-6 94 -46 166t-104.5 114.5t-141.5 63.5t-164 21q-132 0 -243.5 -65t-176.5 -176.5t-65 -243.5t65 -243.5t176.5 -176.5t243.5 -65h4h436z
M652 991h-269l-241 217l326 149z" />
    <glyph glyph-name="eacute" unicode="&#xe9;" horiz-adv-x="998" 
d="M664 1284l-166 -293h-137l176 350zM678 1278l171 -79l-231 -208h-105zM937 375v-375h-436h-4q-132 0 -243.5 65t-176.5 176.5t-65 243.5t65 243.5t176.5 176.5t243.5 65q87 0 164 -21t141.5 -63.5t104.5 -114.5t46 -166q9 -129 -56 -206l-333 -1h-63v42q61 -1 83 38
t-4 78t-83 39q-45 0 -77.5 -32.5t-32.5 -77.5q0 -46 33.5 -79t80.5 -31h436z" />
    <glyph glyph-name="ecircumflex" unicode="&#xea;" horiz-adv-x="998" 
d="M937 0v375h-436q-47 -2 -80.5 31t-33.5 79q0 45 32.5 77.5t77.5 32.5q57 0 83 -39t4 -78t-83 -38v-42h63l333 1q65 77 56 206q-6 94 -46 166t-104.5 114.5t-141.5 63.5t-164 21q-132 0 -243.5 -65t-176.5 -176.5t-65 -243.5t65 -243.5t176.5 -176.5t243.5 -65h4h436z
M386 985h-276l217 266h335l217 -266h-274l-110 125z" />
    <glyph glyph-name="edieresis" unicode="&#xeb;" horiz-adv-x="998" 
d="M937 0v375h-436q-47 -2 -80.5 31t-33.5 79q0 45 32.5 77.5t77.5 32.5q57 0 83 -39t4 -78t-83 -38v-42h63l333 1q65 77 56 206q-6 94 -46 166t-104.5 114.5t-141.5 63.5t-164 21q-132 0 -243.5 -65t-176.5 -176.5t-65 -243.5t65 -243.5t176.5 -176.5t243.5 -65h4h436z
M450 1255v-264h-312v264h312zM863 1255v-264h-312v264h312z" />
    <glyph glyph-name="igrave" unicode="&#xec;" horiz-adv-x="483" 
d="M34 0v963h375v-963h-375zM388 985h-274l-246 276l333 189z" />
    <glyph glyph-name="iacute" unicode="&#xed;" horiz-adv-x="483" 
d="M34 0v963h375v-963h-375zM260 1414l341 -176l-252 -259h-281z" />
    <glyph glyph-name="icircumflex" unicode="&#xee;" horiz-adv-x="483" 
d="M34 0v963h375v-963h-375zM98 994h-306l241 317h371l241 -317h-304l-123 149z" />
    <glyph glyph-name="idieresis" unicode="&#xef;" horiz-adv-x="483" 
d="M196 1279v-280h-154v280h154zM18 1279v-280h-153v280h153zM586 1279v-280h-154v280h154zM407 1279v-280h-152v280h152zM34 0v963h375v-963h-375z" />
    <glyph glyph-name="eth" unicode="&#xf0;" horiz-adv-x="1050" 
d="M191 1463h418l85 -194h156l75 -131h-172l210 -463q41 -91 43 -190.5t-31 -187t-100 -161t-158 -114.5q-92 -41 -191.5 -43t-187 31t-161 100.5t-114.5 158.5q-68 163 -36.5 304t140 241.5t256.5 128.5l-88 195h-142l-75 131h158zM625 523q-20 46 -68.5 64.5t-94.5 -2.5
q-47 -21 -65 -69t3 -95q21 -46 69 -64t95 3q46 20 64 68t-3 95z" />
    <glyph glyph-name="ntilde" unicode="&#xf1;" horiz-adv-x="1059" 
d="M25 0h367v493q0 46 33.5 79.5t80.5 33.5q44 0 79.5 -34.5t35.5 -78.5v-493h364v491q0 201 -140 342t-339 141q-166 0 -295 -100q-79 67 -186 90v-964zM670 1281l136 -68q-44 -123 -131 -178.5t-184 -6.5q-29 14 -43 22t-37 20q-28 14 -63 2t-46 -42l-138 69
q44 123 133.5 177t185.5 5q14 -6 83 -42q28 -13 60.5 -1t43.5 43z" />
    <glyph glyph-name="ograve" unicode="&#xf2;" horiz-adv-x="1043" 
d="M505 974q135 0 249.5 -66.5t181.5 -181t67 -249.5q0 -133 -67 -247t-181.5 -180.5t-249.5 -66.5q-133 0 -246.5 66.5t-180 180.5t-66.5 247q0 135 66.5 249.5t180 181t246.5 66.5zM505 352q51 0 89 37.5t38 87.5q0 52 -37.5 88.5t-89.5 36.5q-49 0 -86.5 -37t-37.5 -88
q0 -49 37.5 -87t86.5 -38zM662 998h-259l-232 241l315 164z" />
    <glyph glyph-name="oacute" unicode="&#xf3;" horiz-adv-x="1043" 
d="M505 974q135 0 249.5 -66.5t181.5 -181t67 -249.5q0 -133 -67 -247t-181.5 -180.5t-249.5 -66.5q-133 0 -246.5 66.5t-180 180.5t-66.5 247q0 135 66.5 249.5t180 181t246.5 66.5zM505 352q51 0 89 37.5t38 87.5q0 52 -37.5 88.5t-89.5 36.5q-49 0 -86.5 -37t-37.5 -88
q0 -49 37.5 -87t86.5 -38zM548 1399l311 -162l-229 -239h-257z" />
    <glyph glyph-name="ocircumflex" unicode="&#xf4;" horiz-adv-x="1043" 
d="M505 974q135 0 249.5 -66.5t181.5 -181t67 -249.5q0 -133 -67 -247t-181.5 -180.5t-249.5 -66.5q-133 0 -246.5 66.5t-180 180.5t-66.5 247q0 135 66.5 249.5t180 181t246.5 66.5zM505 352q51 0 89 37.5t38 87.5q0 52 -37.5 88.5t-89.5 36.5q-49 0 -86.5 -37t-37.5 -88
q0 -49 37.5 -87t86.5 -38zM398 995h-288l227 297h348l226 -297h-285l-115 139z" />
    <glyph glyph-name="otilde" unicode="&#xf5;" horiz-adv-x="1043" 
d="M505 974q135 0 249.5 -66.5t181.5 -181t67 -249.5q0 -133 -67 -247t-181.5 -180.5t-249.5 -66.5q-133 0 -246.5 66.5t-180 180.5t-66.5 247q0 135 66.5 249.5t180 181t246.5 66.5zM505 352q51 0 89 37.5t38 87.5q0 52 -37.5 88.5t-89.5 36.5q-49 0 -86.5 -37t-37.5 -88
q0 -49 37.5 -87t86.5 -38zM691 1295l146 -72q-47 -132 -140.5 -191.5t-197.5 -7.5q-26 12 -34.5 16.5t-18.5 10.5t-33 18q-31 15 -68.5 2.5t-49.5 -45.5l-148 75q47 131 143 189t200 6q15 -7 89 -45q30 -14 65 -1.5t47 45.5z" />
    <glyph glyph-name="odieresis" unicode="&#xf6;" horiz-adv-x="1043" 
d="M505 974q135 0 249.5 -66.5t181.5 -181t67 -249.5q0 -133 -67 -247t-181.5 -180.5t-249.5 -66.5q-133 0 -246.5 66.5t-180 180.5t-66.5 247q0 135 66.5 249.5t180 181t246.5 66.5zM505 352q51 0 89 37.5t38 87.5q0 52 -37.5 88.5t-89.5 36.5q-49 0 -86.5 -37t-37.5 -88
q0 -49 37.5 -87t86.5 -38zM461 1253v-255h-301v255h301zM859 1253v-255h-301v255h301z" />
    <glyph glyph-name="divide" unicode="&#xf7;" horiz-adv-x="1059" 
d="M642 964h-264v264h264v-264zM642 224h-264v264h264v-264zM995 532h-966v383h966v-383z" />
    <glyph glyph-name="oslash" unicode="&#xf8;" horiz-adv-x="1043" 
d="M432 -78h-364l87 208q-67 68 -105 158t-38 189q0 135 66.5 249.5t180 181t246.5 66.5q23 0 34 -1l28 65h363l-84 -200q74 -70 115.5 -163t41.5 -198q0 -133 -67 -247t-181.5 -180.5t-249.5 -66.5q-23 0 -47 3zM505 345q54 0 94 39.5t40 92.5q0 55 -39.5 93.5t-94.5 38.5
q-52 0 -91.5 -39t-39.5 -93q0 -52 39.5 -92t91.5 -40z" />
    <glyph glyph-name="ugrave" unicode="&#xf9;" horiz-adv-x="1042" 
d="M502 351q-45 0 -77.5 33t-32.5 77v499h-370v-490q0 -199 139.5 -340t339.5 -142q132 0 244 64.5t177.5 176t65.5 241.5v490h-370v-499q0 -44 -33.5 -77t-82.5 -33zM643 981h-258l-231 240l313 163z" />
    <glyph glyph-name="uacute" unicode="&#xfa;" 
d="M502 351q49 0 82.5 33t33.5 77v499h370v-490q0 -130 -65.5 -241.5t-177.5 -176t-244 -64.5q-200 1 -339.5 142t-139.5 340v490h370v-499q0 -44 32.5 -77t77.5 -33zM536 1386l315 -164l-232 -241h-259z" />
    <glyph glyph-name="ucircumflex" unicode="&#xfb;" 
d="M502 351q-45 0 -77.5 33t-32.5 77v499h-370v-490q0 -199 139.5 -340t339.5 -142q132 0 244 64.5t177.5 176t65.5 241.5v490h-370v-499q0 -44 -33.5 -77t-82.5 -33zM395 1005h-290l228 300h350l228 -300h-287l-116 141z" />
    <glyph glyph-name="udieresis" unicode="&#xfc;" 
d="M973 1286v-281h-332v281h332zM366 1286v-281h-332v281h332zM502 351q-45 0 -77.5 33t-32.5 77v499h-370v-490q0 -199 139.5 -340t339.5 -142q132 0 244 64.5t177.5 176t65.5 241.5v490h-370v-499q0 -44 -33.5 -77t-82.5 -33z" />
    <glyph glyph-name="yacute" unicode="&#xfd;" horiz-adv-x="1047" 
d="M495 -425v347q54 0 95.5 31t46.5 76q-56 -41 -136 -41q-98 0 -187 39t-152.5 104t-101.5 154.5t-38 186.5v488h370v-510q0 -45 32 -77t77 -32q47 0 78 32t31 77v510h371v-905q0 -96 -40 -185t-106.5 -153.5t-156 -103t-183.5 -38.5zM538 1429l332 -173l-245 -254h-274z
" />
    <glyph glyph-name="thorn" unicode="&#xfe;" horiz-adv-x="1063" 
d="M15 -410v1749q139 -33 241.5 -137.5t133.5 -241.5q69 16 125 16q136 0 251 -66.5t182 -182t67 -252.5q0 -99 -40 -190.5t-107 -158t-159.5 -106.5t-193.5 -40q-42 0 -81 7v410q40 -33 83 -33.5t76.5 32t33.5 79.5q-2 51 -32 83.5t-80 32.5q-49 0 -81.5 -35.5t-32.5 -84.5
v-396q0 -172 -110 -309t-276 -176z" />
    <glyph glyph-name="ydieresis" unicode="&#xff;" horiz-adv-x="1047" 
d="M977 1292v-283h-361v283h361zM385 1292v-283h-358v283h358zM495 -78v-347q94 0 183.5 38.5t156 103t106.5 153.5t40 185v905h-371v-510q0 -45 -31 -77t-78 -32q-45 0 -77 32t-32 77v510h-370v-488q0 -97 38 -186.5t101.5 -154.5t152.5 -104t187 -39q80 0 136 41
q-5 -45 -46.5 -76t-95.5 -31z" />
    <glyph glyph-name="Amacron" unicode="&#x100;" horiz-adv-x="1356" 
d="M1279 0h-384v341h-474v-341h-382v959q0 140 69.5 259t189 188.5t258.5 69.5h204q104 0 200 -41t166 -110t111.5 -165t41.5 -201v-959zM556 1097q-56 0 -95.5 -40.5t-39.5 -97.5v-231h474v231q0 57 -39 97.5t-96 40.5h-204zM962 1509h-624v319h624v-319z" />
    <glyph glyph-name="amacron" unicode="&#x101;" horiz-adv-x="1071" 
d="M1005 480v-487q-164 38 -273 175.5t-106 307.5q3 46 -29 80t-79 34q-45 0 -77.5 -33t-32.5 -77q0 -46 32.5 -79t77.5 -33q53 0 78 37q25 -191 186 -335q-127 -77 -264 -77q-129 0 -241 64t-180 177t-68 246q0 203 143 346t346 143q99 0 189 -38.5t155.5 -104t104 -156
t38.5 -190.5zM803 995h-564v288h564v-288z" />
    <glyph glyph-name="Abreve" unicode="&#x102;" horiz-adv-x="1349" 
d="M1279 0h-384v341h-474v-341h-382v959q0 140 69.5 259t189 188.5t258.5 69.5h204q104 0 200 -41t166 -110t111.5 -165t41.5 -201v-959zM556 1097q-56 0 -95.5 -40.5t-39.5 -97.5v-231h474v231q0 57 -39 97.5t-96 40.5h-204zM367 1781l237 -1q2 -24 22 -38t42.5 -14
t42 13.5t21.5 38.5l240 1q-15 -128 -93.5 -196.5t-208.5 -68.5q-132 0 -210 68t-93 197z" />
    <glyph glyph-name="abreve" unicode="&#x103;" horiz-adv-x="1072" 
d="M1005 480v-487q-164 38 -273 175.5t-106 307.5q3 46 -29 80t-79 34q-45 0 -77.5 -33t-32.5 -77q0 -46 32.5 -79t77.5 -33q53 0 78 37q25 -191 186 -335q-127 -77 -264 -77q-129 0 -241 64t-180 177t-68 246q0 203 143 346t346 143q99 0 189 -38.5t155.5 -104t104 -156
t38.5 -190.5zM219 1261l237 -1q2 -24 22 -38t42.5 -14t42 13.5t21.5 38.5l240 1q-15 -128 -93.5 -196.5t-208.5 -68.5q-132 0 -210 68t-93 197z" />
    <glyph glyph-name="Aogonek" unicode="&#x104;" horiz-adv-x="1349" 
d="M1097 1l-202 -1v341h-474v-341h-382v959q0 140 69.5 259t189 188.5t258.5 69.5h204q104 0 200 -41t166 -110t111.5 -165t41.5 -201v-925h27q-56 -145 13 -194q70 -51 168 -4v-191q-62 -41 -187 -42q-127 -3 -189 49q-62 53 -68 154q-5 92 54 195zM760 1097h-204
q-56 0 -95.5 -40.5t-39.5 -97.5v-231h474v231q0 57 -39 97.5t-96 40.5z" />
    <glyph glyph-name="aogonek" unicode="&#x105;" horiz-adv-x="1076" 
d="M1005 480v-431q-3 -1 -9 -1l7 -1q-39 -126 23 -171t149 -3v-171q-56 -36 -167 -37q-112 -3 -168 44t-60 137q-4 92 72 225q-103 47 -165.5 161t-60.5 244q3 46 -29 80t-79 34q-45 0 -77.5 -33t-32.5 -77q0 -46 32.5 -79t77.5 -33q54 0 79 37q13 -95 56 -179
q18 -36 55 -80t76 -76q-127 -77 -266 -77q-129 0 -241 64t-180 177t-68 246q0 203 143 346t346 143q99 0 189 -38.5t155.5 -104t104 -156t38.5 -190.5z" />
    <glyph glyph-name="Cacute" unicode="&#x106;" horiz-adv-x="1215" 
d="M805 1904l353 -159l-262 -233h-290zM988 438l187 -334q-182 -115 -397 -115q-153 0 -291 58.5t-237.5 158t-158 237t-58.5 289.5q0 121 37.5 234.5t106 205t160 160t205.5 106t236 37.5q213 0 397 -113l-187 -336q-98 68 -210 68q-153 0 -258.5 -105t-105.5 -257
t105.5 -257t258.5 -105q114 0 210 68z" />
    <glyph glyph-name="cacute" unicode="&#x107;" horiz-adv-x="1013" 
d="M540 1371l340 -153l-253 -225h-279zM505 369h474q-39 -161 -173.5 -268.5t-302.5 -107.5q-129 0 -241.5 66.5t-178.5 179t-66 240.5q0 133 65.5 245.5t177.5 177.5t243 65q172 0 304.5 -106.5t171.5 -269.5h-476q-44 0 -77 -33t-33 -79q0 -44 34 -77t78 -33z" />
    <glyph glyph-name="Ccircumflex" unicode="&#x108;" horiz-adv-x="1210" 
d="M988 438l187 -334q-182 -115 -397 -115q-153 0 -291 58.5t-237.5 158t-158 237t-58.5 289.5q0 121 37.5 234.5t106 205t160 160t205.5 106t236 37.5q213 0 397 -113l-187 -336q-98 68 -210 68q-153 0 -258.5 -105t-105.5 -257t105.5 -257t258.5 -105q114 0 210 68z
M640 1502h-305l240 315h369l240 -315h-302l-122 148z" />
    <glyph glyph-name="ccircumflex" unicode="&#x109;" horiz-adv-x="1008" 
d="M505 369h474q-39 -161 -173.5 -268.5t-302.5 -107.5q-129 0 -241.5 66.5t-178.5 179t-66 240.5q0 133 65.5 245.5t177.5 177.5t243 65q172 0 304.5 -106.5t171.5 -269.5h-476q-44 0 -77 -33t-33 -79q0 -44 34 -77t78 -33zM394 981h-287l226 296h346l225 -296h-283
l-115 139z" />
    <glyph glyph-name="Cdot" unicode="&#x10a;" horiz-adv-x="1215" 
d="M988 438l187 -334q-182 -115 -397 -115q-153 0 -291 58.5t-237.5 158t-158 237t-58.5 289.5q0 121 37.5 234.5t106 205t160 160t205.5 106t236 37.5q213 0 397 -113l-187 -336q-98 68 -210 68q-153 0 -258.5 -105t-105.5 -257t105.5 -257t258.5 -105q114 0 210 68z
M920 1518h-304v305h304v-305z" />
    <glyph glyph-name="cdot" unicode="&#x10b;" horiz-adv-x="1013" 
d="M505 369h474q-39 -161 -173.5 -268.5t-302.5 -107.5q-129 0 -241.5 66.5t-178.5 179t-66 240.5q0 133 65.5 245.5t177.5 177.5t243 65q172 0 304.5 -106.5t171.5 -269.5h-476q-44 0 -77 -33t-33 -79q0 -44 34 -77t78 -33zM644 1002h-288v289h288v-289z" />
    <glyph glyph-name="Ccaron" unicode="&#x10c;" horiz-adv-x="1215" 
d="M938 1514l-384 -3l-252 292l315 1l128 -137l123 139h317zM988 438l187 -334q-182 -115 -397 -115q-153 0 -291 58.5t-237.5 158t-158 237t-58.5 289.5q0 121 37.5 234.5t106 205t160 160t205.5 106t236 37.5q213 0 397 -113l-187 -336q-98 68 -210 68q-153 0 -258.5 -105
t-105.5 -257t105.5 -257t258.5 -105q114 0 210 68z" />
    <glyph glyph-name="ccaron" unicode="&#x10d;" horiz-adv-x="1024" 
d="M686 994l-364 -3l-239 277l299 1l121 -130l117 132h300zM505 369h474q-39 -161 -173.5 -268.5t-302.5 -107.5q-129 0 -241.5 66.5t-178.5 179t-66 240.5q0 133 65.5 245.5t177.5 177.5t243 65q172 0 304.5 -106.5t171.5 -269.5h-476q-44 0 -77 -33t-33 -79q0 -44 34 -77
t78 -33z" />
    <glyph glyph-name="Dcaron" unicode="&#x10e;" horiz-adv-x="1358" 
d="M752 1506h-382l-252 291l315 2l128 -137l123 139l317 3zM578 1466q148 0 283.5 -58t233.5 -156t156.5 -233t58.5 -283q0 -150 -58.5 -286.5t-157.5 -235t-235 -156.5t-285 -58h-546v1466h550zM578 370q148 0 252.5 107t104.5 259q0 146 -105 253t-252 107h-176v-726h176z
" />
    <glyph glyph-name="dcaron" unicode="&#x10f;" horiz-adv-x="1379" 
d="M992 1462v-981q0 -132 -65 -243.5t-176.5 -176.5t-243.5 -65t-244 65t-177.5 176.5t-65.5 243.5q0 129 65 240.5t178 178t244 66.5q51 0 84 -8v-397q-25 24 -59 28.5t-63.5 -7t-50.5 -38.5t-21 -63q2 -46 32 -77t78 -31t78 33.5t30 81.5v502q0 165 107.5 299t269.5 173z
M1046 919v225q34 0 57.5 24t23.5 58h-81v244h308v-244q0 -127 -90.5 -217t-217.5 -90z" />
    <glyph glyph-name="Dslash" unicode="&#x110;" horiz-adv-x="1446" 
d="M6 579v316h109v571h550q148 0 283.5 -58t233.5 -156t156.5 -233t58.5 -283q0 -150 -58.5 -286.5t-157.5 -235t-235 -156.5t-285 -58h-546v579h-109zM695 895v-316h-206v-209h176q148 0 252.5 107t104.5 259q0 146 -105 253t-252 107h-176v-201h206z" />
    <glyph glyph-name="dmacron" unicode="&#x111;" horiz-adv-x="1085" 
d="M992 1462v-227h123v-167h-123v-594q0 -132 -65 -243.5t-176.5 -176.5t-243.5 -65t-244 65t-177.5 176.5t-65.5 243.5q0 129 65 240.5t178 178t244 66.5q51 0 84 -8v-397q-25 24 -59 28.5t-63.5 -7t-50.5 -38.5t-21 -63q2 -46 32 -77t78 -31t78 33.5t30 81.5v502
q0 40 8 85h-117v167h182q51 84 130.5 144t173.5 83z" />
    <glyph glyph-name="Emacron" unicode="&#x112;" horiz-adv-x="1130" 
d="M1055 363v-364h-517q-136 0 -253.5 69t-186 186t-68.5 253v448q0 138 68.5 255.5t185.5 186t254 68.5h517v-367h-517q-54 0 -94 -41t-40 -96v-59h651v-348h-651v-49q0 -55 40 -98.5t94 -43.5h517zM959 1520h-554v283h554v-283z" />
    <glyph glyph-name="emacron" unicode="&#x113;" horiz-adv-x="1017" 
d="M940 375v-375h-436h-4q-132 0 -243.5 65t-176.5 176.5t-65 243.5t65 243.5t176.5 176.5t243.5 65q87 0 164 -21t141.5 -63.5t104.5 -114.5t46 -166q9 -129 -56 -206l-333 -1h-63v42q61 -1 83 38t-4 78t-83 39q-45 0 -77.5 -32.5t-32.5 -77.5q0 -46 33.5 -79t80.5 -31h436
zM732 1009h-437v271h437v-271z" />
    <glyph glyph-name="Ebreve" unicode="&#x114;" horiz-adv-x="1130" 
d="M1055 363v-364h-517q-136 0 -253.5 69t-186 186t-68.5 253v448q0 138 68.5 255.5t185.5 186t254 68.5h517v-367h-517q-54 0 -94 -41t-40 -96v-59h651v-348h-651v-49q0 -55 40 -98.5t94 -43.5h517zM353 1775l237 -1q2 -24 22 -38t42.5 -14t42 13.5t21.5 38.5l240 1
q-15 -128 -93.5 -196.5t-208.5 -68.5q-132 0 -210 68t-93 197z" />
    <glyph glyph-name="ebreve" unicode="&#x115;" horiz-adv-x="1012" 
d="M940 375v-375h-436h-4q-132 0 -243.5 65t-176.5 176.5t-65 243.5t65 243.5t176.5 176.5t243.5 65q87 0 164 -21t141.5 -63.5t104.5 -114.5t46 -166q9 -129 -56 -206l-333 -1h-63v42q61 -1 83 38t-4 78t-83 39q-45 0 -77.5 -32.5t-32.5 -77.5q0 -46 33.5 -79t80.5 -31h436
zM258 1237l212 -1q2 -22 19.5 -34t38 -12.5t38 12t18.5 34.5l215 1q-14 -114 -84 -175.5t-186 -61.5q-117 0 -187.5 61.5t-83.5 175.5z" />
    <glyph glyph-name="Edot" unicode="&#x116;" horiz-adv-x="1130" 
d="M1055 363v-364h-517q-136 0 -253.5 69t-186 186t-68.5 253v448q0 138 68.5 255.5t185.5 186t254 68.5h517v-367h-517q-54 0 -94 -41t-40 -96v-59h651v-348h-651v-49q0 -55 40 -98.5t94 -43.5h517zM864 1505h-301v302h301v-302z" />
    <glyph glyph-name="edot" unicode="&#x117;" horiz-adv-x="1012" 
d="M940 375v-375h-436h-4q-132 0 -243.5 65t-176.5 176.5t-65 243.5t65 243.5t176.5 176.5t243.5 65q87 0 164 -21t141.5 -63.5t104.5 -114.5t46 -166q9 -129 -56 -206l-333 -1h-63v42q61 -1 83 38t-4 78t-83 39q-45 0 -77.5 -32.5t-32.5 -77.5q0 -46 33.5 -79t80.5 -31h436
zM676 1011h-292v293h292v-293z" />
    <glyph glyph-name="Eogonek" unicode="&#x118;" horiz-adv-x="1120" 
d="M1055 371v-372h-19q-40 -123 22 -169q70 -51 168 -4v-191q-62 -41 -187 -42q-127 -3 -189 49q-62 53 -68 154q-5 94 56 203h-300q-136 0 -253.5 69t-186 186t-68.5 253v448q0 138 68.5 255.5t185.5 186t254 68.5h517v-370h-517q-55 0 -94.5 -39.5t-39.5 -94.5v-40h651
v-376h-651v-40q0 -55 39.5 -94.5t94.5 -39.5h517z" />
    <glyph glyph-name="eogonek" unicode="&#x119;" horiz-adv-x="1012" 
d="M940 375v-375h-130q-34 -110 21 -150q61 -45 150 -3v-171q-56 -37 -168 -38q-218 -6 -229 182q-4 81 48 180h-132q-132 0 -243.5 65t-176.5 176.5t-65 243.5t65 243.5t176.5 176.5t243.5 65q87 0 164 -21t141.5 -63.5t104.5 -114.5t46 -166q9 -129 -56 -206l-409 -1v42
q61 -1 86.5 38t2.5 78t-80 39q-45 0 -77.5 -32.5t-32.5 -77.5q0 -46 33.5 -79t80.5 -31h436z" />
    <glyph glyph-name="Ecaron" unicode="&#x11a;" horiz-adv-x="1129" 
d="M874 1502l-384 -3l-252 291l315 2l128 -137l123 139l317 1zM1055 -1v364h-517q-54 0 -94 43.5t-40 98.5v49h651v348h-651v59q0 55 40 96t94 41h517v367h-517q-137 0 -254 -68.5t-185.5 -186t-68.5 -255.5v-448q0 -136 68.5 -253t186 -186t253.5 -69h517z" />
    <glyph glyph-name="ecaron" unicode="&#x11b;" horiz-adv-x="1014" 
d="M687 1000l-341 -3l-224 299l280 2l113 -141l109 145l282 1zM940 0v375h-436q-47 -2 -80.5 31t-33.5 79q0 45 32.5 77.5t77.5 32.5q57 0 83 -39t4 -78t-83 -38v-42h63l333 1q65 77 56 206q-6 94 -46 166t-104.5 114.5t-141.5 63.5t-164 21q-132 0 -243.5 -65
t-176.5 -176.5t-65 -243.5t65 -243.5t176.5 -176.5t243.5 -65h4h436z" />
    <glyph glyph-name="Gcircumflex" unicode="&#x11c;" horiz-adv-x="1552" 
d="M773 529v384h728v-203q0 -323 -201.5 -523.5t-524.5 -200.5q-151 0 -289 59t-237.5 159t-158.5 238.5t-59 289.5q0 152 59 290t158.5 238.5t238 159.5t290.5 59q211 0 400 -116l-187 -335q-101 68 -213 68q-151 0 -258 -106.5t-107 -257.5t106 -257t257 -108
q91 0 172.5 43.5t131.5 118.5h-306zM628 1497h-347l273 359h420l273 -359h-344l-139 169z" />
    <glyph glyph-name="gcircumflex" unicode="&#x11d;" horiz-adv-x="1075" 
d="M513 -401v377q48 0 79 32t31 81v393q0 48 -31 79.5t-79 31.5q-47 0 -76.5 -30t-32.5 -74q0 -48 31.5 -79.5t77.5 -31.5q56 0 85 37v-324q-1 -30 -14.5 -49.5t-38 -28t-46 -11.5t-51.5 -3q-122 0 -222.5 70.5t-155 181.5t-54.5 235q0 130 68 242t182.5 177t246.5 65
q127 0 239 -63.5t180 -173t68 -236.5v-425q0 -127 -68 -236.5t-180 -173t-239 -63.5zM417 990h-280l220 291h339l220 -291h-278l-112 137z" />
    <glyph glyph-name="Gbreve" unicode="&#x11e;" horiz-adv-x="1535" 
d="M773 529v384h728v-203q0 -323 -201.5 -523.5t-524.5 -200.5q-151 0 -289 59t-237.5 159t-158.5 238.5t-59 289.5q0 152 59 290t158.5 238.5t238 159.5t290.5 59q211 0 400 -116l-187 -335q-101 68 -213 68q-151 0 -258 -106.5t-107 -257.5t106 -257t257 -108
q91 0 172.5 43.5t131.5 118.5h-306zM461 1787l250 -1q2 -25 23 -39t45 -14t44.5 14t22.5 39l253 1q-16 -132 -98.5 -202.5t-219.5 -70.5q-138 0 -221 70.5t-99 202.5z" />
    <glyph glyph-name="gbreve" unicode="&#x11f;" horiz-adv-x="1069" 
d="M510 -401v377q48 0 79 32t31 81v393q0 48 -31 79.5t-79 31.5q-47 0 -76.5 -30t-32.5 -74q0 -48 31.5 -79.5t77.5 -31.5q56 0 85 37v-324q-1 -30 -14.5 -49.5t-38 -28t-46 -11.5t-51.5 -3q-122 0 -222.5 70.5t-155 181.5t-54.5 235q0 130 68 242t182.5 177t246.5 65
q127 0 239 -63.5t180 -173t68 -236.5v-425q0 -127 -68 -236.5t-180 -173t-239 -63.5zM259 1231h211q2 -29 29.5 -41t55 0t29.5 41h214q-14 -114 -83.5 -175t-185.5 -61q-117 0 -187 61t-83 175z" />
    <glyph glyph-name="Gdot" unicode="&#x120;" horiz-adv-x="1529" 
d="M767 529v384h728v-203q0 -323 -201.5 -523.5t-524.5 -200.5q-151 0 -289 59t-237.5 159t-158.5 238.5t-59 289.5q0 152 59 290t158.5 238.5t238 159.5t290.5 59q211 0 400 -116l-187 -335q-101 68 -213 68q-151 0 -258 -106.5t-107 -257.5t106 -257t257 -108
q91 0 172.5 43.5t131.5 118.5h-306zM915 1521h-299v299h299v-299z" />
    <glyph glyph-name="gdot" unicode="&#x121;" horiz-adv-x="1075" 
d="M513 -401v377q48 0 79 32t31 81v393q0 48 -31 79.5t-79 31.5q-47 0 -76.5 -30t-32.5 -74q0 -48 31.5 -79.5t77.5 -31.5q56 0 85 37v-324q-1 -30 -14.5 -49.5t-38 -28t-46 -11.5t-51.5 -3q-122 0 -222.5 70.5t-155 181.5t-54.5 235q0 130 68 242t182.5 177t246.5 65
q127 0 239 -63.5t180 -173t68 -236.5v-425q0 -127 -68 -236.5t-180 -173t-239 -63.5zM667 1006h-296v297h296v-297z" />
    <glyph glyph-name="Gcedilla" unicode="&#x122;" horiz-adv-x="1557" 
d="M778 529v384h728v-203q0 -298 -173.5 -494t-459.5 -225l-23 -75q118 -9 125 -115q9 -107 -63 -164q-71 -58 -217 -58q-83 0 -144 12l11 214q62 -50 85 0t-51 55l40 140q-259 51 -429.5 257t-170.5 475q0 152 59 290t158.5 238.5t238 159.5t290.5 59q212 0 400 -116
l-187 -335q-101 68 -213 68q-151 0 -258 -106.5t-107 -257.5t106 -257t257 -108q91 0 172.5 43.5t131.5 118.5h-306z" />
    <glyph glyph-name="gcedilla" unicode="&#x123;" horiz-adv-x="1071" 
d="M518 -401v377q48 0 79 32t31 81v393q0 48 -31 79.5t-79 31.5q-47 0 -76.5 -30t-32.5 -74q0 -48 31.5 -79.5t77.5 -31.5q56 0 85 37v-324q-2 -94 -150 -94q-122 0 -222.5 71t-155 182.5t-54.5 235.5q0 130 68 242t182.5 177t246.5 65q127 0 239 -63.5t180 -173t68 -236.5
v-425q0 -127 -68 -236.5t-180 -173t-239 -63.5zM669 1476v-199q-31 0 -53 -21t-22 -51h75v-202h-287v202q0 112 84.5 191.5t202.5 79.5z" />
    <glyph glyph-name="Hcircumflex" unicode="&#x124;" horiz-adv-x="1350" 
d="M24 0h382v513h492v-513h381v1465h-378q-2 0 -3 1v-592h-492v591h-379q-2 0 -3 1v-1h-1zM488 1488h-333l262 344h403l262 -344h-330l-133 162z" />
    <glyph glyph-name="hcircumflex" unicode="&#x125;" horiz-adv-x="1045" 
d="M605 0h369v509q0 91 -33.5 174.5t-92.5 143.5t-133 95.5t-162 34.5t-172 -43q3 83 -2.5 153t-15 121.5t-28.5 92.5t-36.5 68.5t-47.5 49t-51.5 32.5t-58 20t-59 12t-61.5 7v-1470h368v509q0 45 31.5 78t75.5 33q46 0 77.5 -33t31.5 -78v-509zM449 1450h-269l212 279h326
l212 -279h-267l-108 132z" />
    <glyph glyph-name="Hbar" unicode="&#x126;" horiz-adv-x="1399" 
d="M449 811h492v213h-494q2 -30 2 -46v-167zM1322 0h-381v427h-492v-427h-382v1024h-87v214h87v238q98 -28 178.5 -90t131.5 -148h564v238q98 -28 178 -90t131 -148h144v-214h-74q2 -30 2 -46v-978z" />
    <glyph glyph-name="hbar" unicode="&#x127;" horiz-adv-x="1081" 
d="M421 0h-368v1052h-88v214h88v204q93 -10 172.5 -60t128.5 -144h218v-214h-161q3 -54 2 -103q75 24 147.5 19.5t138.5 -26t122 -64.5t97.5 -97.5t64.5 -125t23 -146.5v-509h-369v509q0 45 -31.5 78t-77.5 33q-44 0 -75.5 -33t-31.5 -78v-509z" />
    <glyph glyph-name="Itilde" unicode="&#x128;" horiz-adv-x="577" 
d="M449 0h-385v1468h385v-1468zM466 1815l155 -77q-50 -140 -149 -203t-210 -8q-33 16 -48.5 25t-42.5 23q-33 16 -72.5 3t-52.5 -48l-156 79q49 139 151 201t212 6q16 -7 95 -48q32 -15 68.5 -1.5t49.5 48.5z" />
    <glyph glyph-name="itilde" unicode="&#x129;" horiz-adv-x="523" 
d="M426 0h-374v962h374v-962zM448 1379l144 -78q-47 -141 -139 -204.5t-195 -8.5q-31 16 -45.5 25.5t-39.5 23.5q-30 16 -67 2.5t-49 -48.5l-146 80q46 140 141 202.5t197 6.5q27 -13 35.5 -17.5t20 -12t33.5 -19.5q30 -15 64 -1.5t46 49.5z" />
    <glyph glyph-name="Imacron" unicode="&#x12a;" horiz-adv-x="580" 
d="M450 0h-385v1468h385v-1468zM565 1514h-624v319h624v-319z" />
    <glyph glyph-name="imacron" unicode="&#x12b;" horiz-adv-x="548" 
d="M437 0h-374v961h374v-961zM565 1096h-624v319h624v-319z" />
    <glyph glyph-name="Ibreve" unicode="&#x12c;" horiz-adv-x="577" 
d="M449 0h-385v1468h385v-1468zM-45 1773l237 -1q2 -24 22 -38t42.5 -14t42 13.5t21.5 38.5l240 1q-15 -128 -93.5 -196.5t-208.5 -68.5q-132 0 -210 68t-93 197z" />
    <glyph glyph-name="ibreve" unicode="&#x12d;" horiz-adv-x="548" 
d="M437 0h-374v962h374v-962zM-48 1336l237 -1q2 -24 22 -38t42.5 -14t42 13.5t21.5 38.5l240 1q-15 -128 -93.5 -196.5t-208.5 -68.5q-132 0 -210 68t-93 197z" />
    <glyph glyph-name="Iogonek" unicode="&#x12e;" horiz-adv-x="576" 
d="M449 0h-8q-43 -128 21 -174q70 -51 168 -4v-191q-62 -41 -187 -42q-127 -3 -189 49q-62 53 -68 154q-5 95 58 208h-180v1468h385v-1468z" />
    <glyph glyph-name="iogonek" unicode="&#x12f;" horiz-adv-x="553" 
d="M442 0h-8q-38 -115 19 -155q62 -45 149 -3v-169q-57 -36 -166 -37q-112 -3 -167 43q-56 47 -60 137q-5 84 52 184h-193v962h374v-962z" />
    <glyph glyph-name="Idot" unicode="&#x130;" horiz-adv-x="577" 
d="M452 0h-385v1468h385v-1468zM416 1512h-325v326h325v-326z" />
    <glyph glyph-name="dotlessi" unicode="&#x131;" horiz-adv-x="546" 
d="M437 0h-374v962h374v-962z" />
    <glyph glyph-name="IJ" unicode="&#x132;" horiz-adv-x="1430" 
d="M440 0h-385v1468h385v-1468zM511 -8v375h327q56 0 96 41.5t40 96.5v585h-125v375h508v-967q0 -136 -71.5 -253t-191 -185t-256.5 -68h-327z" />
    <glyph glyph-name="ij" unicode="&#x133;" horiz-adv-x="937" 
d="M392 0h-375v963h375v-963zM-3 1211q0 88 61 149.5t149 61.5t149.5 -61.5t61.5 -149.5t-61.5 -149t-149.5 -61t-149 61t-61 149zM416 -399v346q43 0 73 25.5t30 64.5v927h343v-927q0 -118 -62 -219t-164.5 -159t-219.5 -58zM482 1225q0 88 61 149.5t149 61.5t149.5 -61.5
t61.5 -149.5t-61.5 -149t-149.5 -61t-149 61t-61 149z" />
    <glyph glyph-name="Jcircumflex" unicode="&#x134;" horiz-adv-x="937" 
d="M17 -8v375h327q56 0 96 41.5t40 96.5v585h-125v375h508v-967q0 -136 -71.5 -253t-191 -185t-256.5 -68h-327zM415 1500h-326l256 337h395l257 -337h-324l-130 159z" />
    <glyph glyph-name="jcircumflex" unicode="&#x135;" horiz-adv-x="470" 
d="M49 37v939h343v-939q0 -118 -62 -219t-164.5 -159t-219.5 -58v346q43 0 73 25.5t30 64.5zM117 1007h-282l222 314h341l222 -314h-280l-113 148z" />
    <glyph glyph-name="Kcedilla" unicode="&#x136;" horiz-adv-x="1278" 
d="M1212 2h-372v154q0 50 -28 82l-265 305h-130v-541h-383v1464h383v-543h117l278 309q28 31 28 81v153h372v-159q0 -190 -105 -299l-254 -274l254 -273q105 -109 105 -299v-160zM578 -175l5 154q33 4 72 4q151 0 219 -56t68 -129q2 -83 -77 -142q-78 -60 -245 -61
q-71 0 -154 19l20 169q73 -17 156 -17q86 0 83 31q-1 31 -65 31q-63 -2 -82 -3z" />
    <glyph glyph-name="kcedilla" unicode="&#x137;" horiz-adv-x="1002" 
d="M392 0h-366v1470q161 -38 263.5 -170.5t102.5 -298.5v-383q62 47 101 88.5t55.5 76.5t21.5 58t5 54v63h374v-62q0 -116 -25.5 -197t-102.5 -130l-145 -92l145 -97q45 -30 71 -58t38.5 -65t15.5 -70.5t3 -95.5v-91h-374v83q0 49 -19 89t-53.5 67t-57 39.5t-53.5 26.5v-305
zM393 -179l5 154q33 4 72 4q151 0 219 -56t68 -129q2 -83 -77 -142q-78 -60 -245 -61q-71 0 -154 19l20 169q73 -17 156 -17q86 0 83 31q-1 31 -65 31q-63 -2 -82 -3z" />
    <glyph glyph-name="kgreenlandic" unicode="&#x138;" horiz-adv-x="1025" 
d="M961 0h-374v55q0 45 -60 105.5t-123 103.5v-264h-366v961h366v-288q75 52 129 114t54 108v67h374v-66q0 -108 -28 -189t-102 -138l-120 -92l120 -97q80 -64 105 -136t25 -191v-53z" />
    <glyph glyph-name="Lacute" unicode="&#x139;" horiz-adv-x="919" 
d="M579 1852l236 -107l-262 -233h-290l199 392l117 -53v1zM33 475l-1 1004h1v1h2q50 -1 380 -1v-998q0 -41 31.5 -69t75.5 -28h334v-384h-358q-196 0 -330.5 135.5t-134.5 339.5z" />
    <glyph glyph-name="lacute" unicode="&#x13a;" horiz-adv-x="569" 
d="M243 1904l353 -159l-262 -233h-290zM505 369v-371q-125 0 -235 62.5t-176.5 170.5t-66.5 234v1002h368v-1002q0 -42 32 -69t78 -27z" />
    <glyph glyph-name="Lcedilla" unicode="&#x13b;" horiz-adv-x="913" 
d="M33 475l-1 1004h1v1h2q50 -1 380 -1v-998q0 -41 31.5 -69t75.5 -28h334v-384h-358q-196 0 -330.5 135.5t-134.5 339.5zM459 -32l-5 -154q19 1 82 3q64 0 65 -31q3 -31 -83 -31q-83 0 -156 17l-20 -169q83 -19 154 -19q167 1 245 61q79 59 77 142q0 73 -68 129t-219 56
q-39 0 -72 -4z" />
    <glyph glyph-name="lcedilla" unicode="&#x13c;" horiz-adv-x="567" 
d="M506 369v-371q-125 0 -235 62.5t-176.5 170.5t-66.5 234v1002h368v-1002q0 -42 32 -69t78 -27zM199 -180l5 154q33 4 72 4q151 0 219 -56t68 -129q2 -83 -77 -142q-78 -60 -245 -61q-71 0 -154 19l20 169q73 -17 156 -17q86 0 83 31q-1 31 -65 31q-63 -2 -82 -3z" />
    <glyph glyph-name="Lcaron" unicode="&#x13d;" horiz-adv-x="916" 
d="M552 1455h308v-244q0 -127 -90.5 -217t-217.5 -90v225q34 0 57.5 24t23.5 58h-81v244zM33 475l-1 1004h1v1h2q50 -1 380 -1v-998q0 -41 31.5 -69t75.5 -28h334v-384h-358q-196 0 -330.5 135.5t-134.5 339.5z" />
    <glyph glyph-name="lcaron" unicode="&#x13e;" horiz-adv-x="587" 
d="M445 1464h278v-236q0 -123 -81.5 -210.5t-196.5 -87.5v218q31 0 52 23.5t21 56.5h-73v236zM506 369v-371q-125 0 -235 62.5t-176.5 170.5t-66.5 234v1002h368v-1002q0 -42 32 -69t78 -27z" />
    <glyph glyph-name="Ldot" unicode="&#x13f;" horiz-adv-x="908" 
d="M33 475l-1 1004h1v1h2q50 -1 380 -1v-998q0 -41 31.5 -69t75.5 -28h334v-384h-358q-196 0 -330.5 135.5t-134.5 339.5zM508 483h313v313h-313v-313z" />
    <glyph glyph-name="ldot" unicode="&#x140;" horiz-adv-x="572" 
d="M500 369v-371q-125 0 -235 62.5t-176.5 170.5t-66.5 234v1002h368v-1002q0 -42 32 -69t78 -27zM727 474h-293v293h293v-293z" />
    <glyph glyph-name="Lslash" unicode="&#x141;" horiz-adv-x="910" 
d="M33 475v26l-55 -32v230l54 32l-1 481v268q113 -3 202 -62.5t135.5 -156.5t46.5 -212v-94l248 144v-230l-248 -145v-243q0 -41 31.5 -69t75.5 -28h334v-384h-299q-97 0 -191 36t-168 98t-119.5 151.5t-45.5 189.5z" />
    <glyph glyph-name="lslash" unicode="&#x142;" horiz-adv-x="598" 
d="M423 948l106 63v-230l-106 -63v-253q0 -42 32 -69t78 -27v-371q-125 0 -235 62.5t-176.5 170.5t-66.5 234v34l-70 -41v230l70 41v739h368v-520z" />
    <glyph glyph-name="Nacute" unicode="&#x143;" horiz-adv-x="1356" 
d="M669 1904l353 -159l-262 -233h-290zM891 1469h387v-1248q0 -62 -26 -112.5t-68 -80.5t-95.5 -42.5t-105.5 -5t-100 39t-78 82.5l-394 685l7 -786h-387l1 1226q0 72 19.5 126.5t52.5 84t74 45t85.5 11.5t86.5 -19.5t77.5 -45t56.5 -67.5l422 -741z" />
    <glyph glyph-name="nacute" unicode="&#x144;" horiz-adv-x="1057" 
d="M480 1366l327 -148l-243 -216h-269zM392 0h-367v964q107 -23 186 -90q129 100 295 100q199 0 339 -141t140 -342v-491h-364v493q0 44 -35.5 78.5t-79.5 34.5q-47 0 -80.5 -33.5t-33.5 -79.5v-493z" />
    <glyph glyph-name="Ncedilla" unicode="&#x145;" horiz-adv-x="1355" 
d="M891 1469h387v-1248q0 -62 -26 -112.5t-68 -80.5t-95.5 -42.5t-105.5 -5t-100 39t-78 82.5l-394 685l7 -786h-387l1 1226q0 72 19.5 126.5t52.5 84t74 45t85.5 11.5t86.5 -19.5t77.5 -45t56.5 -67.5l422 -741zM562 -169l6 168q36 4 78 4q165 0 238 -61q74 -62 74 -140
q2 -90 -83 -154q-85 -66 -267 -67q-76 0 -167 21l21 184q76 -19 171 -19q93 0 90 34t-71 34q-72 -2 -90 -4z" />
    <glyph glyph-name="ncedilla" unicode="&#x146;" horiz-adv-x="1059" 
d="M392 0h-367v964q107 -23 186 -90q129 100 295 100q199 0 339 -141t140 -342v-491h-364v493q0 44 -35.5 78.5t-79.5 34.5q-47 0 -80.5 -33.5t-33.5 -79.5v-493zM415 -169l5 154q33 4 72 4q151 0 219 -56t68 -129q2 -83 -77 -142q-78 -60 -245 -61q-71 0 -154 19l20 169
q73 -17 156 -17q86 0 83 31q-1 31 -65 31q-63 -2 -82 -3z" />
    <glyph glyph-name="Ncaron" unicode="&#x147;" horiz-adv-x="1355" 
d="M844 1514l-384 -3l-252 291l315 2l128 -137l123 139l317 3zM1278 1469h-387l15 -848l-422 741q-21 38 -56.5 67.5t-77.5 45t-86.5 19.5t-85.5 -11.5t-74 -45t-52.5 -84t-19.5 -126.5l-1 -1226h387l-7 786l394 -685q30 -51 78 -82.5t100 -39t105.5 5t95.5 42.5t68 80.5
t26 112.5v1248z" />
    <glyph glyph-name="ncaron" unicode="&#x148;" horiz-adv-x="1059" 
d="M667 1021l-337 -3l-221 282l276 1l113 -132l108 138h278zM25 0h367v493q0 46 33.5 79.5t80.5 33.5q44 0 79.5 -34.5t35.5 -78.5v-493h364v491q0 201 -140 342t-339 141q-166 0 -295 -100q-79 67 -186 90v-964z" />
    <glyph glyph-name="napostrophe" unicode="&#x149;" horiz-adv-x="1145" 
d="M471 0h-367v916q-64 -28 -133 -28v246q37 0 63 25.5t26 62.5h-89v264h334v-264q0 -83 -39 -155.5t-106 -118.5q73 -26 130 -74q129 100 295 100q199 0 339 -141t140 -342v-491h-364v493q0 44 -35.5 78.5t-79.5 34.5q-47 0 -80.5 -33.5t-33.5 -79.5v-493z" />
    <glyph glyph-name="Eng" unicode="&#x14a;" horiz-adv-x="1337" 
d="M709 -44v375h75q49 4 82.5 39.5t33.5 85.5v512q0 50 -33.5 85.5t-82.5 39.5h-244q-51 -4 -85 -40t-34 -85v-967h-377v1479q121 -33 206 -106q139 94 302 94h215q214 0 360 -143.5t146 -356.5v-512q0 -213 -146 -356.5t-360 -143.5h-58z" />
    <glyph glyph-name="eng" unicode="&#x14b;" horiz-adv-x="1062" 
d="M508 -425v370q44 0 76.5 33.5t32.5 77.5v437q0 44 -32.5 77.5t-76.5 33.5q-47 0 -78 -32.5t-31 -78.5v-493h-372v964q107 -23 186 -90q129 100 295 100q199 0 339 -141t140 -342v-433q0 -201 -140 -342t-339 -141z" />
    <glyph glyph-name="Omacron" unicode="&#x14c;" horiz-adv-x="1593" 
d="M774 1486q206 0 379.5 -101t274 -274.5t100.5 -378.5q0 -152 -59.5 -291t-160 -239.5t-240.5 -160t-294 -59.5q-152 0 -291 59.5t-239.5 160t-160 239.5t-59.5 291q0 154 59.5 293.5t160 240.5t239.5 160.5t291 59.5zM774 368q155 0 262.5 107t107.5 257
q0 153 -107.5 260.5t-262.5 107.5q-150 0 -257 -108t-107 -260q0 -149 107.5 -256.5t256.5 -107.5zM1070 1530h-624v319h624v-319z" />
    <glyph glyph-name="omacron" unicode="&#x14d;" horiz-adv-x="1045" 
d="M505 974q135 0 249.5 -66.5t181.5 -181t67 -249.5q0 -133 -67 -247t-181.5 -180.5t-249.5 -66.5q-133 0 -246.5 66.5t-180 180.5t-66.5 247q0 135 66.5 249.5t180 181t246.5 66.5zM505 352q51 0 89 37.5t38 87.5q0 52 -37.5 88.5t-89.5 36.5q-49 0 -86.5 -37t-37.5 -88
q0 -49 37.5 -87t86.5 -38zM768 1014h-525v310h525v-310z" />
    <glyph glyph-name="Obreve" unicode="&#x14e;" horiz-adv-x="1593" 
d="M774 1486q206 0 379.5 -101t274 -274.5t100.5 -378.5q0 -152 -59.5 -291t-160 -239.5t-240.5 -160t-294 -59.5q-152 0 -291 59.5t-239.5 160t-160 239.5t-59.5 291q0 154 59.5 293.5t160 240.5t239.5 160.5t291 59.5zM774 368q155 0 262.5 107t107.5 257
q0 153 -107.5 260.5t-262.5 107.5q-150 0 -257 -108t-107 -260q0 -149 107.5 -256.5t256.5 -107.5zM462 1789l237 -1q2 -24 22 -38t42.5 -14t42 13.5t21.5 38.5l240 1q-15 -128 -93.5 -196.5t-208.5 -68.5q-132 0 -210 68t-93 197z" />
    <glyph glyph-name="obreve" unicode="&#x14f;" horiz-adv-x="1039" 
d="M505 974q135 0 249.5 -66.5t181.5 -181t67 -249.5q0 -133 -67 -247t-181.5 -180.5t-249.5 -66.5q-133 0 -246.5 66.5t-180 180.5t-66.5 247q0 135 66.5 249.5t180 181t246.5 66.5zM505 352q51 0 89 37.5t38 87.5q0 52 -37.5 88.5t-89.5 36.5q-49 0 -86.5 -37t-37.5 -88
q0 -49 37.5 -87t86.5 -38zM199 1270l237 -1q2 -24 22 -38t42.5 -14t42 13.5t21.5 38.5l240 1q-15 -128 -93.5 -196.5t-208.5 -68.5q-132 0 -210 68t-93 197z" />
    <glyph glyph-name="Odblacute" unicode="&#x150;" horiz-adv-x="1593" 
d="M774 1486q206 0 379.5 -101t274 -274.5t100.5 -378.5q0 -152 -59.5 -291t-160 -239.5t-240.5 -160t-294 -59.5q-152 0 -291 59.5t-239.5 160t-160 239.5t-59.5 291q0 154 59.5 293.5t160 240.5t239.5 160.5t291 59.5zM774 368q155 0 262.5 107t107.5 257
q0 153 -107.5 260.5t-262.5 107.5q-150 0 -257 -108t-107 -260q0 -149 107.5 -256.5t256.5 -107.5zM667 1521h-223l121 280h313zM1040 1521h-226l127 280h306z" />
    <glyph glyph-name="odblacute" unicode="&#x151;" horiz-adv-x="1045" 
d="M505 974q135 0 249.5 -66.5t181.5 -181t67 -249.5q0 -133 -67 -247t-181.5 -180.5t-249.5 -66.5q-133 0 -246.5 66.5t-180 180.5t-66.5 247q0 135 66.5 249.5t180 181t246.5 66.5zM505 352q51 0 89 37.5t38 87.5q0 52 -37.5 88.5t-89.5 36.5q-49 0 -86.5 -37t-37.5 -88
q0 -49 37.5 -87t86.5 -38zM423 1003h-209l114 262h293zM772 1003h-211l119 262h286z" />
    <glyph glyph-name="OE" unicode="&#x152;" horiz-adv-x="2435" 
d="M764 371q154 0 260.5 106t106.5 257q0 152 -106.5 258.5t-260.5 106.5q-150 0 -257 -107t-107 -258q0 -150 107 -256.5t257 -106.5zM2362 358v-358h-518q-154 0 -280.5 84.5t-187.5 221.5q-102 -147 -263.5 -233t-348.5 -86q-152 0 -290 59.5t-238.5 159.5t-159.5 238.5
t-59 289.5q0 152 59 291t159.5 239t238.5 159.5t290 59.5q188 0 349 -85.5t263 -233.5q61 137 187.5 221.5t280.5 84.5h518v-352h-518q-55 0 -95 -39.5t-40 -94.5v-69h653v-357h-653v-66q0 -55 40 -94.5t95 -39.5h518z" />
    <glyph glyph-name="oe" unicode="&#x153;" horiz-adv-x="1813" 
d="M1712 399l-409 -1v42q61 -1 86.5 38t2.5 78t-80 39q-45 0 -77.5 -32.5t-32.5 -77.5q0 -46 33.5 -79t80.5 -31h436v-375h-440q-120 0 -223.5 54.5t-170.5 147.5q-69 -101 -178 -160t-235 -59q-133 0 -246.5 66.5t-180 180.5t-66.5 247q0 135 66.5 249.5t180 181
t246.5 66.5q124 0 231.5 -57.5t176.5 -156.5q66 97 171.5 153.5t227.5 56.5q87 0 164 -21t141.5 -63.5t104.5 -114.5t46 -166q8 -118 -56 -206zM505 365q46 0 80 33.5t34 78.5q0 46 -33.5 79t-80.5 33q-44 0 -77.5 -33t-33.5 -79q0 -44 33.5 -78t77.5 -34z" />
    <glyph glyph-name="Racute" unicode="&#x154;" horiz-adv-x="1294" 
d="M800 1522h-334l154 291h405zM1236 1h-381q0 99 -48 190t-133 148t-182 57h-81v-395h-381v964q0 136 70.5 253.5t189 186t255.5 68.5h178q211 0 362 -151.5t151 -363.5v-86q0 -74 -32 -154.5t-91 -144.5t-128 -84q84 -44 142.5 -127t83.5 -174t25 -187zM857 960
q0 56 -39 96t-95 40h-178q-56 0 -96 -40t-40 -96q0 -37 1 -129t1 -130h312q56 0 95 40.5t39 95.5v123z" />
    <glyph glyph-name="racute" unicode="&#x155;" horiz-adv-x="580" 
d="M435 999h-334l154 291h405zM384 0h-363v490q0 97 35 183t98 150.5t158 102t209 37.5v-363q-68 0 -102.5 -31.5t-34.5 -80.5v-488z" />
    <glyph glyph-name="Rcedilla" unicode="&#x156;" horiz-adv-x="1294" 
d="M1236 1h-381q0 99 -48 190t-133 148t-182 57h-81v-395h-381v964q0 136 70.5 253.5t189 186t255.5 68.5h178q211 0 362 -151.5t151 -363.5v-86q0 -74 -32 -154.5t-91 -144.5t-128 -84q84 -44 142.5 -127t83.5 -174t25 -187zM857 960q0 56 -39 96t-95 40h-178
q-56 0 -96 -40t-40 -96q0 -37 1 -129t1 -130h312q56 0 95 40.5t39 95.5v123zM542 7l-5 -166q23 2 92 3q71 0 72 -33q3 -34 -93 -34q-97 0 -174 19l-22 -183q97 -20 172 -20q188 1 273 66q87 63 86 153q0 79 -76 140q-77 60 -244 60q-33 0 -81 -5z" />
    <glyph glyph-name="rcedilla" unicode="&#x157;" horiz-adv-x="566" 
d="M384 0h-363v490q0 97 35 183t98 150.5t158 102t209 37.5v-363q-68 0 -102.5 -31.5t-34.5 -80.5v-488zM100 -35l-5 -154q19 1 82 3q64 0 65 -31q3 -31 -83 -31q-83 0 -156 17l-20 -169q83 -19 154 -19q167 1 245 61q79 59 77 142q0 73 -68 129t-219 56q-39 0 -72 -4z" />
    <glyph glyph-name="Rcaron" unicode="&#x158;" horiz-adv-x="1294" 
d="M799 1514l-384 -3l-252 291l315 2l128 -137l123 139l317 3zM1236 1h-381q0 99 -48 190t-133 148t-182 57h-81v-395h-381v964q0 136 70.5 253.5t189 186t255.5 68.5h178q211 0 362 -151.5t151 -363.5v-86q0 -74 -32 -154.5t-91 -144.5t-128 -84q84 -44 142.5 -127
t83.5 -174t25 -187zM857 960q0 56 -39 96t-95 40h-178q-56 0 -96 -40t-40 -96q0 -37 1 -129t1 -130h312q56 0 95 40.5t39 95.5v123z" />
    <glyph glyph-name="rcaron" unicode="&#x159;" horiz-adv-x="569" 
d="M504 1006l-332 -3l-217 275l272 2l110 -129l106 131l274 3zM384 0h-363v490q0 97 35 183t98 150.5t158 102t209 37.5v-363q-68 0 -102.5 -31.5t-34.5 -80.5v-488z" />
    <glyph glyph-name="Sacute" unicode="&#x15a;" horiz-adv-x="1234" 
d="M748 1516h-308l142 286h373zM1170 1094l-362 -68q-11 34 -41 58t-67 25h-203q-40 0 -63 -30t-23 -66.5t23 -66.5t63 -30h186q119 0 215.5 -39t157.5 -104t94 -146t35 -169q1 -89 -31 -171t-92.5 -148.5t-157.5 -106.5t-216 -40h-147q-175 0 -317 106.5t-174 272.5l366 68
q11 -34 41 -57.5t67 -26.5h203q40 0 63 30.5t22.5 66.5t-23 66.5t-62.5 30.5h-186q-251 0 -392 157q-112 123 -118 298q-6 170 91 298q111 150 310 169q26 2 53 2h198q175 0 316.5 -106.5t170.5 -272.5z" />
    <glyph glyph-name="sacute" unicode="&#x15b;" horiz-adv-x="808" 
d="M551 986h-283l131 263h343zM755 960v-354h-265l197 -181q50 -45 73 -103t14.5 -113.5t-38.5 -103t-89 -77t-134 -29.5h-488v346h302q-28 22 -89 76t-95 81q-74 59 -101 139.5t-8.5 150.5t84.5 119t163 49h474z" />
    <glyph glyph-name="Scircumflex" unicode="&#x15c;" horiz-adv-x="1238" 
d="M1166 1094l-362 -68q-11 34 -41 58t-67 25h-203q-40 0 -63 -30t-23 -66.5t23 -66.5t63 -30h186q119 0 215.5 -39t157.5 -104t94 -146t35 -169q1 -89 -31 -171t-92.5 -148.5t-157.5 -106.5t-216 -40h-147q-175 0 -317 106.5t-174 272.5l366 68q11 -34 41 -57.5t67 -26.5
h203q40 0 63 30.5t22.5 66.5t-23 66.5t-62.5 30.5h-186q-251 0 -392 157q-112 123 -118 298q-6 170 91 298q111 150 310 169q26 2 53 2h198q175 0 316.5 -106.5t170.5 -272.5zM496 1498h-310l244 321h375l245 -321h-308l-124 151z" />
    <glyph glyph-name="scircumflex" unicode="&#x15d;" horiz-adv-x="803" 
d="M755 960v-354h-265l197 -181q50 -45 73 -103t14.5 -113.5t-38.5 -103t-89 -77t-134 -29.5h-488v346h302q-28 22 -89 76t-95 81q-74 59 -101 139.5t-8.5 150.5t84.5 119t163 49h474zM307 992h-282l222 303h342l222 -303h-280l-113 143z" />
    <glyph glyph-name="Scedilla" unicode="&#x15e;" horiz-adv-x="1246" 
d="M1167 1094l-362 -68q-11 34 -41 58t-67 25h-203q-40 0 -63 -30t-23 -66.5t23 -66.5t63 -30h186q119 0 215.5 -39t157.5 -104t94 -146t35 -169q1 -81 -25.5 -156.5t-77 -139t-130.5 -107.5t-180 -57l-19 -63q118 -9 125 -115q9 -107 -63 -164q-71 -58 -217 -58
q-83 0 -144 12l11 214q62 -50 85 0t-51 55l32 114q-172 3 -311 108.5t-170 269.5l366 68q11 -34 41 -57.5t67 -26.5h203q40 0 63 30.5t22.5 66.5t-23 66.5t-62.5 30.5h-186q-251 0 -392 157q-112 123 -118 298q-6 170 91 298q111 150 310 169q26 2 53 2h198
q175 0 316.5 -106.5t170.5 -272.5z" />
    <glyph glyph-name="scedilla" unicode="&#x15f;" horiz-adv-x="809" 
d="M742 944v-356h-261l194 -170q61 -55 79 -128.5t-5 -137.5t-88 -108.5t-157 -44.5h-43l-11 -33q111 -8 118 -96q8 -90 -60 -137q-68 -48 -205 -48q-79 0 -135 10l10 178q59 -42 80 0q11 21 -1 32.5t-47 13.5l26 80h-212v354h297q-10 8 -181 141q-49 39 -77.5 88.5
t-35.5 99t6.5 97t44 84t82 59t115.5 22.5h467z" />
    <glyph glyph-name="Scaron" unicode="&#x160;" horiz-adv-x="1263" 
d="M1179 1094l-362 -68q-11 34 -41 58t-67 25h-203q-40 0 -63 -30t-23 -66.5t23 -66.5t63 -30h186q119 0 215.5 -39t157.5 -104t94 -146t35 -169q1 -89 -31 -171t-92.5 -148.5t-157.5 -106.5t-216 -40h-147q-175 0 -317 106.5t-174 272.5l366 68q11 -34 41 -57.5t67 -26.5
h203q40 0 63 30.5t22.5 66.5t-23 66.5t-62.5 30.5h-186q-251 0 -392 157q-112 123 -118 298q-6 170 91 298q111 150 310 169q26 2 53 2h198q175 0 316.5 -106.5t170.5 -272.5zM811 1513l-409 -4l-268 290l335 1l136 -137l132 138h337z" />
    <glyph glyph-name="scaron" unicode="&#x161;" horiz-adv-x="823" 
d="M755 960v-354h-265l197 -181q50 -45 73 -103t14.5 -113.5t-38.5 -103t-89 -77t-134 -29.5h-488v346h302q-28 22 -89 76t-95 81q-74 59 -101 139.5t-8.5 150.5t84.5 119t163 49h474zM588 984l-325 -3l-213 261l266 1l109 -123l104 124h268z" />
    <glyph glyph-name="Tcedilla" unicode="&#x162;" horiz-adv-x="1079" 
d="M699 1h-370v1098h-360v366h1090v-366h-360v-1098zM347 -552v205q34 0 58.5 22t24.5 53h-83v222h317v-222q0 -116 -93 -198t-224 -82z" />
    <glyph glyph-name="tcedilla" unicode="&#x163;" horiz-adv-x="572" 
d="M508 364v-371q-98 0 -187 39t-153.5 104t-102.5 155t-38 188v992q132 -32 230 -131t130 -231h116v-371h-106v-262q0 -46 32 -79t79 -33zM196 -552v205q34 0 58.5 22t24.5 53h-83v222h317v-222q0 -116 -93 -198t-224 -82z" />
    <glyph glyph-name="Tcaron" unicode="&#x164;" horiz-adv-x="1251" 
d="M758 1508l-384 -3l-252 291l315 2l128 -137l123 139l317 3zM746 1h-370v1098h-360v366h1090v-366h-360v-1098z" />
    <glyph glyph-name="tcaron" unicode="&#x165;" horiz-adv-x="758" 
d="M517 364v-371q-98 0 -187 39t-153.5 104t-102.5 155t-38 188v992q132 -32 230 -131t130 -231h116v-371h-106v-262q0 -46 32 -79t79 -33zM549 968v205q34 0 58.5 22t24.5 53h-83v222h317v-222q0 -116 -93 -198t-224 -82z" />
    <glyph glyph-name="Tbar" unicode="&#x166;" horiz-adv-x="1100" 
d="M713 1h-370v492h-217v250h217v356h-360v366h1090v-366h-360v-356h227v-250h-227v-492z" />
    <glyph glyph-name="tbar" unicode="&#x167;" horiz-adv-x="569" 
d="M517 364v-371q-98 0 -187 39t-153.5 104t-102.5 155t-38 188v14h-92v203h92v775q132 -32 230 -131t130 -231h116v-334h-106v-79h111v-203h-111v-17q0 -46 32 -79t79 -33z" />
    <glyph glyph-name="Utilde" unicode="&#x168;" horiz-adv-x="1337" 
d="M538 1q-214 0 -360 143.5t-146 356.5v967h373v-967q0 -50 33.5 -85.5t82.5 -39.5h236q49 4 82.5 39.5t33.5 85.5v967h373v-967q0 -213 -146 -356.5t-360 -143.5h-202zM849 1806l162 -80q-52 -146 -155.5 -211.5t-218.5 -8.5q-35 16 -51 26t-44 24q-34 16 -75.5 2.5
t-54.5 -49.5l-163 82q52 145 158 209.5t220 6.5q24 -11 35 -16t15 -7.5t16.5 -9.5t32.5 -17q33 -15 71.5 -1t51.5 50z" />
    <glyph glyph-name="utilde" unicode="&#x169;" horiz-adv-x="1051" 
d="M502 351q-45 0 -77.5 33t-32.5 77v499h-370v-490q0 -199 139.5 -340t339.5 -142q132 0 244 64.5t177.5 176t65.5 241.5v490h-370v-499q0 -44 -33.5 -77t-82.5 -33zM680 1336l139 -80q-44 -146 -133.5 -211.5t-189.5 -8.5q-30 16 -43.5 25.5t-38.5 24.5q-29 16 -64.5 2.5
t-47.5 -49.5l-141 82q45 145 136.5 209.5t190.5 6.5q12 -6 85 -50q29 -15 62 -1t45 50z" />
    <glyph glyph-name="Umacron" unicode="&#x16a;" horiz-adv-x="1337" 
d="M538 1q-214 0 -360 143.5t-146 356.5v967h373v-967q0 -50 33.5 -85.5t82.5 -39.5h236q49 4 82.5 39.5t33.5 85.5v967h373v-967q0 -213 -146 -356.5t-360 -143.5h-202zM945 1514h-624v319h624v-319z" />
    <glyph glyph-name="umacron" unicode="&#x16b;" horiz-adv-x="1051" 
d="M502 351q49 0 82.5 33t33.5 77v499h370v-490q0 -130 -65.5 -241.5t-177.5 -176t-244 -64.5q-200 1 -339.5 142t-139.5 340v490h370v-499q0 -44 32.5 -77t77.5 -33zM796 1021h-584v293h584v-293z" />
    <glyph glyph-name="Ubreve" unicode="&#x16c;" horiz-adv-x="1337" 
d="M538 1q-214 0 -360 143.5t-146 356.5v967h373v-967q0 -50 33.5 -85.5t82.5 -39.5h236q49 4 82.5 39.5t33.5 85.5v967h373v-967q0 -213 -146 -356.5t-360 -143.5h-202zM344 1774l237 -1q2 -24 22 -38t42.5 -14t42 13.5t21.5 38.5l240 1q-15 -128 -93.5 -196.5
t-208.5 -68.5q-132 0 -210 68t-93 197z" />
    <glyph glyph-name="ubreve" unicode="&#x16d;" horiz-adv-x="1051" 
d="M502 351q49 0 82.5 33t33.5 77v499h370v-490q0 -130 -65.5 -241.5t-177.5 -176t-244 -64.5q-200 1 -339.5 142t-139.5 340v490h370v-499q0 -44 32.5 -77t77.5 -33zM201 1260l237 -1q2 -24 22 -38t42.5 -14t42 13.5t21.5 38.5l240 1q-15 -128 -93.5 -196.5t-208.5 -68.5
q-132 0 -210 68t-93 197z" />
    <glyph glyph-name="Uring" unicode="&#x16e;" horiz-adv-x="1337" 
d="M538 1q-214 0 -360 143.5t-146 356.5v967h373v-967q0 -50 33.5 -85.5t82.5 -39.5h236q49 4 82.5 39.5t33.5 85.5v967h373v-967q0 -213 -146 -356.5t-360 -143.5h-202zM426 1678q0 92 66 156q68 65 157 65q91 0 157 -66t66 -160q0 -97 -66 -161q-67 -65 -156 -65
q-92 0 -158 66t-66 165zM614 1675q0 -16 11 -27.5t26 -11.5t26 11.5t11 26.5q0 16 -10.5 27t-26.5 11q-15 0 -26 -10.5t-11 -26.5z" />
    <glyph glyph-name="uring" unicode="&#x16f;" horiz-adv-x="1051" 
d="M502 351q49 0 82.5 33t33.5 77v499h370v-490q0 -130 -65.5 -241.5t-177.5 -176t-244 -64.5q-200 1 -339.5 142t-139.5 340v490h370v-499q0 -44 32.5 -77t77.5 -33zM298 1175q0 81 59 140q61 59 141 59q82 0 141 -60q59 -59 59 -143q0 -86 -59 -145q-58 -58 -140 -58
q-83 0 -142 59q-59 61 -59 148zM467 1173q0 -15 9.5 -25t23.5 -10t23.5 10t9.5 24t-9.5 24t-23.5 10t-23.5 -9.5t-9.5 -23.5z" />
    <glyph glyph-name="Udblacute" unicode="&#x170;" horiz-adv-x="1337" 
d="M538 1q-214 0 -360 143.5t-146 356.5v967h373v-967q0 -50 33.5 -85.5t82.5 -39.5h236q49 4 82.5 39.5t33.5 85.5v967h373v-967q0 -213 -146 -356.5t-360 -143.5h-202zM526 1512h-223l121 280h313zM899 1512h-226l127 280h306z" />
    <glyph glyph-name="udblacute" unicode="&#x171;" horiz-adv-x="1051" 
d="M502 351q49 0 82.5 33t33.5 77v499h370v-490q0 -130 -65.5 -241.5t-177.5 -176t-244 -64.5q-200 1 -339.5 142t-139.5 340v490h370v-499q0 -44 32.5 -77t77.5 -33zM391 1002h-202l110 251h284zM730 1002h-205l115 251h278z" />
    <glyph glyph-name="Uogonek" unicode="&#x172;" horiz-adv-x="1338" 
d="M514 -149q-4 59 22 150q-214 0 -359 143.5t-145 356.5v967h373v-967q0 -50 33.5 -85.5t82.5 -39.5h236q49 4 82.5 39.5t33.5 85.5v967h373v-967q0 -138 -65 -251.5t-178 -179.5t-250 -69q-4 -85 37 -116q70 -51 168 -4v-191q-62 -41 -187 -42q-127 -3 -189 49
q-62 53 -68 154z" />
    <glyph glyph-name="uogonek" unicode="&#x173;" horiz-adv-x="1051" 
d="M502 351q49 0 82.5 33t33.5 77v499h370v-490q0 -113 -50 -212t-136 -166l5 -1q-5 -66 38 -97q70 -50 119 -4v-191q-72 -55 -172 -44q-104 10 -160.5 58.5t-62.5 146.5q-1 16 0 33q-37 -5 -68 -5q-200 1 -339.5 142t-139.5 340v490h370v-499q0 -44 32.5 -77t77.5 -33z" />
    <glyph glyph-name="Wcircumflex" unicode="&#x174;" horiz-adv-x="1887" 
d="M1447 1467h374v-779q0 -91 -16 -146.5t-66 -122.5l-313 -418h-296l-206 277l-208 -277h-296l-311 418q-50 67 -66 122.5t-16 146.5v779h374v-781q0 -59 17 -86l149 -225l153 225q17 29 17 86v781h374v-785q0 -56 17 -82l151 -225l151 225q17 27 17 86v781zM783 1501h-347
l273 359h420l273 -359h-344l-139 169z" />
    <glyph glyph-name="wcircumflex" unicode="&#x175;" horiz-adv-x="1646" 
d="M1216 962h374v-475q0 -93 -34.5 -179t-98.5 -151l-157 -157h-367l-124 144l-122 -144h-370l-159 157q-63 66 -97.5 152t-34.5 178v475h376v-516q0 -24 13 -49t22 -36t40 -40.5t33 -31.5q6 6 34.5 32.5t39.5 39t24 37t13 48.5v516h374v-516q0 -24 13 -48.5t24 -37
t39.5 -39t34.5 -32.5q7 7 34 32.5t39 39t24.5 37.5t12.5 48v516zM676 997h-333l262 341h403l262 -341h-330l-133 160z" />
    <glyph glyph-name="Ycircumflex" unicode="&#x176;" horiz-adv-x="1313" 
d="M832 1h-366v564l-324 346q-104 111 -104 298v257h372v-280q0 -52 27 -82l211 -234l211 234q28 31 28 82v280h373v-257q0 -187 -104 -298l-324 -346v-564zM510 1497h-347l273 359h420l273 -359h-344l-139 169z" />
    <glyph glyph-name="ycircumflex" unicode="&#x177;" horiz-adv-x="1048" 
d="M495 -78v-347q94 0 183.5 38.5t156 103t106.5 153.5t40 185v905h-371v-510q0 -45 -31 -77t-78 -32q-45 0 -77 32t-32 77v510h-370v-488q0 -97 38 -186.5t101.5 -154.5t152.5 -104t187 -39q80 0 136 41q-5 -45 -46.5 -76t-95.5 -31zM386 1003h-347l273 359h420l273 -359
h-344l-139 169z" />
    <glyph glyph-name="Ydieresis" unicode="&#x178;" horiz-adv-x="1341" 
d="M402 1836v-312h-369v312h369zM1256 1836v-312h-369v312h369zM827 1h-366v564l-324 346q-104 111 -104 298v257h372v-280q0 -52 27 -82l211 -234l211 234q28 31 28 82v280h373v-257q0 -187 -104 -298l-324 -346v-564z" />
    <glyph glyph-name="Zacute" unicode="&#x179;" horiz-adv-x="1251" 
d="M755 1516h-308l142 286h373zM1185 371v-370h-1174v160q0 104 20 176.5t81 138.5q97 103 287.5 310.5t289.5 313.5h-638v367h1153v-159q0 -98 -18.5 -169.5t-73.5 -129.5q-106 -114 -301.5 -327t-286.5 -311h661z" />
    <glyph glyph-name="zacute" unicode="&#x17a;" horiz-adv-x="870" 
d="M561 997h-308l142 286h373zM803 375v-373h-784v167l250 427h-250v367h792v-113l-270 -475h262z" />
    <glyph glyph-name="Zdot" unicode="&#x17b;" horiz-adv-x="1240" 
d="M1185 371v-370h-1174v160q0 104 20 176.5t81 138.5q97 103 287.5 310.5t289.5 313.5h-638v367h1153v-159q0 -98 -18.5 -169.5t-73.5 -129.5q-106 -114 -301.5 -327t-286.5 -311h661zM807 1505h-325v326h325v-326z" />
    <glyph glyph-name="zdot" unicode="&#x17c;" horiz-adv-x="883" 
d="M803 375v-373h-784v167l250 427h-250v367h792v-113l-270 -475h262zM596 1002h-293v294h293v-294z" />
    <glyph glyph-name="Zcaron" unicode="&#x17d;" horiz-adv-x="1251" 
d="M1185 371v-370h-1174v160q0 104 20 176.5t81 138.5q97 103 287.5 310.5t289.5 313.5h-638v367h1153v-159q0 -98 -18.5 -169.5t-73.5 -129.5q-106 -114 -301.5 -327t-286.5 -311h661zM863 1503l-432 -3l-282 332l353 1l144 -157l139 159h357z" />
    <glyph glyph-name="zcaron" unicode="&#x17e;" horiz-adv-x="921" 
d="M803 375v-373h-784v167l250 427h-250v367h792v-113l-270 -475h262zM605 989l-339 -4l-222 286l278 1l112 -135l109 136h280z" />
    <glyph glyph-name="longs" unicode="&#x17f;" horiz-adv-x="535" 
d="M388 1011v-1009h-368v1009q0 126 66.5 234t176.5 170.5t235 62.5v-371q-46 0 -78 -27t-32 -69z" />
    <glyph glyph-name="uni018F" unicode="&#x18f;" horiz-adv-x="1560" 
d="M30 912h1043q-48 84 -132.5 134t-184.5 50q-131 0 -235 -86h-459q84 209 273 339t421 130q152 0 290.5 -59.5t238.5 -159.5t159.5 -238.5t59.5 -290.5t-59.5 -290.5t-159.5 -238.5t-238.5 -159.5t-290.5 -59.5t-290.5 59.5t-238.5 159.5t-159.5 238.5t-59.5 290.5
q0 90 22 181zM1087 574h-662q44 -101 133 -156.5t198 -55.5q110 0 198 54.5t133 157.5z" />
    <glyph glyph-name="uni018F" unicode="&#x4d8;" horiz-adv-x="1560" 
d="M30 912h1043q-48 84 -132.5 134t-184.5 50q-131 0 -235 -86h-459q84 209 273 339t421 130q152 0 290.5 -59.5t238.5 -159.5t159.5 -238.5t59.5 -290.5t-59.5 -290.5t-159.5 -238.5t-238.5 -159.5t-290.5 -59.5t-290.5 59.5t-238.5 159.5t-159.5 238.5t-59.5 290.5
q0 90 22 181zM1087 574h-662q44 -101 133 -156.5t198 -55.5q110 0 198 54.5t133 157.5z" />
    <glyph glyph-name="florin" unicode="&#x192;" horiz-adv-x="688" 
d="M605 1480v-362q-44 0 -75 -31.5t-31 -75.5v-98h79v-359h-79v-438q0 -191 -138.5 -330t-328.5 -139v362q44 0 74 30t32 75v440h-79v359h79v95q0 194 136.5 333t330.5 139z" />
    <glyph glyph-name="Ohorn" unicode="&#x1a0;" horiz-adv-x="1699" 
d="M1395 1485h308v-244q0 -102 -61.5 -183.5t-157.5 -110.5q31 -105 31 -215q0 -152 -59.5 -291t-160 -239.5t-240.5 -160t-294 -59.5q-152 0 -291 59.5t-239.5 160t-160 239.5t-59.5 291q0 154 59.5 293.5t160 240.5t239.5 160.5t291 59.5q197 0 364.5 -93t269.5 -252v18
q34 0 57.5 24t23.5 58h-81v244zM761 368q155 0 262.5 107t107.5 257q0 153 -107.5 260.5t-262.5 107.5q-150 0 -257 -108t-107 -260q0 -149 107.5 -256.5t256.5 -107.5z" />
    <glyph glyph-name="ohorn" unicode="&#x1a1;" horiz-adv-x="1221" 
d="M909 1085h308v-244q0 -102 -61.5 -183.5t-157.5 -110.5q5 -38 5 -70q0 -133 -67 -247t-181.5 -180.5t-249.5 -66.5q-133 0 -246.5 66.5t-180 180.5t-66.5 247q0 135 66.5 249.5t180 181t246.5 66.5q125 0 232.5 -58t176.5 -157q32 2 54 26t22 56h-81v244zM505 337
q57 0 99.5 42.5t42.5 97.5q0 58 -42 99t-100 41q-55 0 -97 -41t-42 -99q0 -55 42.5 -97.5t96.5 -42.5z" />
    <glyph glyph-name="Uhorn" unicode="&#x1af;" horiz-adv-x="1664" 
d="M1329 1464h293v-244q0 -133 -101.5 -238.5t-268.5 -111.5v-1l-1 -368q-2 -124 -55 -228t-144 -173l-1 -5q-139 -94 -302 -94h-215q-214 0 -360 143.5t-146 356.5v967h373v-967q0 -50 33.5 -85.5t82.5 -39.5h244q48 0 82.5 37.5t34.5 87.5v233l2 1v733h377
q-1 -126 -1 -376q50 -5 100 40t39 88h-66v244z" />
    <glyph glyph-name="uhorn" unicode="&#x1b0;" horiz-adv-x="1367" 
d="M504 -9q-132 0 -243 64t-175 174.5t-64 240.5v490h370v-492q0 -44 33 -77t78 -33t77 32.5t32 77.5v492h371v-328q52 -10 93.5 22t38.5 82h-81v244h308v-244q0 -129 -96.5 -222.5t-262.5 -101.5q0 -60 -13 -115.5t-47 -112.5t-86.5 -98.5t-138 -68t-194.5 -26.5z" />
    <glyph glyph-name="uni01CD" unicode="&#x1cd;" horiz-adv-x="1356" 
d="M844 1515l-384 -3l-252 291l315 2l128 -137l123 139l317 3zM1279 0h-384v341h-474v-341h-382v959q0 140 69.5 259t189 188.5t258.5 69.5h204q104 0 200 -41t166 -110t111.5 -165t41.5 -201v-959zM556 1097q-56 0 -95.5 -40.5t-39.5 -97.5v-231h474v231q0 57 -39 97.5
t-96 40.5h-204z" />
    <glyph glyph-name="uni01CE" unicode="&#x1ce;" horiz-adv-x="1070" 
d="M692 997l-344 -3l-225 281l282 2l114 -132l110 134l284 1zM1005 480v-487q-164 38 -273 175.5t-106 307.5q3 46 -29 80t-79 34q-45 0 -77.5 -33t-32.5 -77q0 -46 32.5 -79t77.5 -33q53 0 78 37q25 -191 186 -335q-127 -77 -264 -77q-129 0 -241 64t-180 177t-68 246
q0 203 143 346t346 143q99 0 189 -38.5t155.5 -104t104 -156t38.5 -190.5z" />
    <glyph glyph-name="uni01CF" unicode="&#x1cf;" horiz-adv-x="574" 
d="M422 1516l-344 -3l-225 281l282 2l114 -132l110 134l284 3zM452 0h-385v1468h385v-1468z" />
    <glyph glyph-name="uni01D0" unicode="&#x1d0;" horiz-adv-x="542" 
d="M422 1037l-344 -3l-225 281l282 2l114 -132l110 134l284 3zM437 0h-374v962h374v-962z" />
    <glyph glyph-name="uni01D1" unicode="&#x1d1;" horiz-adv-x="1584" 
d="M968 1522l-356 -3l-233 308l292 3l118 -145l114 147l294 3zM774 1486q206 0 379.5 -101t274 -274.5t100.5 -378.5q0 -152 -59.5 -291t-160 -239.5t-240.5 -160t-294 -59.5q-152 0 -291 59.5t-239.5 160t-160 239.5t-59.5 291q0 154 59.5 293.5t160 240.5t239.5 160.5
t291 59.5zM774 368q155 0 262.5 107t107.5 257q0 153 -107.5 260.5t-262.5 107.5q-150 0 -257 -108t-107 -260q0 -149 107.5 -256.5t256.5 -107.5z" />
    <glyph glyph-name="uni01D2" unicode="&#x1d2;" horiz-adv-x="1048" 
d="M674 1004l-337 -3l-221 292l277 3l111 -138l108 140l279 2zM505 974q135 0 249.5 -66.5t181.5 -181t67 -249.5q0 -133 -67 -247t-181.5 -180.5t-249.5 -66.5q-133 0 -246.5 66.5t-180 180.5t-66.5 247q0 135 66.5 249.5t180 181t246.5 66.5zM505 352q51 0 89 37.5
t38 87.5q0 52 -37.5 88.5t-89.5 36.5q-49 0 -86.5 -37t-37.5 -88q0 -49 37.5 -87t86.5 -38z" />
    <glyph glyph-name="uni01D3" unicode="&#x1d3;" horiz-adv-x="1335" 
d="M825 1487l-356 -3l-233 308l292 3l118 -145l114 147l294 3zM538 1q-214 0 -360 143.5t-146 356.5v967h373v-967q0 -50 33.5 -85.5t82.5 -39.5h236q49 4 82.5 39.5t33.5 85.5v967h373v-967q0 -213 -146 -356.5t-360 -143.5h-202z" />
    <glyph glyph-name="uni01D4" unicode="&#x1d4;" horiz-adv-x="1053" 
d="M671 1003l-356 -3l-233 308h292l118 -142l114 151l294 -1zM502 351q-45 0 -77.5 33t-32.5 77v499h-370v-490q0 -199 139.5 -340t339.5 -142q132 0 244 64.5t177.5 176t65.5 241.5v490h-370v-499q0 -44 -33.5 -77t-82.5 -33z" />
    <glyph glyph-name="uni01D5" unicode="&#x1d5;" horiz-adv-x="1337" 
d="M888 1678v-182h-191v182h191zM576 1678v-182h-191v182h191zM888 1979v-253h-516v253h516zM538 1q-214 0 -360 143.5t-146 356.5v967h373v-967q0 -50 33.5 -85.5t82.5 -39.5h236q49 4 82.5 39.5t33.5 85.5v967h373v-967q0 -213 -146 -356.5t-360 -143.5h-202z" />
    <glyph glyph-name="uni01D6" unicode="&#x1d6;" horiz-adv-x="1056" 
d="M804 1179v-182h-226v182h226zM435 1179v-182h-226v182h226zM804 1467v-240h-593v240h593zM507 351q49 0 82.5 33t33.5 77v499h370v-490q0 -130 -65.5 -241.5t-177.5 -176t-244 -64.5q-200 1 -339.5 142t-139.5 340v490h370v-499q0 -44 32.5 -77t77.5 -33z" />
    <glyph glyph-name="uni01D7" unicode="&#x1d7;" horiz-adv-x="1338" 
d="M896 1655v-167h-195v167h195zM594 1655v-167h-195v167h195zM778 1675h-263l142 286h328zM538 1q-214 0 -360 143.5t-146 356.5v967h373v-967q0 -50 33.5 -85.5t82.5 -39.5h236q49 4 82.5 39.5t33.5 85.5v967h373v-967q0 -213 -146 -356.5t-360 -143.5h-202z" />
    <glyph glyph-name="uni01D8" unicode="&#x1d8;" horiz-adv-x="1047" 
d="M755 1169v-174h-195v174h195zM453 1169v-174h-195v174h195zM623 1189h-248l142 286h313zM502 351q49 0 82.5 33t33.5 77v499h370v-490q0 -130 -65.5 -241.5t-177.5 -176t-244 -64.5q-200 1 -339.5 142t-139.5 340v490h370v-499q0 -44 32.5 -77t77.5 -33z" />
    <glyph glyph-name="uni01D9" unicode="&#x1d9;" horiz-adv-x="1338" 
d="M935 1487v193h-193v-193h193zM824 1706l-324 -3l-212 265l266 2l107 -124l104 126l267 3zM580 1487v193h-212v-193h212zM538 1q-214 0 -360 143.5t-146 356.5v967h373v-967q0 -50 33.5 -85.5t82.5 -39.5h236q49 4 82.5 39.5t33.5 85.5v967h373v-967q0 -213 -146 -356.5
t-360 -143.5h-202z" />
    <glyph glyph-name="uni01DA" unicode="&#x1da;" horiz-adv-x="1048" 
d="M773 991v193h-193v-193h193zM648 1217l-306 -3l-200 250l251 2l101 -118l98 122h252zM418 991v193h-212v-193h212zM502 351q-45 0 -77.5 33t-32.5 77v499h-370v-490q0 -199 139.5 -340t339.5 -142q132 0 244 64.5t177.5 176t65.5 241.5v490h-370v-499q0 -44 -33.5 -77
t-82.5 -33z" />
    <glyph glyph-name="uni01DB" unicode="&#x1db;" horiz-adv-x="1338" 
d="M411 1488v167h195v-167h-195zM713 1488v167h195v-167h-195zM808 1675h-275l-207 286h340zM538 1q-214 0 -360 143.5t-146 356.5v967h373v-967q0 -50 33.5 -85.5t82.5 -39.5h236q49 4 82.5 39.5t33.5 85.5v967h373v-967q0 -213 -146 -356.5t-360 -143.5h-202z" />
    <glyph glyph-name="uni01DC" unicode="&#x1dc;" horiz-adv-x="1050" 
d="M254 989v167h195v-167h-195zM556 989v167h195v-167h-195zM651 1176h-258l-194 268h319zM502 351q-45 0 -77.5 33t-32.5 77v499h-370v-490q0 -199 139.5 -340t339.5 -142q132 0 244 64.5t177.5 176t65.5 241.5v490h-370v-499q0 -44 -33.5 -77t-82.5 -33z" />
    <glyph glyph-name="Aringacute" unicode="&#x1fa;" horiz-adv-x="1349" 
d="M573 1820h-76l142 249h176l-173 -234h6q12 0 18 -1l171 235h175l-207 -249h-81q34 -15 63 -44q58 -58 58 -141q0 -84 -58 -142q-11 -11 -21 -18q207 -7 354.5 -157.5t147.5 -358.5v-959h-182v959q0 141 -98.5 239.5t-238.5 98.5h-204q-139 0 -238 -99t-99 -239v-959h-180
v959q0 138 67.5 255.5t183.5 187.5t252 73q-14 12 -21 19q-58 58 -58 146q0 79 58 137q28 28 63 43zM1066 548h-838v411q0 131 94 225t223 94h204q131 0 224 -93.5t93 -225.5v-411zM884 341h-474v-341h-182v525h838v-525h-182v341zM545 1097q-56 0 -95.5 -40.5t-39.5 -97.5
v-231h474v231q0 57 -39 97.5t-96 40.5h-204zM615 1637q0 -16 10 -27t26 -11q15 0 25.5 11t10.5 26q0 16 -10.5 26.5t-25.5 10.5q-16 0 -26 -10t-10 -26z" />
    <glyph glyph-name="aringacute" unicode="&#x1fb;" horiz-adv-x="1069" 
d="M482 1137q0 -16 10 -26.5t24 -10.5q15 0 25 10.5t10 25.5q0 14 -10 24.5t-25 10.5q-14 0 -24 -10t-10 -24zM640 1353h-274l120 253h339zM326 1139q0 76 56 132t132 56q78 0 133 -57q56 -56 56 -135q0 -81 -56 -137q-21 -21 -49 -36q175 -29 291 -165t116 -317v-487
q-164 38 -273 175.5t-106 307.5q3 46 -29 80t-79 34q-45 0 -77.5 -33t-32.5 -77q0 -46 32.5 -79t77.5 -33q54 0 79 37q28 -205 187 -335q-127 -77 -266 -77q-129 0 -241 64t-180 177t-68 246q0 180 114.5 315.5t288.5 165.5q-26 13 -51 38q-55 55 -55 140z" />
    <glyph glyph-name="AEacute" unicode="&#x1fc;" horiz-adv-x="2008" 
d="M1127 1917l392 -167l-289 -244h-324zM757 1101h-205q-58 0 -96.5 -39.5t-38.5 -92.5v-240h477v240q0 52 -41 92t-96 40zM1931 1468v-373h-525q-52 0 -92 -40.5t-40 -94.5v-40h657v-380h-657v-31q0 -59 39.5 -101t92.5 -42h525v-365h-525q-144 0 -259 65v-65h-253v340
h-477v-340h-388v968q0 140 70.5 260.5t191 191t261.5 70.5h205q68 0 135 -17.5t125 -58.5t80 -98q35 82 120 116.5t189 34.5h525z" />
    <glyph glyph-name="aeacute" unicode="&#x1fd;" horiz-adv-x="1614" 
d="M1511 414l-409 -1v42q61 -1 86 34t2 70.5t-80 35.5q-45 0 -77.5 -32.5t-32.5 -77.5q0 -46 33.5 -79t80.5 -31h436v-375h-440q-52 0 -105 11q-18 4 -27 7q-155 43 -254 172.5t-99 294.5v13q-6 39 -36.5 65.5t-70.5 26.5q-45 0 -77.5 -33t-32.5 -77q0 -46 32.5 -79
t77.5 -33q54 0 79 37q29 -206 187 -335q-127 -77 -266 -77q-129 0 -241 64t-180 177t-68 246q0 203 143 346t346 143q164 0 293 -102q130 103 299 103q87 0 164 -21t141.5 -63.5t104.5 -114.5t46 -166q8 -116 -55 -191zM853 1372l343 -153l-253 -225h-282z" />
    <glyph glyph-name="Oslashacute" unicode="&#x1fe;" horiz-adv-x="1578" 
d="M921 1519h-308l142 286h373zM404 -80h-381l189 318q-89 100 -138 227t-49 265q0 152 59 290t159 238t238 159t289 59q128 0 245 -42l85 141h381l-186 -314q105 -102 163.5 -239.5t58.5 -291.5q0 -151 -59 -289t-159 -238t-238.5 -159t-290.5 -59t-292 58zM770 367
q153 0 259.5 106t106.5 257t-106.5 257.5t-259.5 106.5q-149 0 -255.5 -106.5t-106.5 -257.5q0 -150 106.5 -256.5t255.5 -106.5z" />
    <glyph glyph-name="oslashacute" unicode="&#x1ff;" horiz-adv-x="1057" 
d="M440 -78h-364l87 208q-67 68 -105 158t-38 189q0 135 66.5 249.5t180 181t246.5 66.5q23 0 34 -1l28 65h363l-84 -200q74 -70 115.5 -163t41.5 -198q0 -133 -67 -247t-181.5 -180.5t-249.5 -66.5q-23 0 -47 3zM513 344q54 0 94.5 40t40.5 93q0 55 -40 94t-95 39
q-53 0 -92.5 -39t-39.5 -94q0 -52 40 -92.5t92 -40.5zM678 1062h-282l130 262h342z" />
    <glyph glyph-name="uni0259" unicode="&#x259;" horiz-adv-x="1009" 
d="M493 770q116 0 198.5 -80t87.5 -195h-571q4 115 87 195t198 80zM208 475h571q-5 -115 -87.5 -195.5t-198.5 -80.5q-115 0 -198 80.5t-87 195.5zM493 968q200 0 341.5 -141.5t141.5 -341.5t-141.5 -341.5t-341.5 -141.5q-131 0 -242 64.5t-175.5 176t-64.5 242.5v10h175
v-10q0 -127 90 -217t217 -90q128 0 218 90t90 217t-90 217t-218 90q-102 0 -183 -60.5t-110 -156.5h-181q32 169 165 281t309 112z" />
    <glyph glyph-name="uni0259" unicode="&#x4d9;" horiz-adv-x="1009" 
d="M493 770q116 0 198.5 -80t87.5 -195h-571q4 115 87 195t198 80zM208 475h571q-5 -115 -87.5 -195.5t-198.5 -80.5q-115 0 -198 80.5t-87 195.5zM493 968q200 0 341.5 -141.5t141.5 -341.5t-141.5 -341.5t-341.5 -141.5q-131 0 -242 64.5t-175.5 176t-64.5 242.5v10h175
v-10q0 -127 90 -217t217 -90q128 0 218 90t90 217t-90 217t-218 90q-102 0 -183 -60.5t-110 -156.5h-181q32 169 165 281t309 112z" />
    <glyph glyph-name="circumflex" unicode="&#x2c6;" horiz-adv-x="989" 
d="M322 1102h-347l273 359h420l273 -359h-344l-139 169z" />
    <glyph glyph-name="caron" unicode="&#x2c7;" horiz-adv-x="1027" 
d="M720 1102l-420 -4l-275 362l344 1l140 -171l135 173h347z" />
    <glyph glyph-name="overscore.001" unicode="&#x2c9;" horiz-adv-x="717" 
d="M659 1158h-624v319h624v-319z" />
    <glyph glyph-name="breve" unicode="&#x2d8;" horiz-adv-x="727" 
d="M39 1467l237 -1q2 -24 22 -38t42.5 -14t42 13.5t21.5 38.5l240 1q-15 -128 -93.5 -196.5t-208.5 -68.5q-132 0 -210 68t-93 197z" />
    <glyph glyph-name="dotaccent" unicode="&#x2d9;" horiz-adv-x="682" 
d="M503 1143h-325v326h325v-326z" />
    <glyph glyph-name="ring" unicode="&#x2da;" horiz-adv-x="682" 
d="M142 1338q0 81 59 140q61 59 141 59q82 0 141 -60q59 -59 59 -143q0 -86 -59 -145q-58 -58 -140 -58q-83 0 -142 59q-59 61 -59 148zM311 1336q0 -15 9.5 -25t23.5 -10t23.5 10t9.5 24t-9.5 24t-23.5 10t-23.5 -9.5t-9.5 -23.5z" />
    <glyph glyph-name="ogonek" unicode="&#x2db;" horiz-adv-x="682" 
d="M247 24h193q-56 -145 13 -194q70 -51 168 -4v-191q-62 -41 -187 -42q-127 -3 -189 49q-62 53 -68 154q-5 103 70 228z" />
    <glyph glyph-name="tilde" unicode="&#x2dc;" horiz-adv-x="792" 
d="M597 1450l162 -80q-52 -146 -155.5 -211.5t-218.5 -8.5q-35 16 -51 26t-44 24q-34 16 -75.5 2.5t-54.5 -49.5l-163 82q52 145 158 209.5t220 6.5q24 -11 35 -16t15 -7.5t16.5 -9.5t32.5 -17q33 -15 71.5 -1t51.5 50z" />
    <glyph glyph-name="hungarumlaut" unicode="&#x2dd;" horiz-adv-x="903" 
d="M281 1194h-223l121 280h313zM654 1194h-226l127 280h306z" />
    <glyph glyph-name="combininggraveaccent" unicode="&#x300;" horiz-adv-x="0" 
d="M-44 1506h-272l-244 241l330 162z" />
    <glyph glyph-name="combiningacuteaccent" unicode="&#x301;" horiz-adv-x="0" 
d="M-197 1506h-272l186 403l330 -162z" />
    <glyph glyph-name="combiningtildeaccent" unicode="&#x303;" horiz-adv-x="0" 
d="M-781 1523l-163 82q52 145 158 209.5t220 6.5q24 -11 35 -16t15 -7.5t16.5 -9.5t32.5 -17q33 -15 71.5 -1t51.5 50l162 -80q-52 -146 -155.5 -211.5t-218.5 -8.5q-35 16 -51 26t-44 24q-34 16 -75.5 2.5t-54.5 -49.5z" />
    <glyph glyph-name="combininghookabove" unicode="&#x309;" horiz-adv-x="0" 
d="M-471 1642q97 14 69 54q-29 41 -98 8l33 132q69 26 162 26q165 0 237 -45.5t43 -129.5q-30 -82 -167 -90l18 -84h-275z" />
    <glyph glyph-name="combiningdotbelow" unicode="&#x323;" horiz-adv-x="0" 
d="M-519 -385h-324v324h324v-324z" />
    <glyph glyph-name="semicolon.001" unicode="&#x37e;" horiz-adv-x="552" 
d="M45 -381v307q46 0 78 32.5t32 78.5h-110v331h409v-331q0 -173 -118.5 -295.5t-290.5 -122.5zM448 1076v-338h-399v338h399z" />
    <glyph glyph-name="tonos" unicode="&#x384;" horiz-adv-x="682" 
d="M411 1145h-256l175 380l311 -153z" />
    <glyph glyph-name="dieresistonos" unicode="&#x385;" horiz-adv-x="1177" 
d="M1125 1414v-303h-338v303h338zM337 1414v-303h-318v303h318zM549 1511l325 -173l-240 -256h-268z" />
    <glyph glyph-name="Alphatonos" unicode="&#x386;" horiz-adv-x="1373" 
d="M1293 0h-384v354h-474v-354h-382v959q0 140 69.5 259t189 188.5t258.5 69.5h204q104 0 200 -41t166 -110t111.5 -165t41.5 -201v-959zM570 1097q-56 0 -95.5 -40.5t-39.5 -97.5v-257h474v257q0 57 -39 97.5t-96 40.5h-204zM-96 1554l315 -141l-229 -262h-272z" />
    <glyph glyph-name="anoteleia" unicode="&#x387;" horiz-adv-x="592" 
d="M487 716h-398v398h398v-398z" />
    <glyph glyph-name="Epsilontonos" unicode="&#x388;" horiz-adv-x="1148" 
d="M1066 -1v364h-517q-55 0 -94.5 39.5t-39.5 94.5v56h651v360h-651v63q0 55 39.5 94.5t94.5 39.5h517v355h-517q-137 0 -254 -68.5t-185.5 -186t-68.5 -255.5v-448q0 -136 68.5 -253t186 -186t253.5 -69h517zM-122 1546l330 -162l-244 -241h-272z" />
    <glyph glyph-name="Etatonos" unicode="&#x389;" horiz-adv-x="1402" 
d="M461 0h-382v1321l-201 -198h-272l186 403l287 -141v91q166 -47 274 -185.5t108 -312.5v-167h492v665q166 -47 273.5 -185.5t107.5 -312.5v-978h-381v427h-492v-427z" />
    <glyph glyph-name="Iotatonos" unicode="&#x38a;" horiz-adv-x="534" 
d="M446 0h-385v1324l-204 -201h-272l186 403l290 -143v85h385v-1468z" />
    <glyph glyph-name="Omicrontonos" unicode="&#x38c;" horiz-adv-x="1592" 
d="M779 1486q153 0 292.5 -59.5t240 -160.5t160.5 -240.5t60 -292.5t-60 -292.5t-160.5 -240.5t-240 -160.5t-292.5 -59.5t-292.5 59.5t-240.5 160.5t-160.5 240.5t-59.5 292.5t59.5 292.5t160.5 240.5t240.5 160.5t292.5 59.5zM779 1100q-152 0 -260 -107.5t-108 -259.5
t108 -259.5t260 -107.5t259.5 107.5t107.5 259.5t-107.5 259.5t-259.5 107.5zM-44 1519l330 -162l-244 -241h-272z" />
    <glyph glyph-name="Upsilontonos" unicode="&#x38e;" horiz-adv-x="1378" 
d="M908 1h-366v564l-324 346q-104 111 -104 298v257h372v-251q0 -52 27 -82l211 -234l211 234q28 31 28 82v251h373v-257q0 -187 -104 -298l-324 -346v-564zM-227 1519l330 -162l-244 -241h-272z" />
    <glyph glyph-name="Omegatonos" unicode="&#x38f;" horiz-adv-x="1593" 
d="M37 -6v395h110q-61 30 -93 127.5t-32 197.5q0 143 60.5 281t161.5 243t242.5 169.5t294.5 64.5t294.5 -64.5t242.5 -169.5t161 -243t60 -281q0 -101 -31.5 -198t-93.5 -127h111v-395h-602v395q103 2 165.5 97t62.5 228q0 85 -49 170t-136 142.5t-185 57.5t-185 -57.5
t-136 -142.5t-49 -170q0 -132 62 -227.5t165 -97.5v-395h-601zM-18 1519l330 -162l-244 -241h-272z" />
    <glyph glyph-name="iotadieresistonos" unicode="&#x390;" horiz-adv-x="525" 
d="M43 1368v-303h-339v303h339zM810 1368v-303h-338v303h338zM234 1465l325 -173l-240 -256h-268zM60 0v963h375v-963h-375z" />
    <glyph glyph-name="Alpha" unicode="&#x391;" horiz-adv-x="1350" 
d="M1279 0h-384v341h-474v-341h-382v959q0 140 69.5 259t189 188.5t258.5 69.5h204q104 0 200 -41t166 -110t111.5 -165t41.5 -201v-959zM556 1097q-56 0 -95.5 -40.5t-39.5 -97.5v-231h474v231q0 57 -39 97.5t-96 40.5h-204z" />
    <glyph glyph-name="Beta" unicode="&#x392;" horiz-adv-x="1286" 
d="M1176 1035q0 -73 -35.5 -151t-109.5 -125q52 -21 92 -59t63 -84t35 -91.5t14 -89.5q3 -93 -32.5 -174.5t-97.5 -138t-147 -89t-179 -32.5h-748v1466h687q192 0 325 -122t133 -310zM863 479q0 37 -25.5 68.5t-60.5 31.5h-388v-206h388q35 0 60.5 34t25.5 72zM800 983
q0 52 -24.5 82.5t-61.5 30.5h-325v-211h325q37 0 61.5 27t24.5 71z" />
    <glyph glyph-name="Gamma" unicode="&#x393;" horiz-adv-x="936" 
d="M905 1469v-380h-338q-56 0 -96 -41t-40 -98v-950h-385v958q0 103 42.5 198t113.5 163.5t167 109t198 40.5h338z" />
    <glyph glyph-name="Delta" unicode="&#x394;" horiz-adv-x="1409" 
d="M-13 0q76 206 239.5 657t250.5 685q21 55 62.5 91.5t90.5 46.5t98.5 0.5t91.5 -45.5t63 -91l511 -1344h-1407zM899 313l-217 588l-208 -588h425z" />
    <glyph glyph-name="Epsilon" unicode="&#x395;" horiz-adv-x="1135" 
d="M1055 363v-364h-517q-136 0 -253.5 69t-186 186t-68.5 253v448q0 138 68.5 255.5t185.5 186t254 68.5h517v-367h-517q-54 0 -94 -41t-40 -96v-59h651v-348h-651v-49q0 -55 40 -98.5t94 -43.5h517z" />
    <glyph glyph-name="Zeta" unicode="&#x396;" horiz-adv-x="1250" 
d="M1190 371v-370h-1174v160q0 104 20 176.5t81 138.5q97 103 287.5 310.5t289.5 313.5h-638v367h1153v-159q0 -98 -18.5 -169.5t-73.5 -129.5q-106 -114 -301.5 -327t-286.5 -311h661z" />
    <glyph glyph-name="Eta" unicode="&#x397;" horiz-adv-x="1353" 
d="M406 0h-382l-1 1465h1v1q1 -1 3 -1h379v-591h492v592q1 -1 3 -1h378v-1465h-381v513h-492v-513z" />
    <glyph glyph-name="Theta" unicode="&#x398;" horiz-adv-x="1593" 
d="M779 1486q153 0 292.5 -59.5t240 -160.5t160.5 -240.5t60 -292.5t-60 -292.5t-160.5 -240.5t-240 -160.5t-292.5 -59.5t-292.5 59.5t-240.5 160.5t-160.5 240.5t-59.5 292.5t59.5 292.5t160.5 240.5t240.5 160.5t292.5 59.5zM779 1100q-152 0 -260 -107.5t-108 -259.5
t108 -259.5t260 -107.5t259.5 107.5t107.5 259.5t-107.5 259.5t-259.5 107.5zM551 915h455v-364h-455v364z" />
    <glyph glyph-name="Iota" unicode="&#x399;" horiz-adv-x="510" 
d="M429 0h-385v1468h385v-1468z" />
    <glyph glyph-name="Kappa" unicode="&#x39a;" horiz-adv-x="1263" 
d="M1212 2h-372v154q0 50 -28 82l-265 305h-130v-541h-383v1464h383v-543h117l278 309q28 31 28 81v153h372v-159q0 -190 -105 -299l-254 -274l254 -273q105 -109 105 -299v-160z" />
    <glyph glyph-name="Lambda" unicode="&#x39b;" horiz-adv-x="1412" 
d="M1400 2h-413l-303 830l-285 -830h-412q85 227 247.5 673.5t243.5 663.5q21 56 62.5 92.5t91 46t99 0t91.5 -46t63 -91.5z" />
    <glyph glyph-name="Mu" unicode="&#x39c;" horiz-adv-x="1556" 
d="M1479 0h-388l24 811l-200 -332q-71 -102 -161.5 -101.5t-156.5 105.5l-196 303l24 -786h-388v1192q0 84 26.5 146.5t68 94.5t93 44t101.5 1.5t94 -39.5t69 -72l268 -468l288 468q26 43 68.5 72t90 39.5t97 -1.5t88.5 -44t64 -94.5t25 -146.5z" />
    <glyph glyph-name="Nu" unicode="&#x39d;" horiz-adv-x="1354" 
d="M891 1469h387v-1248q0 -62 -26 -112.5t-68 -80.5t-95.5 -42.5t-105.5 -5t-100 39t-78 82.5l-394 685l7 -786h-387l1 1226q0 72 19.5 126.5t52.5 84t74 45t85.5 11.5t86.5 -19.5t77.5 -45t56.5 -67.5l422 -741z" />
    <glyph glyph-name="Xi" unicode="&#x39e;" horiz-adv-x="1213" 
d="M1140 1086h-1098v381h1098v-381zM994 566v354h-807v-354h807zM1140 -1h-1098v376h1098v-376z" />
    <glyph glyph-name="Omicron" unicode="&#x39f;" horiz-adv-x="1593" 
d="M774 1486q206 0 379.5 -101t274 -274.5t100.5 -378.5q0 -152 -59.5 -291t-160 -239.5t-240.5 -160t-294 -59.5q-152 0 -291 59.5t-239.5 160t-160 239.5t-59.5 291q0 154 59.5 293.5t160 240.5t239.5 160.5t291 59.5zM774 368q155 0 262.5 107t107.5 257
q0 153 -107.5 260.5t-262.5 107.5q-150 0 -257 -108t-107 -260q0 -149 107.5 -256.5t256.5 -107.5z" />
    <glyph glyph-name="Pi" unicode="&#x3a0;" horiz-adv-x="1307" 
d="M1225 -1h-383v961q0 57 -39.5 98t-95.5 41h-167q-56 0 -96 -41t-40 -98v-961h-383v961q0 141 70 260.5t189.5 189t259.5 69.5h167q140 0 259 -69.5t189 -189t70 -260.5v-961z" />
    <glyph glyph-name="Rho" unicode="&#x3a1;" horiz-adv-x="1239" 
d="M405 0h-377v963q0 136 69.5 253t188 185t255.5 68h133q104 0 199 -41t164 -110t109.5 -163.5t40.5 -197.5v-86q0 -139 -69 -256t-187 -184t-257 -67h-269v-364zM810 857v100q0 57 -39.5 97.5t-94.5 40.5h-141q-56 0 -95 -40t-39 -98v-255h275q53 0 93.5 49t40.5 106z" />
    <glyph glyph-name="Sigma" unicode="&#x3a3;" horiz-adv-x="1145" 
d="M1077 379v-380h-848q-66 0 -116.5 37t-72.5 90t-15.5 114.5t44.5 107.5l333 398l-325 387q-44 52 -49.5 112t21 109t82 81.5t125.5 32.5h821v-381l-505 7l232 -206q54 -62 54 -140q-2 -72 -50 -131l-244 -249z" />
    <glyph glyph-name="Tau" unicode="&#x3a4;" horiz-adv-x="1156" 
d="M754 1h-370v1098h-360v366h1090v-366h-360v-1098z" />
    <glyph glyph-name="Upsilon" unicode="&#x3a5;" horiz-adv-x="1299" 
d="M819 1h-366v564l-324 346q-104 111 -104 298v257h372v-280q0 -52 27 -82l211 -234l211 234q28 31 28 82v280h373v-257q0 -187 -104 -298l-324 -346v-564z" />
    <glyph glyph-name="Phi" unicode="&#x3a6;" horiz-adv-x="1732" 
d="M670 448v569q-69 0 -124.5 -24.5t-90 -64.5t-53 -91t-18.5 -104.5t18.5 -104.5t53 -91t90 -64.5t124.5 -24.5zM1045 1017v-569q65 0 117.5 24.5t84.5 64.5t49.5 91t17.5 104.5t-17.5 104.5t-49.5 91t-84.5 64.5t-117.5 24.5zM1045 0h-375v101q-158 0 -286 54t-206 142.5
t-120 201.5t-41.5 230.5t43 230.5t121 201.5t205.5 142.5t284 54v109h375v-109q201 0 350 -93t216 -233t67.5 -302.5t-66 -302.5t-215 -233t-352.5 -93v-101z" />
    <glyph glyph-name="Chi" unicode="&#x3a7;" horiz-adv-x="1301" 
d="M1243 0h-373v183q0 52 -29 81l-212 237l-213 -237q-27 -30 -27 -81v-183h-375v159q0 190 105 299l257 277l-257 274q-105 113 -105 299v159h375v-190q0 -52 27 -82l213 -237l212 237q29 29 29 82v190h373v-159q0 -186 -105 -299l-255 -274l255 -277q105 -109 105 -299
v-159z" />
    <glyph glyph-name="Psi" unicode="&#x3a8;" horiz-adv-x="1635" 
d="M991 -1h-378v415q-129 0 -232 36t-169.5 96.5t-111 143.5t-63 172.5t-18.5 189.5v416h369l1 -416q0 -61 8.5 -106.5t31 -89.5t69 -67.5t115.5 -23.5v703h378v-703q221 0 221 287v416h371v-416q0 -99 -19.5 -189t-65 -173t-112.5 -143.5t-168 -96.5t-227 -36v-415z" />
    <glyph glyph-name="Omega" unicode="&#x3a9;" horiz-adv-x="1598" 
d="M638 389v-389h-601v389h110q-61 30 -93 127.5t-32 197.5q0 143 60.5 281t161.5 243t242.5 169.5t294.5 64.5t294.5 -64.5t242.5 -169.5t161 -243t60 -281q0 -101 -31.5 -198t-93.5 -127h111v-389h-602v389q103 2 165.5 97t62.5 228q0 85 -49 170t-136 142.5t-185 57.5
t-185 -57.5t-136 -142.5t-49 -170q0 -132 62 -227.5t165 -97.5z" />
    <glyph glyph-name="Iotadieresis" unicode="&#x3aa;" horiz-adv-x="513" 
d="M429 0h-385v1468h385v-1468zM183 1806v-312h-369v312h369zM671 1806v-312h-369v312h369z" />
    <glyph glyph-name="Upsilondieresis" unicode="&#x3ab;" horiz-adv-x="1311" 
d="M410 1824v-312h-172v312h172zM211 1824v-312h-170v312h170zM1254 1824v-312h-172v312h172zM1055 1824v-312h-170v312h170zM826 1h-366v564l-324 346q-104 111 -104 298v257h372v-280q0 -52 27 -82l211 -234l211 234q28 31 28 82v280h373v-257q0 -187 -104 -298l-324 -346
v-564z" />
    <glyph glyph-name="alphatonos" unicode="&#x3ac;" horiz-adv-x="1130" 
d="M1006 480l68 -495q-140 13 -241.5 88t-149 180.5t-47.5 226.5v-1q2 48 -32.5 84t-83.5 36q-47 0 -80.5 -34.5t-33.5 -82.5q1 -47 34.5 -81t79.5 -34q50 0 88 40q14 -110 58.5 -194.5t131.5 -154.5q-122 -82 -278 -82q-100 0 -193 40t-162 107.5t-110.5 162t-41.5 197.5
q0 138 68 255t185 185t254 68q174 0 310 -104q108 76 244 89zM565 1408l311 -153l-230 -227h-256z" />
    <glyph glyph-name="epsilontonos" unicode="&#x3ad;" horiz-adv-x="908" 
d="M299 1016l175 380l311 -153l-230 -227h-256zM872 47l-337 5v-5q0 -52 -44 -75.5t-88 -1t-44 82.5q0 48 28 92t75 44h129v282h-118q-36 -1 -65.5 29.5t-31.5 76.5q-2 34 18.5 56t47.5 25.5t54 -12t37 -48.5l319 103q-47 123 -158.5 201t-246.5 78q-170 0 -283.5 -118
t-104.5 -285q3 -59 31 -118t77 -90q-75 -32 -122 -128.5t-45 -190.5v-3q0 -177 127.5 -302.5t308.5 -125.5t308.5 125.5t127.5 302.5z" />
    <glyph glyph-name="etatonos" unicode="&#x3ae;" horiz-adv-x="1053" 
d="M489 1395l311 -153l-230 -227h-256zM30 964v-964h372v493q0 46 31 78.5t78 32.5q44 0 76.5 -33.5t32.5 -77.5v-900h370v898q0 201 -140 342t-339 141q-166 0 -295 -100q-79 67 -186 90z" />
    <glyph glyph-name="iotatonos" unicode="&#x3af;" horiz-adv-x="494" 
d="M245 1402l311 -153l-230 -227h-256zM39 0v963h375v-963h-375z" />
    <glyph glyph-name="upsilondieresistonos" unicode="&#x3b0;" horiz-adv-x="1055" 
d="M506 358q45 0 78 33t33 77v492h370v-490q0 -199 -140.5 -340.5t-340.5 -141.5t-340.5 141.5t-140.5 340.5v490h370v-492q0 -44 33 -77t78 -33zM1070 1344v-303h-338v303h338zM282 1344v-303h-318v303h318zM494 1441l325 -173l-240 -256h-268z" />
    <glyph glyph-name="alpha" unicode="&#x3b1;" horiz-adv-x="1135" 
d="M1074 976l-60 -496l60 -495q-140 13 -241.5 88t-149 180.5t-47.5 226.5v-1q2 48 -32.5 84t-83.5 36q-47 0 -80.5 -34.5t-33.5 -82.5q1 -47 34.5 -81t79.5 -34q50 0 88 40q14 -109 59 -194.5t131 -154.5q-122 -82 -278 -82q-100 0 -193 40t-162 107.5t-110.5 162
t-41.5 197.5q0 138 68 255t185 185t254 68q174 0 310 -104q108 76 244 89z" />
    <glyph glyph-name="beta" unicode="&#x3b2;" horiz-adv-x="1035" 
d="M19 -415v1413q0 131 65 241.5t176 174.5t242 64q201 0 342.5 -140.5t141.5 -339.5q0 -88 -41 -165.5t-123 -126.5q74 -50 118 -117.5t53.5 -136.5t-6 -139.5t-53.5 -130t-96 -104.5t-127 -67t-153 -12.5t-168 54.5q6 -177 -103 -304t-268 -164zM445 515v374h57
q45 0 78.5 32t33.5 77q-2 45 -33 76.5t-79 31.5t-78.5 -33.5t-30.5 -80.5v-600q11 -8 23 -13t20 -8t20 -4.5t16.5 -1.5h16.5h13q38 1 63.5 17t31 38.5t-0.5 44t-31.5 37t-62.5 15.5z" />
    <glyph glyph-name="gamma" unicode="&#x3b3;" horiz-adv-x="1155" 
d="M723 -409h-341v382l-393 984h395l174 -531l191 531h393l-419 -984v-382z" />
    <glyph glyph-name="delta" unicode="&#x3b4;" horiz-adv-x="1059" 
d="M898 1465v-366l-243 13l268 -346q111 -141 95.5 -326t-147.5 -317q-95 -95 -222.5 -128.5t-255 0t-222.5 128.5q-146 146 -153 363q-2 61 17 128.5t56 131t98 114.5t136 73l-255 380v152h828zM612 566q-38 38 -91 38t-91 -38t-38 -92t38 -92t91 -38t91 38t38 92t-38 92z
" />
    <glyph glyph-name="epsilon" unicode="&#x3b5;" horiz-adv-x="919" 
d="M535 47h337q0 -177 -127.5 -302.5t-308.5 -125.5t-308.5 125.5t-127.5 302.5v3q-2 94 45 190.5t122 128.5q-49 31 -77 90t-31 118q-9 167 104.5 285t283.5 118q135 0 246.5 -78t158.5 -201l-319 -103q-10 33 -37 48.5t-54 12t-47.5 -25.5t-18.5 -56q2 -45 30.5 -69
t66.5 -23h118v-306h-129q-47 0 -73 -39.5t-26 -86.5q0 -60 43 -82.5t86 1t43 75.5z" />
    <glyph glyph-name="zeta" unicode="&#x3b6;" horiz-adv-x="950" 
d="M235 -378l107 359q37 -10 46 -11q51 -10 77 23q21 28 -1 51q-20 20 -67 20q-83 -1 -155 21.5t-126 66.5t-78 116.5t-8 164.5q51 297 397 655h-313v374h636q101 0 159.5 -84.5t22.5 -180.5q-13 -29 -26 -47q-14 -19 -83 -103t-135.5 -170t-133 -182t-96 -171.5
t-4.5 -105.5q15 -19 102.5 -32.5t129.5 -38.5q109 -65 152 -176t26 -246q-20 -149 -137 -239.5t-271 -95.5q-102 -3 -221 32z" />
    <glyph glyph-name="eta" unicode="&#x3b7;" horiz-adv-x="1055" 
d="M989 -407h-370v900q0 44 -32.5 77.5t-76.5 33.5q-47 0 -78 -32.5t-31 -78.5v-493h-372v964q107 -23 186 -90q129 100 295 100q199 0 339 -141t140 -342v-898z" />
    <glyph glyph-name="theta" unicode="&#x3b8;" horiz-adv-x="1131" 
d="M1081 795q6 -116 -11 -235q-36 -229 -152 -374q-113 -143 -277.5 -180t-321.5 55q-81 49 -141.5 125.5t-94.5 167.5t-50.5 185.5t-16.5 193.5q0 130 25.5 243.5t69.5 197.5t104 148t128.5 100t143.5 49t147.5 -0.5t142 -54t126.5 -105.5q164 -188 178 -516zM709 593h-321
q6 -57 24 -102.5t43.5 -71t55.5 -38.5t60.5 -4t58 33t48.5 71.5t31 111.5zM704 884q-6 69 -29.5 120t-55 75t-68 24.5t-68.5 -22t-56 -74t-31 -123.5h308z" />
    <glyph glyph-name="iota" unicode="&#x3b9;" horiz-adv-x="499" 
d="M42 0v963h375v-963h-375z" />
    <glyph glyph-name="kappa" unicode="&#x3ba;" horiz-adv-x="991" 
d="M943 0h-374v55q0 116 -183 240v-295h-366v961h366v-295q44 31 68.5 50t55 49.5t45 62.5t14.5 67v63h374v-62q0 -109 -27 -189.5t-101 -137.5l-125 -92l125 -97q80 -64 104 -135t24 -192v-53z" />
    <glyph glyph-name="lambda" unicode="&#x3bb;" horiz-adv-x="1147" 
d="M355 1h-394l399 969l-186 487h395l545 -1456h-395l-174 534z" />
    <glyph glyph-name="mu" unicode="&#x3bc;" horiz-adv-x="1097" 
d="M393 -401h-368v1367h368v-432q0 -57 19.5 -98.5t49.5 -60.5t64 -19t64 19t49.5 60.5t19.5 98.5v432h368v-966h-368v95q-47 -62 -135 -66.5t-131 64.5v-494z" />
    <glyph glyph-name="nu" unicode="&#x3bd;" horiz-adv-x="1063" 
d="M625 966h372v-480q0 -196 -130 -328l-155 -158h-395l-157 158q-129 130 -129 328v480h374v-480q0 -19 5.5 -36.5t21.5 -37.5t22.5 -28t32 -31.5t26.5 -24.5q3 3 33.5 31t41 40t24 37.5t13.5 49.5v480z" />
    <glyph glyph-name="xi" unicode="&#x3be;" horiz-adv-x="949" 
d="M207 -313l182 266q59 -36 115 -20q38 11 39 35q1 33 -77 56q-26 7 -59 12q-95 15 -173.5 59.5t-129.5 107t-76.5 140.5t-21 157.5t45 160t114.5 145.5q-46 63 -66.5 136.5t-16.5 146.5t39.5 141t95.5 120t158.5 83.5t221.5 31.5h211v-350h-271q-32 0 -52 -22.5t-22 -50.5
t14.5 -52t49.5 -27q11 0 17 -1h264v-349h-261q-47 0 -86 -21.5t-57.5 -54t-21 -67t23.5 -65t76 -43.5q150 -38 200 -61q93 -42 154 -105q65 -67 89 -153q24 -84 -1 -171q-34 -116 -136.5 -189t-229.5 -85q-180 -16 -352 89z" />
    <glyph glyph-name="omicron" unicode="&#x3bf;" horiz-adv-x="1054" 
d="M505 974q135 0 249.5 -66.5t181.5 -181t67 -249.5q0 -133 -67 -247t-181.5 -180.5t-249.5 -66.5q-133 0 -246.5 66.5t-180 180.5t-66.5 247q0 135 66.5 249.5t180 181t246.5 66.5zM505 349q53 0 91.5 38.5t38.5 89.5q0 53 -38.5 90.5t-91.5 37.5q-50 0 -88.5 -38
t-38.5 -90q0 -50 38.5 -89t88.5 -39z" />
    <glyph glyph-name="pi" unicode="&#x3c0;" horiz-adv-x="1135" 
d="M476 0h-341v594h-117v363h1063q0 -149 -0.5 -254t-0.5 -109h-108v-594h-341v594h-155v-594z" />
    <glyph glyph-name="rho" unicode="&#x3c1;" horiz-adv-x="1046" 
d="M431 16v405q25 -25 59 -31t63 5.5t49.5 38.5t20.5 62q-3 49 -33.5 81t-77.5 32q-48 0 -79.5 -34.5t-31.5 -82.5v-423q0 -167 -109.5 -309t-269.5 -181v917q0 134 65.5 247.5t178.5 179.5t246 66t246 -66t178.5 -179.5t65.5 -247.5q0 -129 -66 -241t-179.5 -178.5
t-244.5 -66.5q-42 0 -81 6z" />
    <glyph glyph-name="sigma1" unicode="&#x3c2;" horiz-adv-x="902" 
d="M199 -313l167 269q51 -38 99 -21q32 11 30 37q-2 35 -71 54q-18 6 -40 9q-130 21 -219 95q-86 72 -129.5 175.5t-33.5 218.5q9 110 63 205t141 158q89 66 205 88q118 22 246 -5q92 -21 191 -67l-120 -325q-73 35 -135 48q-36 8 -72 9t-74 -5.5t-68 -31t-43 -63.5
q-19 -55 14 -105t102 -68q146 -27 259.5 -107.5t147.5 -211.5q21 -83 -1 -171q-32 -116 -126 -189t-210 -85q-164 -16 -323 89z" />
    <glyph glyph-name="sigma" unicode="&#x3c3;" horiz-adv-x="1084" 
d="M1052 965v-377h-122q29 -72 33.5 -146t-14 -140t-58.5 -124t-95.5 -100t-130.5 -66.5t-159 -24.5q-202 0 -345.5 143.5t-143.5 345.5t143.5 345.5t345.5 143.5h546zM506 605q-54 0 -92 -38t-38 -91q0 -54 38 -91.5t92 -37.5q53 0 91 37.5t38 91.5q0 53 -38 91t-91 38z
" />
    <glyph glyph-name="tau" unicode="&#x3c4;" horiz-adv-x="834" 
d="M588 0h-341v594h-231v363h776v-363h-204v-594z" />
    <glyph glyph-name="upsilon" unicode="&#x3c5;" horiz-adv-x="1025" 
d="M603 960h370v-490q0 -199 -140.5 -340.5t-340.5 -141.5t-340.5 141.5t-140.5 340.5v490h370v-492q0 -44 33 -77t78 -33t78 33t33 77v492z" />
    <glyph glyph-name="phi" unicode="&#x3c6;" horiz-adv-x="1397" 
d="M695 -395h-21v-16h-158v412h-18q-131 0 -242.5 65t-177 177t-65.5 243q0 122 53 222.5t138.5 161t194.5 86t220 7.5q-88 -64 -124.5 -140.5t-35.5 -198.5q-1 0 -19.5 -7t-25.5 -11q-35 -24 -50 -69t-8 -89t43.5 -76.5t95.5 -32.5h21l-1 288q0 151 97.5 249t257.5 95
q202 -5 343.5 -145t141.5 -340t-143 -342.5t-343 -142.5h-18v-412h-156v16zM830 636v-293h41q56 0 97 44.5t41 102.5t-41 102t-98 44h-40z" />
    <glyph glyph-name="chi" unicode="&#x3c7;" horiz-adv-x="1113" 
d="M411 -407h-413l339 682l-339 686h429l117 -350l118 350h428l-343 -686l343 -682h-414l-132 342z" />
    <glyph glyph-name="psi" unicode="&#x3c8;" horiz-adv-x="1470" 
d="M897 -411h-358v415h-55q-123 0 -228.5 56.5t-170 160t-64.5 230.5v509h358v-510q0 -44 30.5 -75.5t74.5 -31.5h55v617h358v-617h55q44 0 74.5 31.5t30.5 75.5v510h358v-509q0 -127 -64 -230.5t-170 -160t-229 -56.5h-55v-415z" />
    <glyph glyph-name="omega" unicode="&#x3c9;" horiz-adv-x="1508" 
d="M1009 961h395q69 -216 57 -413q-10 -152 -67 -277q-57 -127 -155 -205q-111 -88 -240 -87q-202 2 -260 197q-78 -195 -261 -197q-129 -1 -240 87q-98 78 -155 205q-56 124 -67 277q-12 197 57 413h393q-104 -226 -93 -388q7 -111 44.5 -172.5t81.5 -28.5t67 166
q12 73 14 150h310q2 -97 11 -150q14 -81 38.5 -126.5t51.5 -49t52 18t43.5 72.5t22.5 117q12 197 -100 391z" />
    <glyph glyph-name="iotadieresis" unicode="&#x3ca;" horiz-adv-x="495" 
d="M201 1319v-312h-369v312h369zM616 1319v-312h-369v312h369zM38 0v963h375v-963h-375z" />
    <glyph glyph-name="upsilondieresis" unicode="&#x3cb;" horiz-adv-x="1033" 
d="M982 1307v-301h-369v301h369zM394 1307v-301h-369v301h369zM985 960h-370v-492q0 -44 -33 -77t-78 -33t-78 33t-33 77v492h-370v-490q0 -199 140.5 -340.5t340.5 -141.5t340.5 141.5t140.5 340.5v490z" />
    <glyph glyph-name="omicrontonos" unicode="&#x3cc;" horiz-adv-x="1042" 
d="M505 974q135 0 249.5 -66.5t181.5 -181t67 -249.5q0 -133 -67 -247t-181.5 -180.5t-249.5 -66.5q-133 0 -246.5 66.5t-180 180.5t-66.5 247q0 135 66.5 249.5t180 181t246.5 66.5zM505 345q54 0 94 40t40 92q0 54 -40 93t-94 39q-52 0 -91.5 -39t-39.5 -93q0 -52 40 -92
t91 -40zM548 1373l349 -151l-258 -222h-288z" />
    <glyph glyph-name="upsilontonos" unicode="&#x3cd;" horiz-adv-x="1033" 
d="M538 1377l353 -152l-261 -225h-291zM500 358q45 0 78 33t33 77v492h370v-490q0 -199 -140.5 -340.5t-340.5 -141.5t-340.5 141.5t-140.5 340.5v490h370v-492q0 -44 33 -77t78 -33z" />
    <glyph glyph-name="omegatonos" unicode="&#x3ce;" horiz-adv-x="1510" 
d="M1004 961h395q69 -216 57 -413q-10 -152 -67 -277q-57 -127 -155 -205q-111 -88 -240 -87q-202 2 -260 197q-78 -195 -261 -197q-129 -1 -240 87q-98 78 -155 205q-56 124 -67 277q-12 197 57 413h393q-104 -226 -93 -388q7 -111 44.5 -172.5t81.5 -28.5t67 166
q12 73 14 150h310q2 -97 11 -150q14 -81 38.5 -126.5t51.5 -49t52 18t43.5 72.5t22.5 117q12 197 -100 391zM794 1391l366 -158l-270 -233h-302z" />
    <glyph glyph-name="afii10023" unicode="&#x401;" horiz-adv-x="1121" 
d="M1055 -1v364h-517q-54 0 -94 43.5t-40 98.5v49h651v348h-651v59q0 55 40 96t94 41h517v367h-517q-137 0 -254 -68.5t-185.5 -186t-68.5 -255.5v-448q0 -136 68.5 -253t186 -186t253.5 -69h517zM617 1781v-275h-324v275h324zM1047 1781v-275h-325v275h325z" />
    <glyph glyph-name="afii10051" unicode="&#x402;" horiz-adv-x="1483" 
d="M897 -59v381h23q55 0 95 40.5t40 96.5v5q0 59 -45.5 97t-119.5 24l-284 -37v-548h-382v1099h-268v366h1044v-366h-394v-161l337 28q101 13 194 -26t157.5 -111t103 -167t38.5 -191v-19q0 -126 -70 -245t-185 -192.5t-239 -73.5h-45z" />
    <glyph glyph-name="afii10052" unicode="&#x403;" horiz-adv-x="886" 
d="M542 1860l339 -146l-250 -216h-280zM411 950v-950h-385v958q0 103 42.5 198t113.5 163.5t167 109t198 40.5h296v-380h-296q-56 0 -96 -41t-40 -98z" />
    <glyph glyph-name="afii10053" unicode="&#x404;" horiz-adv-x="1199" 
d="M977 433l188 -335q-180 -116 -400 -116q-152 0 -290.5 59.5t-238.5 159.5t-159.5 238.5t-59.5 290.5t59.5 290.5t159.5 238.5t238.5 159.5t290.5 59.5q220 0 400 -116l-188 -335q-95 68 -212 68q-106 0 -192 -53.5t-128 -152.5h474v-322h-474q35 -92 125 -147t195 -55
q117 0 212 68z" />
    <glyph glyph-name="afii10054" unicode="&#x405;" horiz-adv-x="1213" 
d="M1149 1094l-362 -68q-11 34 -41 58t-67 25h-203q-40 0 -63 -30t-23 -66.5t23 -66.5t63 -30h186q119 0 215.5 -39t157.5 -104t94 -146t35 -169q1 -89 -31 -171t-92.5 -148.5t-157.5 -106.5t-216 -40h-147q-175 0 -317 106.5t-174 272.5l366 68q11 -34 41 -57.5t67 -26.5
h203q40 0 63 30.5t22.5 66.5t-23 66.5t-62.5 30.5h-186q-251 0 -392 157q-112 123 -118 298q-6 170 91 298q111 150 310 169q26 2 53 2h198q175 0 316.5 -106.5t170.5 -272.5z" />
    <glyph glyph-name="afii10055" unicode="&#x406;" horiz-adv-x="511" 
d="M425 0h-385v1468h385v-1468z" />
    <glyph glyph-name="afii10056" unicode="&#x407;" horiz-adv-x="505" 
d="M185 1826v-316h-331v316h331zM622 1826v-316h-331v316h331zM425 0h-385v1468h385v-1468z" />
    <glyph glyph-name="afii10057" unicode="&#x408;" horiz-adv-x="938" 
d="M28 -8v375h327q56 0 96 41.5t40 96.5v585h-125v375h508v-967q0 -136 -71.5 -253t-191 -185t-256.5 -68h-327z" />
    <glyph glyph-name="afii10058" unicode="&#x409;" horiz-adv-x="1956" 
d="M1389 1l-593 1v1095q-39 0 -99 -0.5t-100 -0.5q-56 0 -95 -41t-39 -97v-521q0 -145 -60.5 -245t-161 -145.5t-234.5 -45.5v377q43 1 60 12t17 47v522q0 139 69 257t187.5 187t257.5 69h578v-374h213q139 0 257.5 -69t187.5 -187.5t69 -257.5v-67q0 -138 -69 -257
t-188 -189t-257 -70zM1523 516v68q0 56 -39 96.5t-95 40.5h-213v-342h213q56 0 95 40t39 97z" />
    <glyph glyph-name="afii10059" unicode="&#x40a;" horiz-adv-x="1901" 
d="M1334 717h-212v-343h212q56 0 95 40.5t39 97.5v67q0 56 -39 97t-95 41zM399 -1h-382v1474q166 -46 274 -184t108 -313v-168h341v665q136 -38 236 -140t133 -239h225q139 0 257 -69t187 -187.5t69 -258.5v-66q0 -139 -69 -257.5t-187 -187.5t-257 -69h-594v427h-341v-427z
" />
    <glyph glyph-name="afii10060" unicode="&#x40b;" horiz-adv-x="1447" 
d="M1372 1h-381v396q0 56 -39.5 96.5t-94.5 40.5h-315v-533h-382v1098h-181v366h815v-366h-252v-184h337q124 0 238.5 -73.5t184.5 -192t70 -245.5v-403z" />
    <glyph glyph-name="afii10061" unicode="&#x40c;" horiz-adv-x="1279" 
d="M417 2h-383v1464h383v-543h117l278 309q28 31 28 81v153h372v-159q0 -190 -105 -299l-254 -274l254 -273q105 -109 105 -299v-160h-372v154q0 50 -28 82l-265 305h-130v-541zM645 1885l305 -158l-224 -233h-251z" />
    <glyph glyph-name="afii10062" unicode="&#x40e;" horiz-adv-x="1202" 
d="M287 1767h229q0 -21 15 -36t36 -15t36 15t15 36h229v-1q0 -115 -82.5 -197.5t-197.5 -82.5t-197.5 82t-82.5 198v1zM141 178v21v179h472q56 0 95.5 41t39.5 97v35q-44 -46 -135 -46h-83q-139 0 -258 69t-188.5 188t-69.5 258v445h381v-444q0 -56 39.5 -97t95.5 -41h83
q56 0 95.5 41t39.5 97v444h381v-445v-504q0 -105 -41 -200.5t-110.5 -164.5t-165 -110t-199.5 -41h-472v178z" />
    <glyph glyph-name="afii10145" unicode="&#x40f;" horiz-adv-x="1299" 
d="M816 -243h-382v236q-177 38 -294 180.5t-117 326.5v965h383v-964q0 -57 40 -98.5t96 -41.5h166q56 0 96 41.5t40 98.5v964h382v-965q0 -184 -116.5 -326.5t-293.5 -180.5v-236z" />
    <glyph glyph-name="afii10017" unicode="&#x410;" horiz-adv-x="1337" 
d="M1263 0h-384v341h-474v-341h-382v959q0 140 69.5 259t189 188.5t258.5 69.5h204q104 0 200 -41t166 -110t111.5 -165t41.5 -201v-959zM540 1097q-56 0 -95.5 -40.5t-39.5 -97.5v-231h474v231q0 57 -39 97.5t-96 40.5h-204z" />
    <glyph glyph-name="afii10018" unicode="&#x411;" horiz-adv-x="1235" 
d="M1012 1466v-359h-513q-53 0 -82 -32.5t-29 -84.5v-39h344q108 0 196.5 -41t143.5 -107.5t85 -152t31 -175t-28 -175t-83 -152t-143.5 -107.5t-201.5 -41h-712v876v93q0 210 133.5 353.5t345.5 143.5h513zM388 589v-216h343q45 0 71.5 33.5t27.5 74.5t-25 74.5t-74 33.5
h-343z" />
    <glyph glyph-name="afii10019" unicode="&#x412;" horiz-adv-x="1261" 
d="M1164 1035q0 -73 -35.5 -151t-109.5 -125q52 -21 92 -59t63 -84t35 -91.5t14 -89.5q3 -93 -32.5 -174.5t-97.5 -138t-147 -89t-179 -32.5h-748v1466h687q192 0 325 -122t133 -310zM851 479q0 37 -25.5 68.5t-60.5 31.5h-388v-206h388q35 0 60.5 34t25.5 72zM788 983
q0 52 -24.5 82.5t-61.5 30.5h-325v-211h325q37 0 61.5 27t24.5 71z" />
    <glyph glyph-name="afii10020" unicode="&#x413;" horiz-adv-x="882" 
d="M407 0h-385v958q0 103 42.5 198t113.5 163.5t167 109t198 40.5h296v-380h-296q-56 0 -96 -41t-40 -98v-950z" />
    <glyph glyph-name="afii10021" unicode="&#x414;" horiz-adv-x="1369" 
d="M697 1092h-102q-56 0 -95.5 -41t-39.5 -97v-588h372v588q0 56 -39.5 97t-95.5 41zM1395 -135h-379q-1 56 -40.5 95.5t-95.5 39.5h-468q-56 0 -95.5 -39.5t-39.5 -95.5h-380q0 117 49 219t135 175v696q0 139 69 257.5t187.5 187.5t258.5 69h101q139 0 257.5 -69
t188 -187.5t69.5 -257.5v-696q86 -73 134.5 -175.5t48.5 -218.5z" />
    <glyph glyph-name="afii10022" unicode="&#x415;" horiz-adv-x="1115" 
d="M1041 358v-359h-517q-136 0 -253.5 69t-186 186t-68.5 253v448q0 138 68.5 255.5t185.5 186t254 68.5h517v-364h-517q-54 0 -94 -41t-40 -96v-72h651v-334h-651v-58q0 -55 40 -98.5t94 -43.5h517z" />
    <glyph glyph-name="afii10024" unicode="&#x416;" horiz-adv-x="1826" 
d="M385 0h-372v160q0 189 105 299l254 273l-254 274q-105 110 -105 300v160h372v-154q0 -51 28 -82l279 -282v518h384v-545l278 309q28 31 28 82v154h372v-160q0 -190 -104 -300l-255 -274l255 -273q104 -111 104 -299v-160h-372v154q0 50 -28 81l-265 306h-13v-541h-384
v541h-13l-266 -306q-28 -31 -28 -81v-154z" />
    <glyph glyph-name="afii10025" unicode="&#x417;" horiz-adv-x="1123" 
d="M32 0v363l576 2q33 0 55.5 18.5t28 45t0 53t-28.5 45t-57 18.5h-574v365h577q33 0 55.5 19.5t27 47t-1 55t-28 47t-54.5 19.5h-576v362h572q124 0 229.5 -61.5t166.5 -167t61 -229.5q0 -151 -91 -272q91 -121 91 -273q0 -124 -61 -229t-166.5 -166.5t-229.5 -61.5h-572z
" />
    <glyph glyph-name="afii10026" unicode="&#x418;" horiz-adv-x="1347" 
d="M1270 1h-387l7 764l-383 -663q-33 -57 -83 -90t-103 -39.5t-106.5 9t-96 49.5t-69 90t-26.5 123v1225h387l-15 -848l419 741q21 38 57 65.5t77.5 39.5t86.5 12t86.5 -19.5t74.5 -52.5t53 -90t20 -129z" />
    <glyph glyph-name="afii10027" unicode="&#x419;" horiz-adv-x="1344" 
d="M607 1724v-1q0 -26 18 -45t44 -19t45.5 19t19.5 45v1h230q-15 -125 -91.5 -192t-203.5 -67q-128 0 -204.5 66.5t-91.5 192.5h234zM1269 1h-387l7 764l-383 -663q-33 -57 -83 -90t-103 -39.5t-106.5 9t-96 49.5t-69 90t-26.5 123v1225h387l-15 -848l419 741q21 38 57 65.5
t77.5 39.5t86.5 12t86.5 -19.5t74.5 -52.5t53 -90t20 -129z" />
    <glyph glyph-name="afii10028" unicode="&#x41a;" horiz-adv-x="1263" 
d="M408 1h-383v1465h383v-543h117l278 309q28 31 28 81v153h372v-159q0 -190 -105 -299l-254 -274l254 -273q105 -109 105 -299v-161h-372v155q0 50 -28 82l-265 305h-130v-542z" />
    <glyph glyph-name="afii10029" unicode="&#x41b;" horiz-adv-x="1290" 
d="M1213 2h-376v968q0 55 -39 95.5t-94 40.5h-100q-56 0 -95 -40.5t-39 -95.5v-538q0 -143 -60 -242t-160 -144.5t-232 -45.5v373q43 1 59.5 12t16.5 47v538q0 138 68.5 255.5t186 186t255.5 68.5h100q138 0 255 -68.5t185.5 -186t68.5 -255.5v-968z" />
    <glyph glyph-name="afii10030" unicode="&#x41c;" horiz-adv-x="1550" 
d="M1471 0h-388l24 811l-200 -332q-71 -102 -161.5 -101.5t-156.5 105.5l-196 303l24 -786h-388v1192q0 84 26.5 146.5t68 94.5t93 44t101.5 1.5t94 -39.5t69 -72l268 -468l288 468q26 43 68.5 72t90 39.5t97 -1.5t88.5 -44t64 -94.5t25 -146.5z" />
    <glyph glyph-name="afii10031" unicode="&#x41d;" horiz-adv-x="1357" 
d="M406 0h-382l-1 1465h1v1q1 -1 3 -1h379v-591h492v592q1 -1 3 -1h378v-1465h-381v513h-492v-513z" />
    <glyph glyph-name="afii10032" unicode="&#x41e;" horiz-adv-x="1593" 
d="M774 1486q206 0 379.5 -101t274 -274.5t100.5 -378.5q0 -152 -59.5 -291t-160 -239.5t-240.5 -160t-294 -59.5q-152 0 -291 59.5t-239.5 160t-160 239.5t-59.5 291q0 154 59.5 293.5t160 240.5t239.5 160.5t291 59.5zM774 368q155 0 262.5 107t107.5 257
q0 153 -107.5 260.5t-262.5 107.5q-150 0 -257 -108t-107 -260q0 -149 107.5 -256.5t256.5 -107.5z" />
    <glyph glyph-name="afii10033" unicode="&#x41f;" horiz-adv-x="1303" 
d="M1225 -1h-383v961q0 57 -39.5 98t-95.5 41h-167q-56 0 -96 -41t-40 -98v-961h-383v961q0 141 70 260.5t189.5 189t259.5 69.5h167q140 0 259 -69.5t189 -189t70 -260.5v-961z" />
    <glyph glyph-name="afii10034" unicode="&#x420;" horiz-adv-x="1235" 
d="M402 0h-377v963q0 136 69.5 253t188 185t255.5 68h133q104 0 199 -41t164 -110t109.5 -163.5t40.5 -197.5v-86q0 -139 -69 -256t-187 -184t-257 -67h-269v-364zM807 857v100q0 57 -39.5 97.5t-94.5 40.5h-141q-56 0 -95 -40t-39 -98v-255h275q53 0 93.5 49t40.5 106z" />
    <glyph glyph-name="afii10035" unicode="&#x421;" horiz-adv-x="1195" 
d="M988 438l187 -334q-182 -115 -397 -115q-153 0 -291 58.5t-237.5 158t-158 237t-58.5 289.5q0 121 37.5 234.5t106 205t160 160t205.5 106t236 37.5q213 0 397 -113l-187 -336q-98 68 -210 68q-153 0 -258.5 -105t-105.5 -257t105.5 -257t258.5 -105q114 0 210 68z" />
    <glyph glyph-name="afii10036" unicode="&#x422;" horiz-adv-x="1155" 
d="M746 1h-370v1098h-360v366h1090v-366h-360v-1098z" />
    <glyph glyph-name="afii10037" unicode="&#x423;" horiz-adv-x="1210" 
d="M143 0v367h472q56 0 95.5 46t39.5 103v35q-44 -46 -135 -46h-83q-139 0 -258 69t-188.5 188t-69.5 258v447h381v-446q0 -56 39.5 -97t95.5 -41h86q56 0 95.5 41t39.5 97v446h378v-951q0 -105 -41 -200.5t-110.5 -164.5t-165 -110t-199.5 -41h-472z" />
    <glyph glyph-name="afii10038" unicode="&#x424;" horiz-adv-x="1731" 
d="M655 448v569q-69 0 -124.5 -24.5t-90 -64.5t-53 -91t-18.5 -104.5t18.5 -104.5t53 -91t90 -64.5t124.5 -24.5zM1030 1017v-569q65 0 117.5 24.5t84.5 64.5t49.5 91t17.5 104.5t-17.5 104.5t-49.5 91t-84.5 64.5t-117.5 24.5zM1030 0h-375v101q-158 0 -286 54t-206 142.5
t-120 201.5t-41.5 230.5t43 230.5t121 201.5t205.5 142.5t284 54v102h375v-102q201 0 350 -93t216 -233t67.5 -302.5t-66 -302.5t-215 -233t-352.5 -93v-101z" />
    <glyph glyph-name="afii10039" unicode="&#x425;" horiz-adv-x="1300" 
d="M1243 0h-373v183q0 52 -29 81l-212 237l-213 -237q-27 -30 -27 -81v-183h-375v159q0 190 105 299l257 277l-257 274q-105 113 -105 299v159h375v-190q0 -52 27 -82l213 -237l212 237q29 29 29 82v190h373v-159q0 -186 -105 -299l-255 -274l255 -277q105 -109 105 -299
v-159z" />
    <glyph glyph-name="afii10040" unicode="&#x426;" horiz-adv-x="1319" 
d="M1297 -83h-361v82q0 39 -23 56q-51 -54 -199 -54h-185q-214 0 -359.5 142t-145.5 355q0 326 2 968h370v-968q0 -50 34 -86t83 -39h215q51 3 84 32t33 76v985h377v-992q0 -38 -2.5 -62t-16 -55t-38.5 -55q76 -50 104 -126.5t28 -176.5v-82z" />
    <glyph glyph-name="afii10041" unicode="&#x427;" horiz-adv-x="1263" 
d="M1180 0h-382v474h-281q-104 0 -199 41.5t-164 110.5t-110 164.5t-41 198.5v477h377v-476q0 -55 40.5 -95.5t96.5 -40.5h281v612h382v-1466z" />
    <glyph glyph-name="afii10042" unicode="&#x428;" horiz-adv-x="1926" 
d="M1850 1466l-1 -1470q-117 30 -207 104q-145 -96 -299 -95l-85 1q-182 0 -323 115q-142 -115 -323 -115h-82q-213 0 -362.5 139.5t-149.5 347.5v973h378v-948q0 -56 39 -96.5t95 -40.5h82q56 0 95 40.5t39 96.5v948h378v-948q0 -56 39 -96.5t95 -40.5h99q49 3 83 39t34 85
v961h376z" />
    <glyph glyph-name="afii10043" unicode="&#x429;" horiz-adv-x="1957" 
d="M1925 -83h-361v81q0 40 -23 56q-50 -53 -198 -53h-85q-182 0 -323 115q-142 -115 -323 -115h-82q-103 0 -198 40.5t-163.5 109t-109 163.5t-40.5 198v948h377v-947q0 -56 39 -97t95 -41h82q56 0 95 41t39 97v947h377v-948q1 -56 40 -96.5t94 -40.5h99q49 3 83 42.5
t34 88.5v954h378l-1 -960q0 -53 -13 -109.5t-40 -89.5q128 -131 128 -303v-81z" />
    <glyph glyph-name="afii10044" unicode="&#x42a;" horiz-adv-x="1334" 
d="M911 509v90q0 55 -39 95.5t-94 40.5h-316v-226q0 -56 39.5 -96t94.5 -40h182q55 0 94 40t39 96zM-23 1096v376h485v-383h315q138 0 255 -64.5t186 -178.5t69 -251v-85q0 -137 -68.5 -254.5t-186 -186.5t-255.5 -69h-181q-102 0 -196 40.5t-162.5 108t-109.5 161
t-41 195.5v591h-110z" />
    <glyph glyph-name="afii10045" unicode="&#x42b;" horiz-adv-x="1748" 
d="M835 509v95q0 55 -39 95.5t-95 40.5h-304v-231q0 -56 39 -96t94 -40h171q56 0 95 40t39 96zM21 1466h376v-363h304q138 0 255 -68t185.5 -185t68.5 -255v-85q0 -137 -68.5 -254.5t-185.5 -186.5t-255 -69h-171q-135 0 -252.5 68t-187 185t-69.5 252v44v917zM1284 1466
v-1466h378v1466h-378z" />
    <glyph glyph-name="afii10046" unicode="&#x42c;" horiz-adv-x="1263" 
d="M835 509v93q0 55 -39 95.5t-95 40.5h-304v-229q0 -56 39 -96t94 -40h171q56 0 95 40t39 96zM21 1467h376v-364h304q138 0 255 -68t185.5 -185t68.5 -255v-85q0 -137 -68.5 -254.5t-185.5 -186.5t-255 -69h-171q-135 0 -252.5 68t-187 185t-69.5 252v44v918z" />
    <glyph glyph-name="afii10047" unicode="&#x42d;" horiz-adv-x="1169" 
d="M-23 98l188 335q95 -68 212 -68q102 0 187.5 52t132.5 139h-474v348h474q-47 87 -133 139t-187 52q-117 0 -212 -68l-188 335q180 116 400 116q152 0 290.5 -59.5t238.5 -159.5t159.5 -238.5t59.5 -290.5t-59.5 -290.5t-159.5 -238.5t-238.5 -159.5t-290.5 -59.5
q-220 0 -400 116z" />
    <glyph glyph-name="afii10048" unicode="&#x42e;" horiz-adv-x="1997" 
d="M1198 1093q-151 0 -257 -106t-106 -257t106 -257.5t257 -106.5t257.5 106.5t106.5 257.5t-106.5 257t-257.5 106zM230 44h-22v-44h-180v1460h180v-35h22v35h180v-539h67q32 121 95.5 221.5t154 175.5t211.5 116.5t260 41.5q140 0 276 -59.5t239.5 -158.5t167 -238.5
t63.5 -289.5t-63.5 -289.5t-167 -238.5t-239.5 -158.5t-276 -59.5q-275 0 -465 153t-256 401h-67v-538h-180v44z" />
    <glyph glyph-name="afii10049" unicode="&#x42f;" horiz-adv-x="1299" 
d="M397 1h-381q0 96 25 187t83.5 174t142.5 127q-69 20 -128 84t-91 144.5t-32 154.5v86q0 212 151 363.5t362 151.5h178q137 0 255.5 -68.5t189 -186t70.5 -253.5v-964h-381v395h-81q-97 0 -182 -57t-133 -148t-48 -190zM395 960v-123q0 -55 39 -95.5t95 -40.5h312
q0 38 1 130t1 129q0 56 -40 96t-96 40h-178q-56 0 -95 -40t-39 -96z" />
    <glyph glyph-name="afii10065" unicode="&#x430;" 
d="M974 480v-487q-164 38 -273 175.5t-106 307.5q3 46 -29 80t-79 34q-45 0 -77.5 -33t-32.5 -77q0 -46 32.5 -79t77.5 -33q53 0 78 37q25 -191 186 -335q-127 -77 -264 -77q-129 0 -241 64t-180 177t-68 246q0 203 143 346t346 143q99 0 189 -38.5t155.5 -104t104 -156
t38.5 -190.5z" />
    <glyph glyph-name="afii10066" unicode="&#x431;" horiz-adv-x="1044" 
d="M438 553v403q39 7 71 7q132 0 245.5 -66.5t179.5 -179t66 -243.5q0 -203 -144 -347t-347 -144q-134 0 -247 65.5t-179 179t-66 246.5v514q0 130 64.5 241.5t176 178t241.5 68.5h364q-15 -159 -111.5 -263t-244.5 -111q-46 0 -77.5 -32.5t-31.5 -78.5v-511
q0 -48 31.5 -82.5t79.5 -34.5q47 0 77.5 32t32.5 79q0 48 -31 80t-71.5 31.5t-78.5 -32.5z" />
    <glyph glyph-name="afii10067" unicode="&#x432;" horiz-adv-x="1032" 
d="M433 579v344h36q43 -1 73.5 26.5t30.5 78.5q0 33 -18.5 57t-44.5 30t-52.5 1t-45 -30.5t-18.5 -63.5v-548q0 -48 31.5 -82.5t79.5 -34.5q47 0 77 32t34 79q-2 44 -30.5 77.5t-85.5 33.5h-67zM816 793q83 -45 130 -135t47 -190q0 -133 -65.5 -245.5t-178 -178
t-244.5 -65.5q-133 0 -245.5 65.5t-178 178t-65.5 245.5v560q0 187 133 320t320 133q188 0 320.5 -133t132.5 -320q0 -68 -27 -134t-79 -101z" />
    <glyph glyph-name="afii10068" unicode="&#x433;" horiz-adv-x="778" 
d="M735 353v-354h-480q-92 0 -157 44.5t-88 108.5t-5 137.5t79 128.5l205 170h-272v356h467q64 0 115.5 -22.5t82 -59t44 -84t6.5 -97t-35.5 -99t-77.5 -88.5l-196 -141h312z" />
    <glyph glyph-name="afii10069" unicode="&#x434;" horiz-adv-x="1052" 
d="M575 372v-372q-153 -8 -280 43.5t-206.5 166t-79.5 273.5q0 99 38.5 189.5t104 156t155.5 104t189 38.5t189.5 -38.5t156 -104t104 -156t38.5 -189.5v-557q0 -187 -132.5 -320t-319.5 -133q-92 0 -176 36t-144.5 96.5t-96.5 144.5t-36 176q0 38 10 78l340 -69v-9
q0 -33 18.5 -57t44.5 -30.5t52 -1t44.5 30.5t18.5 63v546q0 48 -31.5 82.5t-79.5 34.5q-47 0 -77.5 -32t-33.5 -79q1 -43 30 -77t86 -34h74z" />
    <glyph glyph-name="afii10070" unicode="&#x435;" horiz-adv-x="1007" 
d="M940 375v-375h-436h-4q-132 0 -243.5 65t-176.5 176.5t-65 243.5t65 243.5t176.5 176.5t243.5 65q87 0 164 -21t141.5 -63.5t104.5 -114.5t46 -166q10 -121 -56 -199l-396 -1v35q61 -1 83 38t-4 78t-83 39q-45 0 -77.5 -32.5t-32.5 -77.5q0 -46 33.5 -79t80.5 -31h436z
" />
    <glyph glyph-name="afii10072" unicode="&#x436;" horiz-adv-x="1393" 
d="M1341 0h-363v52q0 42 -27 79l-93 127v-258h-363v258l-100 -127q-26 -32 -26 -79v-52h-352v51q0 117 22.5 186.5t97.5 132.5l112 93l-112 89q-69 56 -94.5 134t-25.5 185v95h352v-96q0 -53 40 -104l86 -109v811q157 -37 260 -161.5t103 -283.5v-366l78 109q42 58 42 104
v96h363v-95q0 -107 -26 -185t-98 -134l-116 -89l116 -93q78 -63 101 -132t23 -187v-51z" />
    <glyph glyph-name="afii10073" unicode="&#x437;" horiz-adv-x="892" 
d="M-16 3l332 -1v-5q0 -53 42.5 -75.5t85 2t42.5 84.5v49q0 49 -26 92t-72 43h-189v291h179q36 -1 65 27.5t31 73.5q2 34 -18.5 56t-47.5 26t-54 -11.5t-36 -48.5l-315 103q47 124 156.5 201.5t243.5 77.5q167 0 279.5 -118.5t103.5 -285.5q-2 -60 -30 -119t-77 -89
q75 -33 121 -130t44 -192v-51q0 -179 -126 -305t-305 -126q-117 0 -215.5 57.5t-156 157t-57.5 216.5z" />
    <glyph glyph-name="afii10074" unicode="&#x438;" 
d="M964 961v-952q-100 23 -184 89q-126 -100 -290 -100q-196 0 -334.5 140t-138.5 336v487h366v-488q0 -44 31.5 -76.5t75.5 -32.5q45 0 76.5 32t31.5 77v488h366z" />
    <glyph glyph-name="afii10075" unicode="&#x439;" 
d="M216 1276h229q0 -21 15 -36t36 -15t36 15t15 36h229v-1q0 -115 -82.5 -197.5t-197.5 -82.5q-116 0 -198 82.5t-82 197.5v1zM964 959v-950q-100 23 -184 89q-126 -100 -290 -100q-196 0 -334.5 140t-138.5 336v485h366v-486q0 -44 31.5 -76.5t75.5 -32.5q45 0 76.5 32
t31.5 77v486h366z" />
    <glyph glyph-name="afii10076" unicode="&#x43a;" horiz-adv-x="990" 
d="M382 0h-366v961h366v-288q75 52 129 114t54 108v63h374v-62q0 -109 -27 -189.5t-101 -137.5l-120 -92l120 -97q80 -64 104 -135t24 -192v-53h-374v55q0 45 -60 105.5t-123 103.5v-264z" />
    <glyph glyph-name="afii10077" unicode="&#x43b;" horiz-adv-x="1038" 
d="M960 1h-363v485q0 23 -12.5 47.5t-22.5 36t-38.5 38.5t-32.5 31q-5 -5 -33 -31t-38.5 -38t-23 -36.5t-12.5 -47.5v-485h-363v484q0 194 124 319l154 153h384l153 -153q124 -125 124 -319v-484z" />
    <glyph glyph-name="afii10078" unicode="&#x43c;" horiz-adv-x="1315" 
d="M1242 1h-355v520l-188 -208q-37 -39 -65 -39.5t-63 39.5l-181 208v-520h-363v730q0 66 23 119t59.5 84.5t85 45t99 6.5t102.5 -36.5t93 -79.5l146 -174l146 174q61 74 143 101.5t151.5 9t118 -84.5t48.5 -165v-730z" />
    <glyph glyph-name="afii10079" unicode="&#x43d;" horiz-adv-x="1011" 
d="M357 1h-341v961h341v-326h238v326h344v-961h-344v315h-238v-315z" />
    <glyph glyph-name="afii10080" unicode="&#x43e;" horiz-adv-x="1043" 
d="M505 974q135 0 249.5 -66.5t181.5 -181t67 -249.5q0 -133 -67 -247t-181.5 -180.5t-249.5 -66.5q-133 0 -246.5 66.5t-180 180.5t-66.5 247q0 135 66.5 249.5t180 181t246.5 66.5zM505 340q57 0 98 41t41 96q0 57 -41 97t-98 40q-54 0 -95 -40.5t-41 -96.5
q0 -54 41.5 -95.5t94.5 -41.5z" />
    <glyph glyph-name="afii10081" unicode="&#x43f;" horiz-adv-x="1033" 
d="M963 -3h-366v499q0 44 -31.5 76.5t-75.5 32.5q-45 0 -76.5 -32t-31.5 -77v-499h-366v963q100 -23 184 -89q126 100 290 100q196 0 334.5 -140t138.5 -336v-498z" />
    <glyph glyph-name="afii10082" unicode="&#x440;" 
d="M437 0v405q25 -25 58 -31t61 5.5t47.5 38.5t19.5 62q-3 49 -33.5 81t-77.5 32q-48 0 -79.5 -34.5t-31.5 -82.5v-391q0 -165 -108.5 -300t-270.5 -174v869q0 134 65.5 247.5t178.5 179.5t246 66t246 -66t178.5 -179.5t65.5 -247.5q0 -129 -66 -241t-179.5 -178.5
t-244.5 -66.5q-36 0 -75 6z" />
    <glyph glyph-name="afii10083" unicode="&#x441;" horiz-adv-x="1022" 
d="M505 369h474q-39 -161 -173.5 -268.5t-302.5 -107.5q-129 0 -241.5 66.5t-178.5 179t-66 240.5q0 133 65.5 245.5t177.5 177.5t243 65q172 0 304.5 -106.5t171.5 -269.5h-476q-44 0 -77 -33t-33 -79q0 -44 34 -77t78 -33z" />
    <glyph glyph-name="afii10084" unicode="&#x442;" horiz-adv-x="1629" 
d="M1561 0h-371v495q0 46 -31 78.5t-76 32.5t-77 -33.5t-32 -79.5v-493h-369v495q0 46 -31.5 78.5t-77.5 32.5q-45 0 -76 -32.5t-31 -78.5v-495h-369v962q99 -20 186 -88q127 101 294 101q162 -3 291 -103q126 103 294 103q130 -1 239.5 -66t173 -175t63.5 -239v-495z" />
    <glyph glyph-name="afii10085" unicode="&#x443;" horiz-adv-x="1056" 
d="M495 -425v343q50 0 84 26.5t42 62.5q-54 -17 -120 -17q-98 0 -187 38.5t-152.5 103.5t-101.5 154t-38 186v488h370v-490q0 -45 32 -77t77 -32q47 0 78 32t31 77v490h371v-905q0 -96 -40 -185t-106.5 -153.5t-156 -103t-183.5 -38.5z" />
    <glyph glyph-name="afii10086" unicode="&#x444;" horiz-adv-x="1401" 
d="M852 -148h-331v150h-17q-129 0 -239 64t-174.5 174t-64.5 239q0 198 140 337.5t337 139.5h18v163h331v-163h18q198 0 337.5 -139.5t139.5 -337.5q0 -197 -140.5 -337t-337.5 -140h-17v-150zM842 641v-325h25q62 0 107 49.5t45 113.5q0 65 -45.5 113.5t-108.5 48.5h-23z
M530 312l-1 333h-24q-47 0 -82 -24.5t-50.5 -61.5t-15.5 -80.5t16 -80.5t50.5 -61.5t81.5 -24.5h25z" />
    <glyph glyph-name="afii10087" unicode="&#x445;" horiz-adv-x="1034" 
d="M388 0h-374v46q0 198 126 330l96 96l-96 92q-126 129 -126 326v68h374v-108q0 -19 6.5 -37t21 -36t24.5 -28.5t32 -30.5t27 -25q6 7 32 31.5t38.5 38.5t25 39t12.5 48v108h372v-68q0 -200 -125 -326l-96 -92l96 -96q125 -129 125 -330v-46h-372v82q0 23 -12.5 47.5
t-25.5 39.5t-37.5 39t-32.5 33q-3 -3 -33.5 -32t-40.5 -41t-23.5 -37t-13.5 -49v-82z" />
    <glyph glyph-name="afii10088" unicode="&#x446;" horiz-adv-x="1046" 
d="M1010 -57h-350v9v12t-0.5 13t-1.5 14.5t-3 13.5t-5 13.5t-7.5 11t-10.5 9.5q-22 -18 -47.5 -26.5t-44 -10t-55.5 -1.5q-128 0 -236 63.5t-171 172t-63 236.5v490h364v-491q0 -44 31 -76t75 -32q45 0 76 31.5t31 76.5v491h363v-490q0 -111 -58 -185q68 -50 97 -148.5
t16 -196.5z" />
    <glyph glyph-name="afii10089" unicode="&#x447;" horiz-adv-x="1000" 
d="M579 963h347v-962h-347v238h-94q-195 -1 -332.5 134t-137.5 329v261h364v-285q0 -44 31 -76t75 -32h94v393z" />
    <glyph glyph-name="afii10090" unicode="&#x448;" horiz-adv-x="1628" 
d="M1557 961v-962q-99 20 -186 88q-127 -101 -294 -101q-162 3 -291 103q-126 -103 -294 -103q-130 1 -239.5 66t-173 175t-63.5 239v495h371v-495q0 -46 31 -78.5t76 -32.5t77 33.5t32 79.5v493h369v-495q0 -46 31.5 -78.5t77.5 -32.5q45 0 76 32.5t31 78.5v495h369z" />
    <glyph glyph-name="afii10091" unicode="&#x449;" horiz-adv-x="1612" 
d="M1576 -91h-345q0 86 -27 109q-22 -18 -47 -26.5t-43.5 -10t-54.5 -1.5q-158 0 -284 98q-128 -100 -287 -98q-125 0 -231.5 63t-168 170t-61.5 233v511h359v-512q0 -44 30.5 -75.5t74.5 -31.5q45 0 75 32t30 77v510h358v-510q0 -45 30 -77t75 -32q43 0 74 31.5t31 75.5
v511h358v-510q0 -112 -57 -183q39 -20 63.5 -61.5t34 -99t12 -97.5t1.5 -96z" />
    <glyph glyph-name="afii10092" unicode="&#x44a;" horiz-adv-x="1038" 
d="M480 457v369q45 8 64 8q125 0 223.5 -46.5t149.5 -120.5t75 -163t0 -178.5t-75 -163.5t-149.5 -120.5t-224.5 -46.5q-129 0 -236.5 58t-172 164.5t-64.5 240.5v134h-76v377h453v-505q0 -91 96 -91q34 0 50 14.5t14 34.5q-2 31 -28.5 45t-56 9.5t-42.5 -19.5z" />
    <glyph glyph-name="afii10093" unicode="&#x44b;" horiz-adv-x="1409" 
d="M408 454v363q38 7 62 7q108 0 196 -35.5t142 -93t83.5 -131.5t29.5 -151.5t-29.5 -151.5t-83 -131.5t-141.5 -93t-197 -35.5q-196 0 -326.5 139t-130.5 340v491h371v-485q0 -58 19.5 -86.5t66.5 -28.5q30 0 47 12.5t17 28.5q0 27 -24 42t-54 14.5t-48 -14.5zM962 0h380
v962h-380v-962z" />
    <glyph glyph-name="afii10094" unicode="&#x44c;" horiz-adv-x="964" 
d="M417 454v363q38 7 53 7q108 0 196 -35.5t142 -93t83.5 -131.5t29.5 -151.5t-29.5 -151.5t-83 -131.5t-141.5 -93t-197 -35.5q-196 0 -326.5 139t-130.5 340v491h371v-485q0 -58 19.5 -86.5t66.5 -28.5q30 0 47 12.5t17 28.5q0 27 -21.5 42t-49.5 14.5t-46 -14.5z" />
    <glyph glyph-name="afii10095" unicode="&#x44d;" horiz-adv-x="990" 
d="M-2 348h500q11 0 15.5 11t-0.5 22.5t-16 11.5h-221v169h216q21 0 19.5 22.5t-19.5 22.5h-494q28 167 163.5 264.5t315.5 97.5q133 0 246 -65.5t179 -178.5t66 -246q0 -130 -67 -243t-180.5 -180t-244.5 -67q-171 -1 -306 99t-172 260z" />
    <glyph glyph-name="afii10096" unicode="&#x44e;" horiz-adv-x="1383" 
d="M365 0h-347v968h347v-304h49q57 138 172.5 221.5t266.5 83.5q133 0 246.5 -66t179.5 -179t66 -247q0 -203 -144.5 -347t-347.5 -144q-158 0 -277.5 91t-170.5 240h-40v-317zM853 615q-58 0 -98 -40t-40 -98q0 -57 40 -97t98 -40t98 40t40 97q0 58 -40 98t-98 40z" />
    <glyph glyph-name="afii10097" unicode="&#x44f;" horiz-adv-x="979" 
d="M467 474h83v109q1 43 -21.5 66t-58.5 21q-42 -1 -70 -21t-34.5 -49t0 -57.5t34 -48.5t67.5 -20zM914 0h-364v146q-74 11 -125.5 -27t-54.5 -119h-349q-11 213 126 299q-67 52 -101 126t-34 150.5t31.5 153.5t88 136.5t143.5 97t190 37.5q208 0 328.5 -115.5t120.5 -332.5
v-552z" />
    <glyph glyph-name="afii10071" unicode="&#x451;" horiz-adv-x="1010" 
d="M940 0v375h-436q-47 -2 -80.5 31t-33.5 79q0 45 32.5 77.5t77.5 32.5q57 0 83 -39t4 -78t-83 -38v-42h63l333 1q65 77 56 206q-6 94 -46 166t-104.5 114.5t-141.5 63.5t-164 21q-132 0 -243.5 -65t-176.5 -176.5t-65 -243.5t65 -243.5t176.5 -176.5t243.5 -65h4h436z
M468 1267v-265h-313v265h313zM883 1267v-265h-313v265h313z" />
    <glyph glyph-name="afii10099" unicode="&#x452;" horiz-adv-x="1081" 
d="M414 -403l110 339q39 -12 74.5 7.5t41.5 66.5v499q0 45 -31.5 78t-77.5 33q-44 0 -75.5 -33t-31.5 -78v-509h-368v1023h-93v246h93v201q51 -5 92 -16.5t83.5 -34.5t77 -63t57.5 -97h151v-226h-104q3 -41 3 -84q74 24 147 19.5t139 -26t122 -64.5t97.5 -97.5t64.5 -125
t23 -146.5v-509h-1q-8 -180 -135 -305t-307 -125q-77 0 -152 27z" />
    <glyph glyph-name="afii10100" unicode="&#x453;" horiz-adv-x="786" 
d="M338 1364l305 -158l-224 -230h-251zM735 353v-354h-480q-92 0 -157 44.5t-88 108.5t-5 137.5t79 128.5l205 170h-272v356h467q64 0 115.5 -22.5t82 -59t44 -84t6.5 -97t-35.5 -99t-77.5 -88.5l-196 -141h312z" />
    <glyph glyph-name="afii10101" unicode="&#x454;" horiz-adv-x="1038" 
d="M487 357h500q-37 -161 -173 -265t-305 -103q-131 0 -244.5 67t-180.5 180t-67 243q0 133 66 246t179 178.5t246 65.5q179 0 315 -100.5t164 -268.5h-494q-11 0 -16.5 -9.5t-1.5 -19t18 -9.5h216v-169h-221q-11 0 -16 -9t-0.5 -18t15.5 -9z" />
    <glyph glyph-name="afii10102" unicode="&#x455;" horiz-adv-x="800" 
d="M755 960v-354h-265l197 -181q50 -45 73 -103t14.5 -113.5t-38.5 -103t-89 -77t-134 -29.5h-488v346h302q-28 22 -89 76t-95 81q-74 59 -101 139.5t-8.5 150.5t84.5 119t163 49h474z" />
    <glyph glyph-name="afii10103" unicode="&#x456;" horiz-adv-x="509" 
d="M18 1211q0 88 61 149.5t149 61.5t149.5 -61.5t61.5 -149.5t-61.5 -149t-149.5 -61t-149 61t-61 149zM38 0v963h375v-963h-375z" />
    <glyph glyph-name="afii10104" unicode="&#x457;" horiz-adv-x="588" 
d="M81 0v963h375v-963h-375zM231 1368v-303h-339v303h339zM637 1368v-303h-338v303h338z" />
    <glyph glyph-name="afii10105" unicode="&#x458;" horiz-adv-x="495" 
d="M-48 -399v346q43 0 73 25.5t30 64.5v927h343v-927q0 -118 -62 -219t-164.5 -159t-219.5 -58zM18 1225q0 88 61 149.5t149 61.5t149.5 -61.5t61.5 -149.5t-61.5 -149t-149.5 -61t-149 61t-61 149z" />
    <glyph glyph-name="afii10106" unicode="&#x459;" horiz-adv-x="1484" 
d="M290 965h605v-479q0 -135 87 -135q30 0 47.5 20.5t17.5 40.5q0 27 -21.5 42t-49 14t-46.5 -15v370q11 2 19 3.5t14.5 2.5t18.5 1q110 0 199.5 -36t144.5 -95t85 -134t30 -154t-29.5 -154t-84.5 -134t-144.5 -95t-200.5 -36q-132 0 -239 65.5t-166.5 177t-59.5 245.5v184
q-5 -5 -50 -44.5t-67.5 -69.5t-22.5 -60v-491h-367v490q0 196 126 322z" />
    <glyph glyph-name="afii10107" unicode="&#x45a;" horiz-adv-x="1469" 
d="M911 453v369q49 7 55 7q110 0 199.5 -36t144.5 -95t84.5 -134t30 -153.5t-29.5 -153.5t-85 -134t-144.5 -95t-199.5 -36t-202.5 33.5t-158.5 109t-78 183.5h-171v-319h-345v965h345v-323h145v323h377v-479q0 -126 88 -126q30 0 47.5 17t17.5 35q0 27 -22 42t-50.5 14.5
t-47.5 -14.5z" />
    <glyph glyph-name="afii10108" unicode="&#x45b;" horiz-adv-x="1083" 
d="M1013 0h-369v509q0 45 -31.5 78t-77.5 33q-44 0 -75.5 -33t-31.5 -78v-509h-368v1023h-93v246h93v201q51 -5 92 -16.5t83.5 -34.5t77 -63t57.5 -97h151v-226h-104q3 -41 3 -84q74 24 147 19.5t139 -26t122 -64.5t97.5 -97.5t64.5 -125t23 -146.5v-509z" />
    <glyph glyph-name="afii10109" unicode="&#x45c;" horiz-adv-x="990" 
d="M520 1378l305 -158l-224 -233h-251zM382 0h-366v961h366v-288q75 52 129 114t54 108v63h374v-62q0 -109 -27 -189.5t-101 -137.5l-120 -92l120 -97q80 -64 104 -135t24 -192v-53h-374v55q0 45 -60 105.5t-123 103.5v-264z" />
    <glyph glyph-name="afii10110" unicode="&#x45e;" horiz-adv-x="1056" 
d="M216 1276h229q0 -21 15 -36t36 -15t36 15t15 36h229v-1q0 -115 -82.5 -197.5t-197.5 -82.5q-116 0 -198 82.5t-82 197.5v1zM495 -78v-347q94 0 183.5 38.5t156 103t106.5 153.5t40 185v905h-371v-510q0 -45 -31 -77t-78 -32q-45 0 -77 32t-32 77v510h-370v-488
q0 -97 38 -186.5t101.5 -154.5t152.5 -104t187 -39q80 0 136 41q-5 -45 -46.5 -76t-95.5 -31z" />
    <glyph glyph-name="afii10193" unicode="&#x45f;" horiz-adv-x="1039" 
d="M686 11v-196h-376v196q-134 56 -216.5 178.5t-82.5 272.5v500l178 1v-1h198v-501q0 -46 32.5 -79.5t78.5 -33.5q45 0 77.5 33.5t32.5 79.5v501h376v-500q0 -150 -82.5 -272.5t-215.5 -178.5z" />
    <glyph glyph-name="afii10050" unicode="&#x490;" horiz-adv-x="878" 
d="M407 950v-950h-385v958q0 103 42.5 198t113.5 163.5t167 109t198 40.5h42v165h254v-545h-296q-56 0 -96 -41t-40 -98z" />
    <glyph glyph-name="afii10098" unicode="&#x491;" horiz-adv-x="725" 
d="M391 473v-473h-370v481q0 184 128 323t310 163v312h232v-460h-1v-212h-169q-54 0 -92 -40t-38 -94z" />
    <glyph glyph-name="uni0492" unicode="&#x492;" horiz-adv-x="934" 
d="M472 950v-226h185v-307h-185v-417h-385v417h-80v307h80v234q0 103 42.5 198t113.5 163.5t167 109t198 40.5h296v-380h-296q-56 0 -96 -41t-40 -98z" />
    <glyph glyph-name="uni0493" unicode="&#x493;" horiz-adv-x="746" 
d="M3 198v257h54v26q0 132 69 245.5t184.5 179t246.5 65.5h169v-173h-169q-134 0 -229.5 -95t-95.5 -230v-473h-175v198h-54zM427 473v-18h127v-257h-127v-198h-175v474q0 124 90 214t215 90h169v-171h-169q-54 0 -92 -40t-38 -94z" />
    <glyph glyph-name="uni0496" unicode="&#x496;" horiz-adv-x="1861" 
d="M1590 0h-197v154q0 50 -28 81l-265 306h-13v-541h-384v541h-13l-266 -306q-28 -31 -28 -81v-154h-372v160q0 189 105 299l254 273l-254 274q-105 110 -105 300v160h372v-154q0 -51 28 -82l279 -282v518h384v-545l278 309q28 31 28 82v154h372v-160q0 -190 -104 -300
l-255 -274l255 -273q93 -100 103 -255h75v-535h-248v331h-1z" />
    <glyph glyph-name="uni0497" unicode="&#x497;" horiz-adv-x="1391" 
d="M369 0h-352v51q0 117 22.5 186.5t97.5 132.5l112 93l-112 89q-69 56 -94.5 134t-25.5 185v86h352v-87q0 -53 40 -104l86 -109v811q156 -37 259.5 -165.5t103.5 -288.5v-357l78 109q42 58 42 104v87h363v-86q0 -107 -26 -185t-98 -134l-116 -89l116 -93q69 -56 95 -118
t28 -153h30v-409h-200v310h-192v52q0 42 -27 79l-93 127v-258h-363v258l-100 -127q-26 -32 -26 -79v-52z" />
    <glyph glyph-name="uni049A" unicode="&#x49a;" horiz-adv-x="1304" 
d="M1028 128l-20 -3v-122h-176v153q0 50 -28 82l-265 305h-130v-540h-383v1463h383v-543h117l278 309q28 31 28 81v153h372v-159q0 -190 -105 -299l-254 -274l254 -273q94 -100 104 -256h75v-535h-250v458z" />
    <glyph glyph-name="uni049B" unicode="&#x49b;" horiz-adv-x="1004" 
d="M762 80l-22 -1v-79h-175v55q0 45 -60 105.5t-123 103.5v-264h-366v961h366v-288q75 52 129 114t54 108v63h374v-62q0 -109 -27 -189.5t-101 -137.5l-120 -92l120 -97q92 -74 115 -175h49v-501h-212v296h-1v80z" />
    <glyph glyph-name="uni049C" unicode="&#x49c;" horiz-adv-x="1239" 
d="M401 3h-383v1463h383v-543h77v322h197v-148l121 135q28 31 28 81v153h372v-159q0 -190 -105 -299l-254 -274l254 -273q105 -109 105 -299v-159h-372v153q0 50 -28 82l-121 139v-167h-197v333h-77v-540z" />
    <glyph glyph-name="uni049D" unicode="&#x49d;" horiz-adv-x="980" 
d="M382 0h-366v961h366v-314q28 20 47 36v248h98v-146q53 68 53 110v63h359v-62q0 -109 -27 -189.5t-101 -137.5l-120 -92l120 -97q80 -64 104 -135t24 -192v-53h-359v55q0 36 -53 101v-110h-98v208q-25 20 -47 36v-290z" />
    <glyph glyph-name="uni04A2" unicode="&#x4a2;" horiz-adv-x="1409" 
d="M413 0h-382v1476q166 -47 274 -185.5t108 -312.5v-167h492v665q166 -47 273.5 -185.5t107.5 -312.5v-773h105v-535h-250v330h1h-237v427h-492v-427z" />
    <glyph glyph-name="uni04A3" unicode="&#x4a3;" horiz-adv-x="1025" 
d="M366 1h-341v961h341v-326h238v326h344v-757h48v-501h-212v297h-1v80l-21 2v-82h-158v315h-238v-315z" />
    <glyph glyph-name="uni04AE" unicode="&#x4ae;" horiz-adv-x="1267" 
d="M807 1h-366v564l-324 346q-104 111 -104 298v257h372v-251q0 -52 27 -82l211 -234l211 234q28 31 28 82v251h373v-257q0 -187 -104 -298l-324 -346v-564z" />
    <glyph glyph-name="uni04AF" unicode="&#x4af;" horiz-adv-x="1129" 
d="M703 -409h-341v382l-393 984h395l174 -531l191 531h393l-419 -984v-382z" />
    <glyph glyph-name="uni04B0" unicode="&#x4b0;" horiz-adv-x="1275" 
d="M807 1h-366v449h-290v234h178l-212 227q-104 111 -104 298v257h372v-251q0 -52 27 -82l211 -234l211 234q28 31 28 82v251h373v-257q0 -187 -104 -298l-213 -227h175v-234h-286v-449z" />
    <glyph glyph-name="uni04B1" unicode="&#x4b1;" horiz-adv-x="1159" 
d="M723 -411h-341v218h-189v193h178l-382 957h395l174 -531l191 531h393l-408 -957h163v-193h-174v-218z" />
    <glyph glyph-name="uni04B2" unicode="&#x4b2;" horiz-adv-x="1366" 
d="M389 0h-375v159q0 190 105 299l257 277l-257 274q-105 113 -105 299v159h375v-152q0 -52 27 -82l213 -237l212 237q29 29 29 82v152h373v-159q0 -186 -105 -299l-255 -274l255 -277q93 -97 103 -253h75v-535h-243v430l-27 -1v-99h-176v153q0 52 -29 81l-212 237
l-213 -237q-27 -30 -27 -81v-153z" />
    <glyph glyph-name="uni04B3" unicode="&#x4b3;" horiz-adv-x="1027" 
d="M807 88h-19v-88h-178v110q0 23 -12.5 47.5t-25.5 39.5t-37.5 39t-32.5 33q-3 -3 -33.5 -32t-40.5 -41t-23.5 -37t-13.5 -49v-110h-374v46q0 198 126 330l96 96l-96 92q-126 129 -126 326v68h374v-114q0 -19 6.5 -37t21 -36t24.5 -28.5t32 -30.5t27 -25q6 7 32 31.5
t38.5 38.5t25 39t12.5 48v114h372v-68q0 -200 -125 -326l-96 -92l96 -96q86 -89 113 -219h50v-453h-212v296h-1v88z" />
    <glyph glyph-name="uni04B8" unicode="&#x4b8;" horiz-adv-x="1279" 
d="M1198 0h-382v474h-79v-234h-198v234h-4q-104 0 -199 41.5t-164 110.5t-110 164.5t-41 198.5v471h377v-470q0 -55 40.5 -95.5t96.5 -40.5h4v256h198v-256h79v606h382v-1460z" />
    <glyph glyph-name="uni04B9" unicode="&#x4b9;" horiz-adv-x="1006" 
d="M931 1h-347v229h-44v-129h-103v132q-177 20 -297 154.5t-120 314.5v261h364v-262q0 -63 53 -94v197h103v-211h44v370h347v-962z" />
    <glyph glyph-name="uni04BA" unicode="&#x4ba;" horiz-adv-x="1310" 
d="M1237 2h-381v395q0 56 -39.5 96.5t-94.5 40.5h-315v-532h-382v1470q166 -46 274 -183.5t108 -311.5v-62h337q124 0 238.5 -73.5t184.5 -192t70 -245.5v-402z" />
    <glyph glyph-name="uni04BB" unicode="&#x4bb;" horiz-adv-x="1055" 
d="M974 0h-369v509q0 45 -31.5 78t-77.5 33q-44 0 -75.5 -33t-31.5 -78v-509h-368v1470q39 -4 61.5 -7t59 -12t58 -20t51.5 -32.5t47.5 -49t36.5 -68.5t28.5 -92.5t15 -121.5t2.5 -153q84 42 172 43t162 -34.5t133 -95.5t92.5 -143.5t33.5 -174.5v-509z" />
    <glyph glyph-name="uni04E8" unicode="&#x4e8;" horiz-adv-x="1537" 
d="M751 1475q202 0 373.5 -100t271.5 -271.5t100 -373.5t-100 -373.5t-271.5 -271.5t-373.5 -100q-152 0 -290 59t-237.5 159t-158.5 238t-59 289t59 289t158.5 238t237.5 159t290 59zM397 899h708q-53 93 -148 149t-206 56q-112 0 -206 -56t-148 -149zM1102 560h-702
q53 -92 146.5 -147.5t204.5 -55.5q110 0 204 55.5t147 147.5z" />
    <glyph glyph-name="uni04E9" unicode="&#x4e9;" horiz-adv-x="995" 
d="M472 770q116 0 198.5 -80t87.5 -195h-571q5 115 87.5 195t197.5 80zM187 475h571q-5 -115 -87.5 -195.5t-198.5 -80.5q-115 0 -197.5 80.5t-87.5 195.5zM472 968q200 0 341.5 -141.5t141.5 -341.5t-141.5 -341.5t-341.5 -141.5q-113 0 -205 41.5t-148.5 109.5t-87 154.5
t-30.5 177.5t30.5 177.5t87 154.5t148.5 109.5t205 41.5zM472 792q-127 0 -217 -90t-90 -217t90 -217t217 -90q128 0 217.5 90t89.5 217t-89.5 217t-217.5 90z" />
    <glyph glyph-name="endash" unicode="&#x2013;" horiz-adv-x="1111" 
d="M27 407v353h997v-353h-997z" />
    <glyph glyph-name="emdash" unicode="&#x2014;" horiz-adv-x="1766" 
d="M27 407v353h1652v-353h-1652z" />
    <glyph glyph-name="quoteleft" unicode="&#x2018;" horiz-adv-x="520" 
d="M426 764h-392v310q0 161 115.5 276.5t276.5 115.5v-289q-43 0 -73.5 -30t-30.5 -73h104v-310z" />
    <glyph glyph-name="quoteright" unicode="&#x2019;" horiz-adv-x="508" 
d="M34 784v289q43 0 73.5 30t30.5 73h-104v310h392v-310q0 -161 -115.5 -276.5t-276.5 -115.5z" />
    <glyph glyph-name="quotesinglbase" unicode="&#x201a;" horiz-adv-x="577" 
d="M57 -416v307q46 0 78 32.5t32 78.5h-110v331h419v-331q0 -172 -123 -295t-296 -123z" />
    <glyph glyph-name="quotedblleft" unicode="&#x201c;" horiz-adv-x="958" 
d="M426 773h-392v310q0 161 115.5 276.5t276.5 115.5v-289q-43 0 -73.5 -30t-30.5 -73h104v-310zM870 1475v-289q-43 0 -73.5 -30t-30.5 -73h104v-310h-392v310q0 161 115.5 276.5t276.5 115.5z" />
    <glyph glyph-name="quotedblright" unicode="&#x201d;" horiz-adv-x="920" 
d="M466 773v289q43 0 73.5 30t30.5 73h-104v310h392v-310q0 -161 -115.5 -276.5t-276.5 -115.5zM22 773v289q43 0 73.5 30t30.5 73h-104v310h392v-310q0 -161 -115.5 -276.5t-276.5 -115.5z" />
    <glyph glyph-name="quotedblbase" unicode="&#x201e;" horiz-adv-x="995" 
d="M32 -416v307q46 0 78 32.5t32 78.5h-110v331h419v-331q0 -172 -123 -295t-296 -123zM504 333h419v-331q0 -172 -123 -295t-296 -123v307q46 0 78 32.5t32 78.5h-110v331z" />
    <glyph glyph-name="dagger" unicode="&#x2020;" horiz-adv-x="1098" 
d="M721 -346h-377v956h-312v366h312v482h377v-482h292v-366h-292v-956z" />
    <glyph glyph-name="daggerdbl" unicode="&#x2021;" horiz-adv-x="1139" 
d="M750 -346h-378v436h-292v366h292v177h-294v366h294v459h378v-459h304v-366h-304v-177h303v-366h-303v-436z" />
    <glyph glyph-name="bullet" unicode="&#x2022;" horiz-adv-x="893" 
d="M432 1110q152 0 261 -109.5t109 -261.5q0 -155 -108.5 -264t-261.5 -109q-156 0 -264.5 109t-108.5 264q0 153 109 262t264 109z" />
    <glyph glyph-name="ellipsis" unicode="&#x2026;" horiz-adv-x="1507" 
d="M458 0h-400v339h400v-339zM927 0h-400v339h400v-339zM1397 0h-400v339h400v-339z" />
    <glyph glyph-name="perthousand" unicode="&#x2030;" horiz-adv-x="2251" 
d="M532 -26h-426q332 533 920 1513h426q-409 -676 -920 -1513zM397 846q-127 0 -222.5 95t-95.5 223q0 131 95 224t223 93q129 0 223 -92.5t94 -224.5q0 -129 -94.5 -223.5t-222.5 -94.5zM398 1120q18 0 30.5 13.5t12.5 31.5q0 17 -12.5 29.5t-30.5 12.5t-30.5 -12.5
t-12.5 -29.5q0 -18 12.5 -31.5t30.5 -13.5zM1174 -11q-127 0 -222.5 95t-95.5 223q0 131 95 224t223 93q129 0 223 -92.5t94 -224.5q0 -129 -94.5 -223.5t-222.5 -94.5zM1855 -11q-127 0 -222.5 95t-95.5 223q0 131 95 224t223 93q129 0 223 -92.5t94 -224.5
q0 -129 -94.5 -223.5t-222.5 -94.5zM1172 260q18 0 30.5 13.5t12.5 31.5q0 17 -12.5 29.5t-30.5 12.5t-30.5 -12.5t-12.5 -29.5q0 -18 12.5 -31.5t30.5 -13.5zM1853 260q18 0 30.5 13.5t12.5 31.5q0 17 -12 29.5t-31 12.5q-18 0 -30.5 -12.5t-12.5 -29.5q0 -18 12.5 -31.5
t30.5 -13.5z" />
    <glyph glyph-name="guilsinglleft" unicode="&#x2039;" horiz-adv-x="733" 
d="M649 205l-281 -155l-330 521l330 525l281 -155l-239 -370z" />
    <glyph glyph-name="guilsinglright" unicode="&#x203a;" horiz-adv-x="689" 
d="M306 50l-281 155l239 366l-239 370l281 155l330 -525z" />
    <glyph glyph-name="Euro" unicode="&#x20ac;" horiz-adv-x="1282" 
d="M1024 448l188 -333q-179 -117 -398 -117q-253 0 -452.5 154.5t-265.5 393.5h-74v393h74q66 238 265.5 392t452.5 154q217 0 398 -115l-188 -333q-88 67 -210 67q-93 0 -173.5 -45t-130.5 -120h352v-393h-352q50 -77 130.5 -122t173.5 -45q119 0 210 69z" />
    <glyph glyph-name="trademark" unicode="&#x2122;" horiz-adv-x="1829" 
d="M1714 738h-253v356q0 10 -2.5 19.5t-8 18.5t-10 16t-13.5 17t-13.5 14.5t-15.5 14t-14 12.5q-3 -4 -17 -18t-20.5 -21.5t-16 -20.5t-13.5 -26t-4 -26v-356h-258v356q0 13 -4 25.5t-15.5 26.5t-16.5 20.5t-22.5 22.5t-18.5 17q-3 -4 -17 -18t-20.5 -21.5t-16 -20.5
t-13.5 -26t-4 -26v-356h-259v352q0 148 88 245l108 119h266l73 -85l71 85h266l106 -119q88 -89 88 -245v-352zM441 738h-256v439h-158v277h569v-277h-155v-439z" />
    <glyph glyph-name="fi" unicode="&#xf001;" horiz-adv-x="1105" 
d="M418 2h-376v969q0 133 64.5 245.5t176 178t244.5 65.5h465l1 -372h-466q-47 0 -78 -33t-31 -80v-169h82v-375h-82v-429zM623 0v963h375v-963h-375z" />
    <glyph glyph-name="fl" unicode="&#xf002;" horiz-adv-x="1170" 
d="M500 806v-375h-82v-429h-376v969q0 133 64.5 245.5t176 178t244.5 65.5l465 1v-996q0 -42 32 -69t78 -27v-371q-125 0 -235 62.5t-176.5 170.5t-66.5 234v623h-97q-47 0 -78 -33t-31 -80v-169h82z" />
    <glyph glyph-name="commaaccent" unicode="&#xf004;" horiz-adv-x="682" 
d="M166 -676v246q36 0 62 25.5t26 62.5h-88v265h335v-265q0 -138 -98.5 -236t-236.5 -98z" />
    <glyph glyph-name="undercommaaccent" unicode="&#xf005;" horiz-adv-x="682" 
d="M198 -189l5 154q33 4 72 4q151 0 219 -56t68 -129q2 -83 -77 -142q-78 -60 -245 -61q-71 0 -154 19l20 169q73 -17 156 -17q86 0 83 31q-1 31 -65 31q-63 -2 -82 -3z" />
    <glyph glyph-name="q.001" horiz-adv-x="1059" 
d="M999 480v-869q-162 39 -270.5 174t-108.5 300v391q0 48 -31.5 82.5t-79.5 34.5q-47 0 -77.5 -32t-33.5 -81q0 -35 20 -62t48.5 -38.5t62 -5.5t58.5 31v-405q-39 -6 -78 -6q-131 0 -244.5 66.5t-179.5 178.5t-66 241q0 134 65.5 247.5t178.5 179.5t246 66t246 -66
t178.5 -179.5t65.5 -247.5z" />
    <glyph glyph-name="pi1" horiz-adv-x="1131" 
d="M476 3h-341v591h-117v363h1063q0 -5 -0.5 -110t-0.5 -253h-108v-591h-341v591h-155v-591z" />
    <glyph glyph-name="middot.001" horiz-adv-x="669" 
d="M489 450h-366v366h366v-366z" />
    <glyph glyph-name="_157.001" horiz-adv-x="1024" 
 />
    </font>
</defs>
</svg>
